<svg width="38" height="34" viewBox="0 0 38 34" fill="none" xmlns="http://www.w3.org/2000/svg">
<path d="M18.9799 33.4391C14.5367 33.4391 10.0946 33.4464 5.6514 33.4355C2.96069 33.4294 0.617632 31.4958 0.0985391 28.8385C-0.16696 27.4783 0.114017 26.2067 0.821221 25.015C4.44534 18.9136 8.05994 12.8049 11.6781 6.69983C12.3984 5.48392 13.1175 4.26678 13.839 3.05087C16.2476 -1.00907 21.7373 -1.01998 24.1447 3.03632C28.4879 10.3561 32.8038 17.6916 37.1684 24.9968C39.3103 28.5827 37.0648 32.6851 33.2824 33.3458C32.9038 33.4113 32.5144 33.4331 32.1299 33.4343C27.7462 33.4416 23.3637 33.4391 18.9799 33.4391ZM20.7122 15.8707C20.7122 14.7373 20.717 13.605 20.711 12.4715C20.7063 11.3623 19.9788 10.5767 18.9776 10.5864C17.9965 10.5961 17.2834 11.3768 17.281 12.463C17.2762 14.7142 17.2762 16.9642 17.281 19.2154C17.2834 20.3319 18.0013 21.1017 19.0145 21.0933C20.0062 21.086 20.7063 20.3198 20.711 19.2227C20.717 18.1062 20.7122 16.9885 20.7122 15.8707ZM18.9823 22.9044C18.0406 22.9093 17.2857 23.673 17.281 24.6258C17.2762 25.5945 18.0477 26.3715 19.0085 26.3655C19.9491 26.3606 20.7039 25.5957 20.7087 24.6428C20.7158 23.673 19.9467 22.8996 18.9823 22.9044Z" fill="#F86458"/>
</svg>
