<svg width="4" height="16" viewBox="0 0 4 16" fill="none" xmlns="http://www.w3.org/2000/svg">
    <path d="M2 12C2.53043 12 3.03914 12.2107 3.41421 12.5858C3.78929 12.9609 4 13.4696 4 14C4 14.5304 3.78929 15.0391 3.41421 15.4142C3.03914 15.7893 2.53043 16 2 16C1.46957 16 0.960859 15.7893 0.585786 15.4142C0.210713 15.0391 -6.35145e-07 14.5304 -6.11959e-07 14C-5.88773e-07 13.4696 0.210714 12.9609 0.585786 12.5858C0.960859 12.2107 1.46957 12 2 12ZM2 6C2.53043 6 3.03914 6.21071 3.41421 6.58579C3.78929 6.96086 4 7.46957 4 8C4 8.53043 3.78929 9.03914 3.41421 9.41421C3.03914 9.78929 2.53043 10 2 10C1.46957 10 0.960859 9.78929 0.585786 9.41421C0.210714 9.03914 -3.72877e-07 8.53043 -3.49691e-07 8C-3.26505e-07 7.46957 0.210714 6.96086 0.585787 6.58579C0.960859 6.21071 1.46957 6 2 6ZM2 -8.74228e-08C2.53043 -6.42368e-08 3.03914 0.210714 3.41421 0.585786C3.78929 0.960859 4 1.46957 4 2C4 2.53043 3.78929 3.03914 3.41421 3.41421C3.03914 3.78929 2.53043 4 2 4C1.46957 4 0.960859 3.78929 0.585787 3.41421C0.210714 3.03914 -1.10609e-07 2.53043 -8.74228e-08 2C-6.42368e-08 1.46957 0.210714 0.960859 0.585787 0.585786C0.96086 0.210713 1.46957 -1.10609e-07 2 -8.74228e-08Z"
          fill="#646464">
    </path>
</svg>