<svg width="139" height="38" viewBox="0 0 139 38" fill="none" xmlns="http://www.w3.org/2000/svg">
<g filter="url(#filter0_d_501_14261)">
<rect x="4" y="4" width="131" height="30" rx="6" fill="#511A53" fill-opacity="0.06" shape-rendering="crispEdges"/>
<rect x="4.25" y="4.25" width="130.5" height="29.5" rx="5.75" stroke="#DBDBDB" stroke-width="0.5" shape-rendering="crispEdges"/>
<path d="M25 13C25.2076 13 25.4066 13.0825 25.5534 13.2292C25.7002 13.376 25.7826 13.575 25.7826 13.7826V18.2174H30.2174C30.425 18.2174 30.624 18.2998 30.7708 18.4466C30.9175 18.5934 31 18.7924 31 19C31 19.2076 30.9175 19.4066 30.7708 19.5534C30.624 19.7002 30.425 19.7826 30.2174 19.7826H25.7826V24.2174C25.7826 24.425 25.7002 24.624 25.5534 24.7708C25.4066 24.9175 25.2076 25 25 25C24.7924 25 24.5934 24.9175 24.4466 24.7708C24.2998 24.624 24.2174 24.425 24.2174 24.2174V19.7826H19.7826C19.575 19.7826 19.376 19.7002 19.2292 19.5534C19.0825 19.4066 19 19.2076 19 19C19 18.7924 19.0825 18.5934 19.2292 18.4466C19.376 18.2998 19.575 18.2174 19.7826 18.2174H24.2174V13.7826C24.2174 13.575 24.2998 13.376 24.4466 13.2292C24.5934 13.0825 24.7924 13 25 13Z" fill="#A42E70"/>
<path d="M46.964 21.404H43.628L43.076 23H41.312L44.324 14.612H46.28L49.292 23H47.516L46.964 21.404ZM46.508 20.06L45.296 16.556L44.084 20.06H46.508ZM49.9858 19.652C49.9858 18.98 50.1178 18.384 50.3818 17.864C50.6538 17.344 51.0218 16.944 51.4858 16.664C51.9498 16.384 52.4658 16.244 53.0338 16.244C53.4658 16.244 53.8778 16.34 54.2698 16.532C54.6618 16.716 54.9738 16.964 55.2058 17.276V14.12H56.9098V23H55.2058V22.016C54.9978 22.344 54.7058 22.608 54.3298 22.808C53.9538 23.008 53.5178 23.108 53.0218 23.108C52.4618 23.108 51.9498 22.964 51.4858 22.676C51.0218 22.388 50.6538 21.984 50.3818 21.464C50.1178 20.936 49.9858 20.332 49.9858 19.652ZM55.2178 19.676C55.2178 19.268 55.1378 18.92 54.9778 18.632C54.8178 18.336 54.6018 18.112 54.3298 17.96C54.0578 17.8 53.7658 17.72 53.4538 17.72C53.1418 17.72 52.8538 17.796 52.5898 17.948C52.3258 18.1 52.1098 18.324 51.9418 18.62C51.7818 18.908 51.7018 19.252 51.7018 19.652C51.7018 20.052 51.7818 20.404 51.9418 20.708C52.1098 21.004 52.3258 21.232 52.5898 21.392C52.8618 21.552 53.1498 21.632 53.4538 21.632C53.7658 21.632 54.0578 21.556 54.3298 21.404C54.6018 21.244 54.8178 21.02 54.9778 20.732C55.1378 20.436 55.2178 20.084 55.2178 19.676ZM58.1187 19.652C58.1187 18.98 58.2507 18.384 58.5147 17.864C58.7867 17.344 59.1547 16.944 59.6187 16.664C60.0827 16.384 60.5987 16.244 61.1667 16.244C61.5987 16.244 62.0107 16.34 62.4027 16.532C62.7947 16.716 63.1067 16.964 63.3387 17.276V14.12H65.0427V23H63.3387V22.016C63.1307 22.344 62.8387 22.608 62.4627 22.808C62.0867 23.008 61.6507 23.108 61.1547 23.108C60.5947 23.108 60.0827 22.964 59.6187 22.676C59.1547 22.388 58.7867 21.984 58.5147 21.464C58.2507 20.936 58.1187 20.332 58.1187 19.652ZM63.3507 19.676C63.3507 19.268 63.2707 18.92 63.1107 18.632C62.9507 18.336 62.7347 18.112 62.4627 17.96C62.1907 17.8 61.8987 17.72 61.5867 17.72C61.2747 17.72 60.9867 17.796 60.7227 17.948C60.4587 18.1 60.2427 18.324 60.0747 18.62C59.9147 18.908 59.8347 19.252 59.8347 19.652C59.8347 20.052 59.9147 20.404 60.0747 20.708C60.2427 21.004 60.4587 21.232 60.7227 21.392C60.9947 21.552 61.2827 21.632 61.5867 21.632C61.8987 21.632 62.1907 21.556 62.4627 21.404C62.7347 21.244 62.9507 21.02 63.1107 20.732C63.2707 20.436 63.3507 20.084 63.3507 19.676ZM69.1348 18.8C69.1348 17.976 69.3188 17.24 69.6868 16.592C70.0628 15.936 70.5708 15.428 71.2108 15.068C71.8588 14.7 72.5828 14.516 73.3828 14.516C74.3188 14.516 75.1388 14.756 75.8428 15.236C76.5468 15.716 77.0388 16.38 77.3188 17.228H75.3868C75.1948 16.828 74.9228 16.528 74.5708 16.328C74.2268 16.128 73.8268 16.028 73.3708 16.028C72.8828 16.028 72.4468 16.144 72.0628 16.376C71.6868 16.6 71.3908 16.92 71.1748 17.336C70.9668 17.752 70.8628 18.24 70.8628 18.8C70.8628 19.352 70.9668 19.84 71.1748 20.264C71.3908 20.68 71.6868 21.004 72.0628 21.236C72.4468 21.46 72.8828 21.572 73.3708 21.572C73.8268 21.572 74.2268 21.472 74.5708 21.272C74.9228 21.064 75.1948 20.76 75.3868 20.36H77.3188C77.0388 21.216 76.5468 21.884 75.8428 22.364C75.1468 22.836 74.3268 23.072 73.3828 23.072C72.5828 23.072 71.8588 22.892 71.2108 22.532C70.5708 22.164 70.0628 21.656 69.6868 21.008C69.3188 20.36 69.1348 19.624 69.1348 18.8ZM82.4978 16.256C83.0018 16.256 83.4498 16.368 83.8418 16.592C84.2338 16.808 84.5378 17.132 84.7538 17.564C84.9778 17.988 85.0898 18.5 85.0898 19.1V23H83.4098V19.328C83.4098 18.8 83.2778 18.396 83.0138 18.116C82.7498 17.828 82.3898 17.684 81.9338 17.684C81.4698 17.684 81.1018 17.828 80.8298 18.116C80.5658 18.396 80.4338 18.8 80.4338 19.328V23H78.7538V14.12H80.4338V17.18C80.6498 16.892 80.9378 16.668 81.2978 16.508C81.6578 16.34 82.0578 16.256 82.4978 16.256ZM86.2554 19.652C86.2554 18.98 86.3874 18.384 86.6514 17.864C86.9234 17.344 87.2874 16.944 87.7434 16.664C88.2074 16.384 88.7234 16.244 89.2914 16.244C89.7874 16.244 90.2194 16.344 90.5874 16.544C90.9634 16.744 91.2634 16.996 91.4874 17.3V16.352H93.1794V23H91.4874V22.028C91.2714 22.34 90.9714 22.6 90.5874 22.808C90.2114 23.008 89.7754 23.108 89.2794 23.108C88.7194 23.108 88.2074 22.964 87.7434 22.676C87.2874 22.388 86.9234 21.984 86.6514 21.464C86.3874 20.936 86.2554 20.332 86.2554 19.652ZM91.4874 19.676C91.4874 19.268 91.4074 18.92 91.2474 18.632C91.0874 18.336 90.8714 18.112 90.5994 17.96C90.3274 17.8 90.0354 17.72 89.7234 17.72C89.4114 17.72 89.1234 17.796 88.8594 17.948C88.5954 18.1 88.3794 18.324 88.2114 18.62C88.0514 18.908 87.9714 19.252 87.9714 19.652C87.9714 20.052 88.0514 20.404 88.2114 20.708C88.3794 21.004 88.5954 21.232 88.8594 21.392C89.1314 21.552 89.4194 21.632 89.7234 21.632C90.0354 21.632 90.3274 21.556 90.5994 21.404C90.8714 21.244 91.0874 21.02 91.2474 20.732C91.4074 20.436 91.4874 20.084 91.4874 19.676ZM96.5002 17.312C96.7162 17.008 97.0122 16.756 97.3882 16.556C97.7722 16.348 98.2082 16.244 98.6962 16.244C99.2642 16.244 99.7762 16.384 100.232 16.664C100.696 16.944 101.06 17.344 101.324 17.864C101.596 18.376 101.732 18.972 101.732 19.652C101.732 20.332 101.596 20.936 101.324 21.464C101.06 21.984 100.696 22.388 100.232 22.676C99.7762 22.964 99.2642 23.108 98.6962 23.108C98.2082 23.108 97.7762 23.008 97.4002 22.808C97.0322 22.608 96.7322 22.356 96.5002 22.052V26.168H94.8202V16.352H96.5002V17.312ZM100.016 19.652C100.016 19.252 99.9322 18.908 99.7642 18.62C99.6042 18.324 99.3882 18.1 99.1162 17.948C98.8522 17.796 98.5642 17.72 98.2522 17.72C97.9482 17.72 97.6602 17.8 97.3882 17.96C97.1242 18.112 96.9082 18.336 96.7402 18.632C96.5802 18.928 96.5002 19.276 96.5002 19.676C96.5002 20.076 96.5802 20.424 96.7402 20.72C96.9082 21.016 97.1242 21.244 97.3882 21.404C97.6602 21.556 97.9482 21.632 98.2522 21.632C98.5642 21.632 98.8522 21.552 99.1162 21.392C99.3882 21.232 99.6042 21.004 99.7642 20.708C99.9322 20.412 100.016 20.06 100.016 19.652ZM104.909 17.732V20.948C104.909 21.172 104.961 21.336 105.065 21.44C105.177 21.536 105.361 21.584 105.617 21.584H106.397V23H105.341C103.925 23 103.217 22.312 103.217 20.936V17.732H102.425V16.352H103.217V14.708H104.909V16.352H106.397V17.732H104.909ZM113.785 19.532C113.785 19.772 113.769 19.988 113.737 20.18H108.877C108.917 20.66 109.085 21.036 109.381 21.308C109.677 21.58 110.041 21.716 110.473 21.716C111.097 21.716 111.541 21.448 111.805 20.912H113.617C113.425 21.552 113.057 22.08 112.513 22.496C111.969 22.904 111.301 23.108 110.509 23.108C109.869 23.108 109.293 22.968 108.781 22.688C108.277 22.4 107.881 21.996 107.593 21.476C107.313 20.956 107.173 20.356 107.173 19.676C107.173 18.988 107.313 18.384 107.593 17.864C107.873 17.344 108.265 16.944 108.769 16.664C109.273 16.384 109.853 16.244 110.509 16.244C111.141 16.244 111.705 16.38 112.201 16.652C112.705 16.924 113.093 17.312 113.365 17.816C113.645 18.312 113.785 18.884 113.785 19.532ZM112.045 19.052C112.037 18.62 111.881 18.276 111.577 18.02C111.273 17.756 110.901 17.624 110.461 17.624C110.045 17.624 109.693 17.752 109.405 18.008C109.125 18.256 108.953 18.604 108.889 19.052H112.045ZM116.692 17.384C116.908 17.032 117.188 16.756 117.532 16.556C117.884 16.356 118.284 16.256 118.732 16.256V18.02H118.288C117.76 18.02 117.36 18.144 117.088 18.392C116.824 18.64 116.692 19.072 116.692 19.688V23H115.012V16.352H116.692V17.384Z" fill="#A42E70"/>
</g>
<defs>
<filter id="filter0_d_501_14261" x="0" y="0" width="139" height="38" filterUnits="userSpaceOnUse" color-interpolation-filters="sRGB">
<feFlood flood-opacity="0" result="BackgroundImageFix"/>
<feColorMatrix in="SourceAlpha" type="matrix" values="0 0 0 0 0 0 0 0 0 0 0 0 0 0 0 0 0 0 127 0" result="hardAlpha"/>
<feOffset/>
<feGaussianBlur stdDeviation="2"/>
<feComposite in2="hardAlpha" operator="out"/>
<feColorMatrix type="matrix" values="0 0 0 0 0 0 0 0 0 0 0 0 0 0 0 0 0 0 0.02 0"/>
<feBlend mode="normal" in2="BackgroundImageFix" result="effect1_dropShadow_501_14261"/>
<feBlend mode="normal" in="SourceGraphic" in2="effect1_dropShadow_501_14261" result="shape"/>
</filter>
</defs>
</svg>
