<svg width="113" height="22" viewBox="0 0 113 22" fill="none" xmlns="http://www.w3.org/2000/svg">
<path d="M4.25997 21.7305C3.51946 21.7547 2.78531 21.5892 2.13001 21.2501C1.65865 20.9881 1.24474 20.6374 0.912106 20.218C0.579468 19.7986 0.334655 19.3189 0.191746 18.8064C0.0257813 18.2982 -0.0333619 17.7622 0.0178912 17.2309C0.0691444 16.6996 0.22973 16.184 0.48994 15.7153L7.8596 2.09755C8.40968 1.16987 9.30274 0.485353 10.3536 0.18593C11.4045 -0.113494 12.5326 -0.00485451 13.504 0.489322C14.0039 0.736143 14.4494 1.07716 14.8148 1.49287C15.1803 1.90859 15.4587 2.39086 15.634 2.91211C15.7948 3.42555 15.8494 3.96533 15.7946 4.49975C15.7397 5.03417 15.5765 5.55245 15.3145 6.02414L7.8596 19.5583C7.60789 20.0486 7.26013 20.4854 6.83618 20.8437C6.41224 21.2021 5.92042 21.4751 5.38885 21.647C5.01802 21.7239 4.63838 21.752 4.25997 21.7305ZM11.5444 2.24376C11.1994 2.24173 10.8604 2.33208 10.5638 2.50507C10.2673 2.67805 10.0246 2.92711 9.86176 3.2254L2.5134 16.7178C2.39732 16.9318 2.32535 17.166 2.3016 17.4072C2.27785 17.6485 2.30278 17.8919 2.37497 18.1237C2.44716 18.3554 2.5652 18.571 2.72234 18.758C2.87949 18.945 3.07266 19.0999 3.29084 19.2137C3.73146 19.4436 4.24716 19.4924 4.7245 19.3495C4.96085 19.2787 5.18067 19.1629 5.37141 19.0088C5.56214 18.8547 5.72006 18.6653 5.83614 18.4514L13.2058 4.97984C13.3214 4.763 13.3922 4.52592 13.4141 4.2822C13.436 4.03848 13.4087 3.79291 13.3336 3.55958C13.2635 3.32735 13.1462 3.11142 12.9888 2.92478C12.8314 2.73814 12.6372 2.58464 12.4177 2.4735C12.1504 2.32739 11.8504 2.24846 11.5444 2.24376Z" fill="url(#paint0_linear_17_149)"/>
<g opacity="0.19">
<path d="M11.4591 0.25924C11.1963 0.178821 10.9245 0.129733 10.6497 0.113037C10.0654 0.224683 9.51296 0.460085 9.03103 0.802798C8.54909 1.14551 8.14927 1.58727 7.85949 2.09722L6.21942 5.20925C6.29168 5.51553 6.40635 5.81067 6.56021 6.08647L7.4335 7.6947L8.73277 5.31368L8.51978 5.04216C8.40061 4.8286 8.3259 4.59394 8.29998 4.35183C8.27406 4.10972 8.29744 3.86497 8.36878 3.63179C8.44012 3.39861 8.55799 3.18166 8.71554 2.99352C8.87309 2.80538 9.06719 2.6498 9.28656 2.53583C9.55545 2.39616 9.85558 2.32438 10.1598 2.32697C10.3503 2.29656 10.5445 2.29656 10.7349 2.32697C10.9685 2.21986 11.2226 2.16289 11.4804 2.15988C11.7864 2.16458 12.0864 2.24351 12.3537 2.38962C12.5732 2.50076 12.7674 2.65426 12.9248 2.8409C13.0822 3.02755 13.1995 3.24347 13.2696 3.4757C13.3447 3.70903 13.372 3.9546 13.3501 4.19832C13.3281 4.44204 13.2574 4.67912 13.1418 4.89596L12.9501 5.23014L14.2494 7.61115L15.144 5.94026C15.3046 5.7186 15.4403 5.4805 15.5486 5.23014L13.9299 2.24342C13.3998 1.29288 12.5139 0.581436 11.4591 0.25924Z" fill="#000064"/>
<path d="M10.8628 14.0233L12.1621 11.6422L10.8628 9.26123L9.58484 11.6422L10.8628 14.0233Z" fill="#000064"/>
</g>
<path d="M18.9355 21.7301C18.5162 21.7306 18.0995 21.6672 17.7001 21.5421C17.1685 21.3702 16.6767 21.0973 16.2527 20.7389C15.8288 20.3806 15.481 19.9438 15.2293 19.4535L7.88097 6.02375C7.61896 5.55206 7.45573 5.03378 7.40086 4.49936C7.346 3.96494 7.4006 3.42516 7.56147 2.91172C7.89005 1.87738 8.61557 1.00867 9.58493 0.488932C10.0686 0.227995 10.6018 0.067385 11.1514 0.0170823C11.701 -0.0332204 12.2553 0.0278595 12.7799 0.196526C13.8196 0.489369 14.6997 1.17227 15.2293 2.09716L22.599 15.6314C22.9311 16.2594 23.0952 16.9598 23.0757 17.667C23.0563 18.3742 22.854 19.065 22.4878 19.6746C22.1217 20.2842 21.6036 20.7925 20.9823 21.1521C20.3609 21.5116 19.6566 21.7105 18.9355 21.7301ZM11.5445 2.24337C11.2313 2.24458 10.9235 2.32363 10.6499 2.47311C10.4305 2.58425 10.2362 2.73775 10.0788 2.92439C9.92142 3.11103 9.80414 3.32696 9.73403 3.55919C9.65835 3.7889 9.63066 4.0312 9.65261 4.27164C9.67457 4.51207 9.74573 4.7457 9.86183 4.95856L17.2528 18.5136C17.3731 18.7276 17.5351 18.9162 17.7297 19.0687C17.9244 19.2212 18.1477 19.3347 18.387 19.4026C18.6263 19.4704 18.8769 19.4914 19.1245 19.4643C19.3721 19.4373 19.6119 19.3626 19.83 19.2447C20.0482 19.1267 20.2406 18.9678 20.3961 18.777C20.5516 18.5861 20.6673 18.3671 20.7365 18.1325C20.8058 17.8978 20.8272 17.652 20.7996 17.4092C20.7719 17.1665 20.6958 16.9314 20.5755 16.7174L13.2272 3.22501C13.1095 3.00914 12.949 2.8185 12.7551 2.66428C12.5613 2.51005 12.338 2.39535 12.0983 2.32691C11.9198 2.26852 11.7326 2.24027 11.5445 2.24337Z" fill="url(#paint1_linear_17_149)"/>
<path d="M40.0006 15.3181V20.477C40.0065 20.6513 39.9759 20.825 39.9106 20.9873C39.8452 21.1496 39.7466 21.297 39.6208 21.4204C39.495 21.5437 39.3447 21.6404 39.1792 21.7045C39.0137 21.7686 38.8365 21.7986 38.6587 21.7928C38.3209 21.7585 38.0066 21.6071 37.7723 21.366C37.5381 21.1248 37.3992 20.8096 37.3808 20.477C36.2628 21.3802 34.8451 21.8485 33.3977 21.7928C32.5146 21.818 31.6354 21.6691 30.812 21.355C29.9887 21.0409 29.238 20.5679 28.6044 19.9642C27.9708 19.3604 27.4672 18.6381 27.1235 17.8401C26.7797 17.042 26.6028 16.1844 26.6032 15.3181C26.5975 14.4406 26.7693 13.5708 27.1085 12.7587C27.4477 11.9467 27.9476 11.2087 28.5794 10.5872C29.2112 9.96575 29.9623 9.47322 30.7893 9.13807C31.6163 8.80291 32.5029 8.63178 33.3977 8.63455C34.2831 8.6341 35.1594 8.80824 35.9747 9.1466C36.79 9.48497 37.5276 9.98066 38.1436 10.6042C38.7596 11.2277 39.2415 11.9663 39.5605 12.7762C39.8795 13.586 40.0292 14.4504 40.0006 15.3181ZM37.3808 15.3181C37.4065 14.7856 37.3231 14.2534 37.1355 13.753C36.948 13.2527 36.66 12.7942 36.2887 12.4048C35.9174 12.0154 35.4703 11.7029 34.9737 11.4858C34.4772 11.2687 33.9413 11.1515 33.3977 11.1409C32.2679 11.1409 31.1844 11.581 30.3855 12.3644C29.5866 13.1477 29.1378 14.2102 29.1378 15.3181C29.1485 15.8502 29.2682 16.3748 29.4898 16.8606C29.7115 17.3464 30.0305 17.7836 30.4279 18.146C30.8254 18.5085 31.2931 18.7888 31.8033 18.9704C32.3135 19.152 32.8557 19.231 33.3977 19.2029C33.9221 19.2142 34.4435 19.1216 34.9306 18.9307C35.4176 18.7397 35.8603 18.4543 36.2322 18.0916C36.6041 17.7289 36.8976 17.2963 37.0949 16.8197C37.2923 16.3431 37.3895 15.8324 37.3808 15.3181Z" fill="black"/>
<path d="M51.119 9.90874C51.119 10.2577 50.9776 10.5924 50.7259 10.8392C50.4743 11.0859 50.133 11.2246 49.7771 11.2246C48.6925 11.2246 47.6523 11.6471 46.8854 12.3991C46.1184 13.1512 45.6876 14.1711 45.6876 15.2347V20.5189C45.7115 20.7042 45.695 20.8923 45.639 21.0709C45.5831 21.2494 45.489 21.4142 45.3631 21.5543C45.2371 21.6944 45.0822 21.8067 44.9087 21.8835C44.7351 21.9604 44.5468 22.0002 44.3563 22.0002C44.1659 22.0002 43.9776 21.9604 43.804 21.8835C43.6304 21.8067 43.4755 21.6944 43.3496 21.5543C43.2237 21.4142 43.1296 21.2494 43.0737 21.0709C43.0177 20.8923 43.0012 20.7042 43.0251 20.5189V15.2347C43.0223 14.3645 43.195 13.5023 43.5333 12.6977C43.8717 11.8932 44.3689 11.1622 44.9964 10.5469C45.624 9.93151 46.3694 9.44393 47.1899 9.11217C48.0103 8.78042 48.8896 8.61104 49.7771 8.6138C50.1293 8.61376 50.4674 8.74952 50.7185 8.99179C50.9695 9.23405 51.1134 9.5634 51.119 9.90874Z" fill="black"/>
<path d="M52.3117 15.1926C52.3117 13.8823 52.7082 12.6014 53.4511 11.5121C54.194 10.4229 55.2497 9.57426 56.4847 9.07376C57.7197 8.57326 59.0784 8.44337 60.3887 8.70054C61.6991 8.9577 62.9021 9.59036 63.8456 10.5184C64.789 11.4464 65.4304 12.6281 65.6885 13.9138C65.9466 15.1995 65.8098 16.5314 65.2955 17.7409C64.7812 18.9503 63.9125 19.9829 62.7993 20.7079C61.6862 21.4329 60.3787 21.8177 59.0424 21.8135C58.1567 21.8135 57.2797 21.6421 56.4617 21.3092C55.6437 20.9762 54.9008 20.4881 54.2755 19.8731C53.6502 19.258 53.1549 18.5279 52.8179 17.7248C52.4809 16.9216 52.3089 16.0611 52.3117 15.1926ZM54.9741 15.1926C54.9699 15.9875 55.2067 16.7657 55.6545 17.4284C56.1022 18.091 56.7407 18.6083 57.4888 18.9144C58.2369 19.2205 59.0609 19.3016 59.8562 19.1476C60.6515 18.9935 61.3821 18.6112 61.9553 18.0491C62.5285 17.487 62.9185 16.7705 63.0756 15.9907C63.2327 15.2109 63.1499 14.4029 62.8377 13.6692C62.5256 12.9356 61.9981 12.3096 61.3223 11.8705C60.6466 11.4315 59.853 11.1993 59.0424 11.2034C57.9651 11.2089 56.9336 11.6309 56.1719 12.3779C55.4101 13.1248 54.9797 14.1363 54.9741 15.1926Z" fill="black"/>
<path d="M79.5543 9.90868V16.5296C79.4676 17.8872 78.8565 19.1613 77.8455 20.0927C76.8344 21.024 75.4994 21.5424 74.1122 21.5424C72.725 21.5424 71.39 21.024 70.3789 20.0927C69.3679 19.1613 68.7568 17.8872 68.6702 16.5296V9.90868C68.7112 9.59089 68.8691 9.29872 69.1142 9.08693C69.3593 8.87515 69.6747 8.7583 70.0014 8.7583C70.3281 8.7583 70.6435 8.87515 70.8886 9.08693C71.1337 9.29872 71.2915 9.59089 71.3326 9.90868V16.4878C71.2988 16.8658 71.3456 17.2465 71.47 17.6059C71.5943 17.9652 71.7935 18.2952 72.0549 18.575C72.3163 18.8547 72.6342 19.0781 72.9884 19.231C73.3425 19.3838 73.7253 19.4627 74.1122 19.4627C74.4992 19.4627 74.8819 19.3838 75.2361 19.231C75.5902 19.0781 75.9081 18.8547 76.1695 18.575C76.4309 18.2952 76.6301 17.9652 76.7545 17.6059C76.8788 17.2465 76.9256 16.8658 76.8918 16.4878V9.90868C76.9329 9.59089 77.0908 9.29872 77.3358 9.08693C77.5809 8.87515 77.8964 8.7583 78.223 8.7583C78.5497 8.7583 78.8651 8.87515 79.1102 9.08693C79.3553 9.29872 79.5132 9.59089 79.5543 9.90868Z" fill="black"/>
<path d="M95.8482 15.1927V20.4978C95.8722 20.683 95.8556 20.8712 95.7997 21.0497C95.7437 21.2282 95.6496 21.393 95.5237 21.5332C95.3978 21.6733 95.2429 21.7855 95.0693 21.8624C94.8957 21.9393 94.7074 21.979 94.517 21.979C94.3265 21.979 94.1382 21.9393 93.9647 21.8624C93.7911 21.7855 93.6362 21.6733 93.5102 21.5332C93.3843 21.393 93.2903 21.2282 93.2343 21.0497C93.1784 20.8712 93.1618 20.683 93.1858 20.4978V15.1927C93.1858 14.1291 92.7549 13.1091 91.988 12.3571C91.221 11.605 90.1809 11.1825 89.0962 11.1825C88.0116 11.1825 86.9714 11.605 86.2045 12.3571C85.4376 13.1091 85.0067 14.1291 85.0067 15.1927V20.4978C85.0307 20.683 85.0141 20.8712 84.9582 21.0497C84.9022 21.2282 84.8082 21.393 84.6822 21.5332C84.5563 21.6733 84.4014 21.7855 84.2278 21.8624C84.0542 21.9393 83.866 21.979 83.6755 21.979C83.485 21.979 83.2968 21.9393 83.1232 21.8624C82.9496 21.7855 82.7947 21.6733 82.6688 21.5332C82.5428 21.393 82.4488 21.2282 82.3928 21.0497C82.3369 20.8712 82.3203 20.683 82.3443 20.4978V15.1927C82.3443 13.4367 83.0556 11.7527 84.3219 10.511C85.5881 9.26933 87.3055 8.57178 89.0962 8.57178C90.887 8.57178 92.6044 9.26933 93.8706 10.511C95.1368 11.7527 95.8482 13.4367 95.8482 15.1927Z" fill="black"/>
<path d="M109.693 9.88746V3.30834C109.734 2.99055 109.892 2.69838 110.137 2.48659C110.382 2.27481 110.697 2.15796 111.024 2.15796C111.351 2.15796 111.666 2.27481 111.911 2.48659C112.156 2.69838 112.314 2.99055 112.355 3.30834V15.1299C112.355 16.4394 111.959 17.7194 111.217 18.8082C110.476 19.897 109.421 20.7457 108.187 21.2468C106.954 21.7479 105.596 21.879 104.286 21.6236C102.976 21.3681 101.773 20.7375 100.829 19.8116C99.8848 18.8856 99.2417 17.7059 98.9812 16.4215C98.7207 15.1372 98.8544 13.806 99.3654 12.5962C99.8765 11.3864 100.742 10.3523 101.852 9.6248C102.963 8.89729 104.268 8.50898 105.603 8.50898C107.085 8.51014 108.524 8.99516 109.693 9.88746ZM109.693 15.1508C109.689 14.3585 109.445 13.5853 108.993 12.9286C108.541 12.2719 107.901 11.7611 107.154 11.4608C106.406 11.1605 105.584 11.084 104.793 11.2411C104.001 11.3982 103.274 11.7818 102.704 12.3434C102.134 12.9051 101.747 13.6196 101.591 14.397C101.435 15.1743 101.517 15.9795 101.827 16.711C102.137 17.4426 102.662 18.0677 103.334 18.5074C104.006 18.9471 104.795 19.1818 105.603 19.1818C106.144 19.1818 106.679 19.0767 107.178 18.8726C107.677 18.6684 108.13 18.3693 108.51 17.9925C108.891 17.6157 109.191 17.1687 109.394 16.6773C109.597 16.186 109.699 15.66 109.693 15.1299V15.1508Z" fill="black"/>
<defs>
<linearGradient id="paint0_linear_17_149" x1="1.32062" y1="20.9577" x2="14.1187" y2="0.366847" gradientUnits="userSpaceOnUse">
<stop stop-color="#02D1FE"/>
<stop offset="0.08" stop-color="#03C2FE"/>
<stop offset="0.52" stop-color="#096FFF"/>
<stop offset="0.83" stop-color="#0D3AFF"/>
<stop offset="0.98" stop-color="#0E26FF"/>
</linearGradient>
<linearGradient id="paint1_linear_17_149" x1="5.36762" y1="2.28514" x2="27.4711" y2="22.2647" gradientUnits="userSpaceOnUse">
<stop offset="0.06" stop-color="#F8882F"/>
<stop offset="0.17" stop-color="#F87D40"/>
<stop offset="0.38" stop-color="#FA616B"/>
<stop offset="0.68" stop-color="#FC34B1"/>
<stop offset="0.98" stop-color="#FE03FC"/>
</linearGradient>
</defs>
</svg>
