<svg xmlns="http://www.w3.org/2000/svg" width="14" height="8" viewBox="0 0 14 8" fill="none">
    <path d="M7.43614 7.81106L13.8336 1.02225C13.9404 0.908975 14 0.758482 14 0.601984C14 0.445486 13.9404 0.294993 13.8336 0.181719L13.8264 0.174409C13.7746 0.119306 13.7123 0.075428 13.6432 0.0454445C13.5741 0.015461 13.4998 -9.09942e-07 13.4246 -9.03371e-07C13.3494 -8.96799e-07 13.275 0.015461 13.206 0.0454446C13.1369 0.0754281 13.0746 0.119306 13.0228 0.174409L6.9988 6.56732L0.977208 0.174411C0.925434 0.119307 0.863115 0.0754292 0.79404 0.0454456C0.724965 0.0154621 0.65058 2.13369e-07 0.575408 2.19941e-07C0.500237 2.26512e-07 0.425852 0.0154622 0.356777 0.0454457C0.287702 0.0754292 0.225382 0.119307 0.173608 0.174411L0.166378 0.18172C0.0595792 0.294995 2.93238e-07 0.445487 3.06919e-07 0.601985C3.20601e-07 0.758483 0.0595792 0.908976 0.166378 1.02225L6.56386 7.81106C6.62012 7.87077 6.68779 7.9183 6.76276 7.95078C6.83773 7.98325 6.91844 8 7 8C7.08156 8 7.16227 7.98325 7.23724 7.95078C7.31221 7.9183 7.37988 7.87077 7.43614 7.81106Z"
          fill="black"/>
</svg>