<svg width="22" height="22" viewBox="0 0 14 17" fill="none" xmlns="http://www.w3.org/2000/svg">
<path d="M13.353 7.35431L13.3518 7.35554C13.3054 7.40213 13.2502 7.43909 13.1895 7.46431C13.1287 7.48953 13.0636 7.50251 12.9978 7.50251C12.9321 7.50251 12.867 7.48953 12.8062 7.46431C12.7455 7.43909 12.6903 7.40212 12.6439 7.35554L12.6433 7.35493L8.35373 3.06538L7.50017 2.21182V3.41893V15.6653C7.50017 15.7978 7.44753 15.9249 7.35381 16.0186C7.2601 16.1123 7.133 16.165 7.00047 16.165C6.86794 16.165 6.74084 16.1123 6.64713 16.0186C6.55342 15.9249 6.50077 15.7978 6.50077 15.6653V3.41893V2.21216L5.64729 3.06531L1.35607 7.35486L1.356 7.35493C1.26197 7.44896 1.13442 7.50179 1.00143 7.50179C0.868446 7.50179 0.740904 7.44896 0.646867 7.35493C0.55283 7.26089 0.5 7.13335 0.5 7.00036C0.5 6.86737 0.55283 6.73983 0.646867 6.64579L0.302287 6.30121L0.646867 6.64579L6.64507 0.647588L6.64568 0.646973C6.69211 0.600388 6.74727 0.563424 6.80801 0.538204C6.86875 0.512983 6.93387 0.5 6.99964 0.5C7.06541 0.5 7.13053 0.512983 7.19127 0.538204C7.25201 0.563424 7.30717 0.600388 7.35359 0.646974L7.35421 0.647587L13.3524 6.64579L13.353 6.6464C13.3996 6.69283 13.4366 6.74799 13.4618 6.80873C13.487 6.86947 13.5 6.9346 13.5 7.00036C13.5 7.06612 13.487 7.13124 13.4618 7.19199C13.4366 7.25272 13.3996 7.30789 13.353 7.35431Z" fill="#020202" stroke="#020202"/>
</svg>
