<svg width="14" height="8" viewBox="0 0 14 8" fill="none" xmlns="http://www.w3.org/2000/svg">
<path d="M0.308162 0.305918C0.505538 0.110038 0.7732 -8.86079e-07 1.05229 -8.6168e-07C1.33138 -8.37282e-07 1.59904 0.110038 1.79642 0.305918L7.00635 5.47795L12.2163 0.305919C12.4148 0.115591 12.6807 0.0102755 12.9566 0.0126559C13.2326 0.0150368 13.4966 0.124923 13.6917 0.318647C13.8869 0.512371 13.9976 0.774434 14 1.04839C14.0024 1.32235 13.8963 1.58628 13.7045 1.78334L7.75048 7.69408C7.55311 7.88996 7.28544 8 7.00635 8C6.72727 8 6.4596 7.88996 6.26223 7.69408L0.308162 1.78334C0.110846 1.5874 5.83837e-07 1.32169 6.08058e-07 1.04463C6.32279e-07 0.767572 0.110847 0.501857 0.308162 0.305918Z" fill="white"/>
</svg>
