<svg class="logo" width="157" height="30" viewBox="0 0 157 30" fill="none" xmlns="http://www.w3.org/2000/svg">
    <path d="M116.3 0.254038C113.631 0.698765 109.863 2.80536 108.085 4.84173C104.902 8.46976 103.544 13.2915 104.433 17.7856C105.861 24.9012 111.993 29.957 119.178 29.957C124.889 29.9336 130.062 26.7269 132.543 21.6477C133.666 19.3538 134.087 17.5749 134.087 14.9768C134.064 10.7636 132.683 7.48668 129.64 4.42042C126.13 0.909424 121.378 -0.5886 116.3 0.254038ZM121.496 5.26305C123.368 5.75459 124.562 6.40998 125.942 7.67393C128.072 9.6869 129.149 12.0978 129.149 14.9534C129.149 20.4071 125.193 24.6437 119.74 24.9948C113.421 25.3927 108.365 19.8688 109.255 13.549C110.074 7.76756 115.925 3.81184 121.496 5.26305Z" fill="#0C5C9E"/>
    <path d="M142.816 0.325567C139.071 1.23843 136.661 3.977 136.263 7.74546C136.029 10.0393 136.544 11.5607 138.135 13.2694C139.89 15.142 141.412 16.008 145.859 17.5294C147.965 18.2784 149.978 19.0509 150.306 19.2849C151.85 20.268 152.272 22.2108 151.289 23.662C150.516 24.8089 149.276 25.3472 147.286 25.4643C145.367 25.5813 143.261 24.9727 141.646 23.8492C141.107 23.4747 140.569 23.1704 140.452 23.1704C140.335 23.1704 139.539 23.896 138.673 24.7621C136.871 26.5878 136.848 26.4942 139.235 27.8283C141.599 29.1391 143.752 29.7711 146.491 29.8881C149.861 30.0754 151.944 29.537 154.003 28.0156C155.642 26.7984 157.023 23.7322 156.999 21.2979C156.952 17.4124 153.231 14.1355 146.701 12.2863C144.056 11.5139 143.307 11.1862 142.324 10.2266C141.061 9.03283 141.014 7.46458 142.161 6.0836C143.893 4.04722 147.942 4.00041 150.867 6.01337L152.108 6.85601L153.886 5.10052L155.642 3.34502L154.378 2.52579C151.101 0.372381 146.35 -0.540476 142.816 0.325567Z" fill="#0C5C9E"/>
    <path d="M12.7326 0.887352C12.4986 1.28526 0.14084 28.671 0.0238164 29.0689C-0.0932076 29.4434 0.14084 29.4902 2.57494 29.4902H5.26649L6.34311 27.0794L7.41973 24.6919L13.388 24.6217C16.688 24.5983 19.3796 24.528 19.3796 24.4812C19.3796 24.4344 18.9115 23.3577 18.3498 22.0937L17.32 19.7765L13.5284 19.7063C10.0879 19.6595 9.76021 19.6126 9.90064 19.2615C10.6028 17.4124 15.5178 6.83263 15.6114 6.92626C15.6816 6.99648 18.0221 12.0757 20.7839 18.2082L25.8159 29.3732L28.5777 29.4434C31.1522 29.4902 31.316 29.4668 31.1288 29.0923C31.0118 28.8583 28.0862 22.3746 24.6223 14.6738L18.3498 0.7001H15.588C14.0901 0.7001 12.8028 0.793726 12.7326 0.887352Z" fill="#0C5C9E"/>
    <path d="M66.6582 3.15754V5.61523H69.1157H71.5732V3.15754V0.699846H69.1157H66.6582V3.15754Z" fill="#0C5C9E"/>
    <path d="M93.737 4.14259L91.4434 4.75116L91.537 14.3713C91.5838 21.5571 91.7008 24.2021 91.9349 24.8574C92.4264 26.2618 93.8306 27.8769 95.2115 28.6493C96.452 29.3515 96.6158 29.3749 99.7287 29.4451C102.795 29.5388 102.982 29.5154 102.841 29.094C102.771 28.86 102.49 27.7599 102.21 26.6129L101.718 24.5766H99.7287C97.9499 24.5766 97.7158 24.5298 97.2009 23.9914C96.6392 23.453 96.6158 23.336 96.6158 19.8952V16.3842H98.6052C100.033 16.3842 100.595 16.314 100.595 16.08C100.595 15.9395 100.337 14.8394 100.056 13.6925L99.518 11.5859L98.0669 11.5157L96.6158 11.4455V7.48974C96.6158 4.44688 96.5456 3.51061 96.335 3.53402C96.1711 3.53402 95.0009 3.8149 93.737 4.14259Z" fill="#0C5C9E"/>
    <path d="M35.5055 8.72894C32.6267 9.80564 31.082 11.9356 31.082 14.8381C31.082 17.9043 33.2821 20.0343 38.1503 21.626C40.5844 22.4218 41.3567 22.8431 41.5206 23.4985C42.0823 25.7924 37.7056 26.1903 35.3651 24.0603C34.8502 23.5921 34.8502 23.5921 34.1949 24.0603C33.8438 24.3177 33.0246 25.0668 32.4161 25.6987L31.2927 26.8457L32.1821 27.5479C34.3353 29.2565 36.98 30.0524 39.9759 29.9119C41.6142 29.8417 42.1759 29.7013 43.2291 29.1395C45.4058 27.9458 46.5292 26.0264 46.5292 23.4517C46.5292 20.4791 44.1419 18.2086 39.3673 16.6638C36.7694 15.8211 36.3013 15.5871 36.1141 14.9785C35.88 14.2061 36.2311 13.5507 37.0737 13.1996C38.6418 12.5442 40.3035 12.8719 41.8014 14.1593L42.5972 14.8147L44.2589 13.1528L45.9207 11.4909L45.2653 10.7887C44.9143 10.4142 43.861 9.75883 42.9483 9.33751C41.427 8.63531 41.0291 8.54169 38.8056 8.49487C37.1673 8.44806 36.0673 8.51828 35.5055 8.72894Z" fill="#0C5C9E"/>
    <path d="M53.0583 8.72837C50.1795 9.80508 48.6348 11.9819 48.6348 14.9545C48.6582 17.9272 50.905 20.0338 55.7966 21.6254C58.1605 22.4212 59.1669 23.0064 59.1669 23.6618C59.1669 25.862 55.1647 26.1195 52.8944 24.0363L52.3561 23.5448L50.671 25.23L48.9858 26.9387L49.688 27.5239C50.0859 27.8516 51.0221 28.4133 51.7944 28.7644C55.8434 30.7072 60.5478 30.2391 62.6542 27.6877C63.9883 26.0727 64.5032 23.2171 63.7543 21.4148C62.9351 19.472 59.9861 17.5293 56.1711 16.4057C53.7604 15.6801 52.9412 14.6737 53.9477 13.6906C55.1881 12.4266 57.552 12.6373 59.3542 14.1587L60.1499 14.8141L61.8117 13.1522L63.4734 11.4904L62.8181 10.7882C62.467 10.4136 61.4138 9.75826 60.501 9.33694C58.9797 8.63475 58.5818 8.54112 56.3583 8.49431C54.72 8.44749 53.62 8.51771 53.0583 8.72837Z" fill="#0C5C9E"/>
    <path d="M78.2658 8.79957C76.6509 9.31452 74.8253 11.187 74.3806 12.7553C73.1636 17.1089 75.387 19.8943 81.5659 21.7668C83.6489 22.3988 84.4447 22.984 84.4447 23.85C84.4447 25.2544 82.6659 25.8396 80.4191 25.1842C79.7403 24.9969 78.8978 24.5522 78.5935 24.2245C78.2892 23.8968 77.9382 23.6394 77.7743 23.6394C77.6339 23.6394 76.8147 24.365 75.9254 25.231L74.3572 26.8461L75.1062 27.478C77.6339 29.6081 81.9872 30.5209 85.1703 29.5846C87.5809 28.859 89.5938 26.1205 89.5938 23.5457C89.5938 20.5263 86.8554 18.0452 81.8468 16.5238C79.6701 15.8684 79.0616 15.4002 79.0616 14.4406C79.0616 13.6916 79.8574 13.1064 81.1212 12.9425C82.3383 12.7787 83.6021 13.2234 84.6788 14.1831L85.5213 14.9555L87.2767 13.2L89.0086 11.4445L88.1895 10.7189C87.7448 10.321 86.6916 9.68903 85.849 9.29111C84.5149 8.68254 84.0234 8.56551 81.8702 8.51869C80.1148 8.44847 79.085 8.5421 78.2658 8.79957Z" fill="#0C5C9E"/>
    <path d="M66.6582 19.1913V29.4902H69.1157H71.5732V19.1913V8.89242H69.1157H66.6582V19.1913Z" fill="#0C5C9E"/>
</svg>