<svg width="13" height="20" viewBox="0 0 18 29" fill="none" xmlns="http://www.w3.org/2000/svg">
    <path d="M0.815521 6.84861C0.805309 6.0383 0.956096 5.23403 1.25914 4.48245C1.56218 3.73087 2.01144 3.04694 2.58086 2.47034C3.15028 1.89374 3.82852 1.43594 4.57625 1.12351C5.32397 0.811071 6.12629 0.650217 6.93667 0.650275C7.74704 0.650332 8.54934 0.8113 9.29702 1.12384C10.0447 1.43638 10.7229 1.89427 11.2922 2.47095C11.8616 3.04763 12.3107 3.73163 12.6137 4.48325C12.9166 5.23487 13.0673 6.03917 13.0569 6.84948L13.0578 20.315C13.0618 20.7998 12.9698 21.2806 12.787 21.7296C12.6043 22.1787 12.3345 22.5871 11.9931 22.9314C11.6517 23.2757 11.2455 23.5489 10.798 23.7354C10.3505 23.9219 9.87047 24.018 9.38564 24.018C8.90082 24.0181 8.42078 23.9221 7.97322 23.7357C7.52565 23.5494 7.11942 23.2762 6.77796 22.932C6.43649 22.5878 6.16655 22.1795 5.9837 21.7304C5.80085 21.2814 5.70872 20.8006 5.71261 20.3158L5.71261 6.84948H8.16072L8.16072 20.3158C8.1579 20.4784 8.18747 20.6398 8.24772 20.7908C8.30796 20.9418 8.39767 21.0793 8.51162 21.1952C8.62556 21.3112 8.76146 21.4032 8.91137 21.4661C9.06128 21.529 9.22222 21.5613 9.38478 21.5613C9.54734 21.5613 9.70827 21.529 9.85818 21.4661C10.0081 21.4032 10.144 21.3112 10.2579 21.1952C10.3719 21.0793 10.4616 20.9418 10.5218 20.7908C10.5821 20.6398 10.6117 20.4784 10.6088 20.3158L10.6097 6.84861C10.6097 6.36626 10.5147 5.88864 10.3301 5.443C10.1455 4.99737 9.87496 4.59246 9.53389 4.25139C9.19282 3.91031 8.78791 3.63976 8.34227 3.45517C7.89664 3.27059 7.41901 3.17558 6.93666 3.17558C6.45432 3.17558 5.97669 3.27059 5.53106 3.45517C5.08542 3.63976 4.68051 3.91032 4.33944 4.25139C3.99837 4.59246 3.72781 4.99737 3.54322 5.443C3.35864 5.88864 3.26363 6.36626 3.26363 6.84861L3.2645 20.3158C3.29239 21.9206 3.94947 23.4502 5.09421 24.5752C6.23895 25.7003 7.77975 26.3306 9.38478 26.3306C10.9898 26.3306 12.5306 25.7003 13.6753 24.5752C14.8201 23.4502 15.4772 21.9206 15.5051 20.3158L15.5059 5.62456L17.9549 5.62542V20.3158C17.9549 22.5888 17.052 24.7686 15.4448 26.3758C13.8376 27.983 11.6577 28.8859 9.38477 28.8859C7.11184 28.8859 4.93199 27.983 3.32479 26.3758C1.71758 24.7686 0.814656 22.5888 0.814656 20.3158L0.815521 6.84861Z" fill="#646464"/>
</svg>