<svg width="22" height="20" viewBox="0 0 22 20" fill="none" xmlns="http://www.w3.org/2000/svg">
<path d="M14.25 5.6669C14.9227 6.17145 15.4687 6.82569 15.8448 7.57783C16.2209 8.32996 16.4167 9.15932 16.4167 10.0002C16.4167 10.8411 16.2209 11.6705 15.8448 12.4226C15.4687 13.1748 14.9227 13.829 14.25 14.3336M17.175 2.4169C18.306 3.33086 19.2182 4.4862 19.8448 5.79833C20.4715 7.11046 20.7967 8.54614 20.7967 10.0002C20.7967 11.4543 20.4715 12.89 19.8448 14.2021C19.2182 15.5143 18.306 16.6696 17.175 17.5836M4.5 13.2502H2.33333C2.04602 13.2502 1.77047 13.1361 1.5673 12.9329C1.36414 12.7298 1.25 12.4542 1.25 12.1669V7.83357C1.25 7.54625 1.36414 7.2707 1.5673 7.06754C1.77047 6.86437 2.04602 6.75023 2.33333 6.75023H4.5L8.29167 1.87523C8.38635 1.69132 8.5437 1.54733 8.73528 1.4693C8.92686 1.39127 9.14003 1.38433 9.33627 1.44975C9.53252 1.51516 9.69889 1.64861 9.80534 1.82599C9.91178 2.00336 9.95127 2.21296 9.91667 2.4169V17.5836C9.95127 17.7875 9.91178 17.9971 9.80534 18.1745C9.69889 18.3519 9.53252 18.4853 9.33627 18.5507C9.14003 18.6161 8.92686 18.6092 8.73528 18.5312C8.5437 18.4531 8.38635 18.3092 8.29167 18.1252L4.5 13.2502Z" stroke="black" stroke-width="2" stroke-linecap="round" stroke-linejoin="round"/>
</svg>
