<svg height="24px" viewBox="0 0 20 25" fill="none" xmlns="http://www.w3.org/2000/svg">
    <path d="M1.42857 18.5597C1.74286 18.2912 2.09286 18.0866 2.47857 17.9458C2.86238 17.8051 3.28143 17.7347 3.73571 17.7347H4.83571V1.38889H4.28571C3.50762 1.38889 2.83666 1.6625 2.27286 2.20972C1.71 2.75787 1.42857 3.41019 1.42857 4.16667V18.5597ZM6.26428 17.7347H18.5714V2.24444C18.5714 1.99444 18.489 1.78935 18.3243 1.62917C18.1595 1.46898 17.949 1.38889 17.6928 1.38889H6.26428V17.7347ZM3.73714 25C2.70381 25 1.82286 24.6454 1.09428 23.9361C0.364761 23.2287 0 22.3727 0 21.3681V4.16667C0 3.00185 0.414761 2.0162 1.24428 1.20972C2.07381 0.403241 3.08762 0 4.28571 0H17.6928C18.3309 0 18.8752 0.218518 19.3257 0.655555C19.7752 1.09259 20 1.62222 20 2.24444V18.5694C20 18.7194 19.9457 18.8519 19.8371 18.9667C19.7276 19.0815 19.5805 19.1694 19.3957 19.2306C18.8976 19.3565 18.489 19.6144 18.17 20.0042C17.8509 20.394 17.6919 20.8477 17.6928 21.3653C17.6928 21.8662 17.8476 22.313 18.1571 22.7056C18.4667 23.0981 18.8705 23.3639 19.3686 23.5028C19.5733 23.5704 19.73 23.6676 19.8386 23.7944C19.9471 23.9213 20.0009 24.062 20 24.2167V24.2958C20 24.494 19.9319 24.6606 19.7957 24.7958C19.6595 24.931 19.4895 24.9991 19.2857 25H3.73714ZM3.73714 23.6111H17.1128C16.8414 23.3056 16.6319 22.9667 16.4843 22.5944C16.3367 22.2241 16.2628 21.8148 16.2628 21.3667C16.2628 20.9435 16.3352 20.5407 16.48 20.1583C16.6248 19.7759 16.8357 19.431 17.1128 19.1236H3.73714C3.08095 19.1236 2.53238 19.344 2.09143 19.7847C1.65048 20.2255 1.42952 20.7532 1.42857 21.3681C1.42857 22.0051 1.64952 22.538 2.09143 22.9667C2.53333 23.3954 3.0819 23.6102 3.73714 23.6111Z" fill="#646464"/>
</svg>
