<svg width="16" height="12" viewBox="0 0 16 12" fill="none" xmlns="http://www.w3.org/2000/svg">
<path d="M0.800482 6.38962e-05H15.2009C15.3467 0.00052166 15.4896 0.0407333 15.6142 0.11637C15.7389 0.192007 15.8405 0.300204 15.9083 0.429318C15.976 0.558432 16.0072 0.703572 15.9986 0.849114C15.99 0.994658 15.9418 1.13509 15.8593 1.2553L8.65911 11.6556C8.3607 12.0868 7.64228 12.0868 7.34307 11.6556L0.142863 1.2553C0.0595205 1.13534 0.0106466 0.994837 0.00155118 0.849052C-0.00754424 0.703267 0.0234868 0.557777 0.0912727 0.428391C0.159059 0.299004 0.261007 0.190666 0.386041 0.115152C0.511075 0.0396376 0.654414 -0.000165939 0.800482 6.38962e-05Z" fill="#A42E70"/>
</svg>
