<svg width="16" height="12" viewBox="0 0 16 12" fill="none" xmlns="http://www.w3.org/2000/svg">
<path d="M0.800482 11.9789H15.2009C15.3467 11.9785 15.4896 11.9383 15.6142 11.8626C15.7389 11.787 15.8405 11.6788 15.9083 11.5497C15.976 11.4206 16.0072 11.2754 15.9986 11.1299C15.99 10.9843 15.9418 10.8439 15.8593 10.7237L8.65911 0.323409C8.3607 -0.107803 7.64228 -0.107803 7.34307 0.323409L0.142863 10.7237C0.0595205 10.8437 0.0106466 10.9842 0.00155118 11.13C-0.00754424 11.2757 0.0234868 11.4212 0.0912727 11.5506C0.159059 11.68 0.261007 11.7883 0.386041 11.8639C0.511075 11.9394 0.654414 11.9792 0.800482 11.9789Z" fill="#A42E70"/>
</svg>
