<svg fill="#646464" width="16px" height="16px" version="1.1" id="Capa_1"
     xmlns="http://www.w3.org/2000/svg" viewBox="0 0 24.352 24.352"
     xml:space="preserve">
<g>
	<g>
		<path d="M5.402,3.676c0.399,0,0.726-0.337,0.726-0.75V0.75C6.128,0.337,5.802,0,5.402,0S4.676,0.337,4.676,0.75v2.176
			C4.676,3.339,5.002,3.676,5.402,3.676z"/>
        <path d="M8.788,3.676c0.399,0,0.726-0.337,0.726-0.75V0.75C9.514,0.337,9.188,0,8.788,0c-0.4,0-0.726,0.337-0.726,0.75v2.176
			C8.063,3.339,8.389,3.676,8.788,3.676z"/>
        <path d="M12.176,3.676c0.399,0,0.726-0.337,0.726-0.75V0.75c0-0.413-0.326-0.75-0.726-0.75S11.45,0.337,11.45,0.75v2.176
			C11.45,3.339,11.777,3.676,12.176,3.676z"/>
        <path d="M15.564,3.676c0.398,0,0.725-0.337,0.725-0.75V0.75c0-0.413-0.325-0.75-0.725-0.75c-0.4,0-0.727,0.337-0.727,0.75v2.176
			C14.838,3.339,15.164,3.676,15.564,3.676z"/>
        <path d="M18.949,0c-0.398,0-0.726,0.337-0.726,0.75v2.176c0,0.413,0.326,0.75,0.726,0.75c0.4,0,0.727-0.337,0.727-0.75V0.75
			C19.676,0.337,19.35,0,18.949,0z"/>
        <path d="M5.402,20.676c-0.399,0-0.726,0.337-0.726,0.75v2.176c0,0.413,0.326,0.75,0.726,0.75s0.726-0.337,0.726-0.75v-2.176
			C6.127,21.013,5.801,20.676,5.402,20.676z"/>
        <path d="M8.788,20.676c-0.399,0-0.726,0.337-0.726,0.75v2.176c0,0.413,0.326,0.75,0.726,0.75c0.4,0,0.726-0.337,0.726-0.75v-2.176
			C9.514,21.013,9.188,20.676,8.788,20.676z"/>
        <path d="M12.176,20.676c-0.399,0-0.726,0.337-0.726,0.75v2.176c0,0.413,0.326,0.75,0.726,0.75s0.726-0.337,0.726-0.75v-2.176
			C12.902,21.013,12.575,20.676,12.176,20.676z"/>
        <path d="M15.564,20.676c-0.4,0-0.727,0.337-0.727,0.75v2.176c0,0.413,0.326,0.75,0.727,0.75c0.399,0,0.725-0.337,0.725-0.75
			v-2.176C16.289,21.013,15.963,20.676,15.564,20.676z"/>
        <path d="M18.949,20.676c-0.398,0-0.726,0.337-0.726,0.75v2.176c0,0.413,0.326,0.75,0.726,0.75c0.4,0,0.727-0.337,0.727-0.75
			v-2.176C19.676,21.013,19.35,20.676,18.949,20.676z"/>
        <path d="M2.926,18.225H0.75c-0.413,0-0.75,0.326-0.75,0.727c0,0.399,0.337,0.726,0.75,0.726h2.176c0.412,0,0.75-0.326,0.75-0.726
			C3.676,18.551,3.338,18.225,2.926,18.225z"/>
        <path d="M2.926,14.838H0.75c-0.413,0-0.75,0.326-0.75,0.727c0,0.399,0.337,0.726,0.75,0.726h2.176c0.412,0,0.75-0.326,0.75-0.726
			C3.676,15.164,3.338,14.838,2.926,14.838z"/>
        <path d="M2.926,11.45H0.75C0.337,11.45,0,11.776,0,12.176c0,0.4,0.337,0.727,0.75,0.727h2.176c0.412,0,0.75-0.326,0.75-0.727
			C3.676,11.776,3.338,11.45,2.926,11.45z"/>
        <path d="M2.926,8.063H0.75C0.337,8.063,0,8.389,0,8.789c0,0.4,0.337,0.726,0.75,0.726h2.176c0.412,0,0.75-0.326,0.75-0.726
			C3.676,8.389,3.338,8.063,2.926,8.063z"/>
        <path d="M2.926,4.676H0.75C0.337,4.676,0,5.002,0,5.402s0.337,0.726,0.75,0.726h2.176c0.412,0,0.75-0.326,0.75-0.726
			S3.338,4.676,2.926,4.676z"/>
        <path d="M23.602,18.225h-2.176c-0.412,0-0.75,0.326-0.75,0.727c0,0.399,0.338,0.726,0.75,0.726h2.176
			c0.413,0,0.75-0.326,0.75-0.726C24.352,18.551,24.015,18.225,23.602,18.225z"/>
        <path d="M23.602,14.838h-2.176c-0.412,0-0.75,0.326-0.75,0.727c0,0.399,0.338,0.726,0.75,0.726h2.176
			c0.413,0,0.75-0.326,0.75-0.726C24.352,15.164,24.015,14.838,23.602,14.838z"/>
        <path d="M23.602,11.45h-2.176c-0.412,0-0.75,0.326-0.75,0.726c0,0.4,0.338,0.727,0.75,0.727h2.176c0.413,0,0.75-0.326,0.75-0.727
			C24.352,11.776,24.015,11.45,23.602,11.45z"/>
        <path d="M23.602,8.063h-2.176c-0.412,0-0.75,0.326-0.75,0.726c0,0.4,0.338,0.726,0.75,0.726h2.176c0.413,0,0.75-0.326,0.75-0.726
			C24.352,8.389,24.015,8.063,23.602,8.063z"/>
        <path d="M21.426,6.127h2.176c0.413,0,0.75-0.326,0.75-0.726s-0.337-0.726-0.75-0.726h-2.176c-0.412,0-0.75,0.326-0.75,0.726
			S21.014,6.127,21.426,6.127z"/>
        <path d="M17.676,4.676h-11c-1.1,0-2,0.9-2,2v11c0,1.1,0.9,2,2,2h11c1.1,0,2-0.9,2-2v-11C19.676,5.576,18.775,4.676,17.676,4.676z
			 M16.176,14.176c0,1.1-0.9,2-2,2h-4c-1.1,0-2-0.9-2-2v-4c0-1.1,0.9-2,2-2h4c1.1,0,2,0.9,2,2V14.176z M18.676,18.676h-2.417
			l2.417-2.417V18.676z"/>
                </g>
            </g>
            </svg>