<svg width="16" height="16" viewBox="0 0 16 16" fill="none" xmlns="http://www.w3.org/2000/svg">
    <path d="M1.20685 6.48445C1.39438 6.29698 1.64868 6.19167 1.91385 6.19167C2.17901 6.19167 2.43332 6.29698 2.62085 6.48445L6.15685 10.0205L13.2268 2.94945C13.3197 2.85654 13.4299 2.78283 13.5513 2.73252C13.6726 2.68221 13.8026 2.6563 13.934 2.65625C14.0653 2.6562 14.1954 2.68203 14.3168 2.73225C14.4382 2.78247 14.5484 2.85611 14.6413 2.94895C14.7343 3.0418 14.808 3.15203 14.8583 3.27337C14.9086 3.3947 14.9345 3.52475 14.9346 3.6561C14.9346 3.78745 14.9088 3.91752 14.8586 4.03889C14.8083 4.16026 14.7347 4.27054 14.6418 4.36345L6.15685 12.8485L1.20685 7.89845C1.01938 7.71093 0.914062 7.45662 0.914062 7.19145C0.914063 6.92629 1.01938 6.67198 1.20685 6.48445Z" fill="#0088CC"/>
</svg>