<svg width="23" height="13" viewBox="0 0 23 13" fill="none" xmlns="http://www.w3.org/2000/svg">
    <path d="M12.2458 5.47775C12.7997 5.47775 13.3412 5.32834 13.8018 5.04842C14.2623 4.7685 14.6213 4.37064 14.8333 3.90516C15.0453 3.43967 15.1007 2.92746 14.9927 2.4333C14.8846 1.93914 14.6178 1.48522 14.2262 1.12895C13.8345 0.77268 13.3354 0.530057 12.7922 0.431763C12.2489 0.333468 11.6857 0.383916 11.174 0.576728C10.6622 0.76954 10.2248 1.09606 9.91706 1.51498C9.60932 1.93391 9.44506 2.42644 9.44506 2.93028C9.44506 3.60591 9.74013 4.25387 10.2654 4.73161C10.7906 5.20936 11.503 5.47775 12.2458 5.47775ZM12.2458 2.08113C12.4304 2.08113 12.6109 2.13093 12.7644 2.22423C12.918 2.31754 13.0376 2.45016 13.1083 2.60532C13.1789 2.76049 13.1974 2.93122 13.1614 3.09594C13.1254 3.26066 13.0365 3.41197 12.9059 3.53073C12.7753 3.64948 12.609 3.73036 12.4279 3.76312C12.2468 3.79589 12.0591 3.77907 11.8885 3.7148C11.7179 3.65053 11.5721 3.54169 11.4695 3.40205C11.3669 3.26241 11.3122 3.09823 11.3122 2.93028C11.3122 2.70507 11.4106 2.48909 11.5856 2.32984C11.7607 2.17059 11.9982 2.08113 12.2458 2.08113ZM16.9136 5.47775C16.508 5.47773 16.3478 5.00867 16.5248 4.64369C16.7852 4.10655 16.9218 3.52329 16.9218 2.93028C16.9218 2.33728 16.7852 1.75401 16.5248 1.21687C16.3478 0.851893 16.508 0.382835 16.9136 0.382813C17.6564 0.382813 18.3688 0.651207 18.894 1.12895C19.4192 1.60669 19.7143 2.25465 19.7143 2.93028C19.7143 3.60591 19.4192 4.25387 18.894 4.73161C18.3688 5.20936 17.6564 5.47775 16.9136 5.47775ZM12.2458 7.17606C6.64435 7.17606 6.64435 10.5727 6.64435 10.5727C6.64435 11.5106 7.40471 12.271 8.34267 12.271H16.1489C17.0868 12.271 17.8472 11.5106 17.8472 10.5727C17.8472 10.5727 17.8472 7.17606 12.2458 7.17606ZM8.51149 10.5727C8.51149 10.3264 8.81023 8.87437 12.2458 8.87437C15.5133 8.87437 15.924 10.1991 15.98 10.5727M22.515 10.5727V10.8706C22.515 11.644 21.8881 12.271 21.1147 12.271C20.3413 12.271 19.7143 11.644 19.7143 10.8706V10.5727C19.6925 9.94146 19.5327 9.32051 19.2441 8.74608C18.9753 8.21085 19.3815 7.42524 19.9452 7.62767C22.515 8.55052 22.515 10.5727 22.515 10.5727ZM7.57792 5.47775C7.57792 5.94673 7.19774 6.32691 6.72877 6.32691H6.05095C5.34749 6.32691 4.77722 6.89718 4.77722 7.60064V7.94081C4.77722 8.4564 4.35924 8.87437 3.84365 8.87437C3.32805 8.87437 2.91008 8.4564 2.91008 7.94081V7.60064C2.91008 6.89718 2.33981 6.32691 1.63635 6.32691H0.958531C0.489555 6.32691 0.109375 5.94673 0.109375 5.47775C0.109375 5.00877 0.489555 4.62859 0.958531 4.62859H1.63635C2.33981 4.62859 2.91008 4.05832 2.91008 3.35486V3.01469C2.91008 2.4991 3.32805 2.08113 3.84365 2.08113C4.35924 2.08113 4.77722 2.4991 4.77722 3.01469V3.35486C4.77722 4.05832 5.34749 4.62859 6.05095 4.62859H6.72877C7.19774 4.62859 7.57792 5.00877 7.57792 5.47775Z" fill="black"/>
</svg>
