<svg width="20" height="20" viewBox="0 0 17 17" fill="none" xmlns="http://www.w3.org/2000/svg">
    <path opacity="0.5" d="M2 6.66667C2 3.99554 2 2.65962 2.83017 1.83017C3.66033 1.00071 4.99554 1 7.66667 1H9.08333C11.7545 1 13.0904 1 13.9198 1.83017C14.7493 2.66033 14.75 3.99554 14.75 6.66667V9.5C14.75 12.1711 14.75 13.507 13.9198 14.3365C13.0897 15.166 11.7545 15.1667 9.08333 15.1667H7.66667C4.99554 15.1667 3.65962 15.1667 2.83017 14.3365C2.00071 13.5063 2 12.1711 2 9.5V6.66667Z" fill="#FFE599"/>
    <path fill-rule="evenodd" clip-rule="evenodd" d="M5.13281 8.49935C5.13281 8.35845 5.18878 8.22333 5.28841 8.1237C5.38804 8.02407 5.52317 7.9681 5.66406 7.9681H11.3307C11.4716 7.9681 11.6068 8.02407 11.7064 8.1237C11.806 8.22333 11.862 8.35845 11.862 8.49935C11.862 8.64025 11.806 8.77537 11.7064 8.875C11.6068 8.97463 11.4716 9.0306 11.3307 9.0306H5.66406C5.52317 9.0306 5.38804 8.97463 5.28841 8.875C5.18878 8.77537 5.13281 8.64025 5.13281 8.49935ZM5.13281 5.66602C5.13281 5.52512 5.18878 5.38999 5.28841 5.29037C5.38804 5.19074 5.52317 5.13477 5.66406 5.13477H11.3307C11.4716 5.13477 11.6068 5.19074 11.7064 5.29037C11.806 5.38999 11.862 5.52512 11.862 5.66602C11.862 5.80691 11.806 5.94204 11.7064 6.04167C11.6068 6.14129 11.4716 6.19727 11.3307 6.19727H5.66406C5.52317 6.19727 5.38804 6.14129 5.28841 6.04167C5.18878 5.94204 5.13281 5.80691 5.13281 5.66602ZM5.13281 11.3327C5.13281 11.1918 5.18878 11.0567 5.28841 10.957C5.38804 10.8574 5.52317 10.8014 5.66406 10.8014H9.20573C9.34663 10.8014 9.48175 10.8574 9.58138 10.957C9.68101 11.0567 9.73698 11.1918 9.73698 11.3327C9.73698 11.4736 9.68101 11.6087 9.58138 11.7083C9.48175 11.808 9.34663 11.8639 9.20573 11.8639H5.66406C5.52317 11.8639 5.38804 11.808 5.28841 11.7083C5.18878 11.6087 5.13281 11.4736 5.13281 11.3327Z" fill="#646464"/>
</svg>