<svg width="20" height="20" viewBox="0 0 22 22" fill="none" xmlns="http://www.w3.org/2000/svg">
    <path d="M5.28 5.43H5.43V5.28V1.32C5.43 1.0097 5.55327 0.712103 5.77269 0.492685C5.9921 0.273268 6.2897 0.15 6.6 0.15H20.68C20.9903 0.15 21.2879 0.273267 21.5073 0.492685C21.7267 0.712103 21.85 1.0097 21.85 1.32V15.4C21.85 15.7103 21.7267 16.0079 21.5073 16.2273C21.2879 16.4467 20.9903 16.57 20.68 16.57H16.72H16.57V16.72V20.68C16.57 20.9903 16.4467 21.2879 16.2273 21.5073C16.0079 21.7267 15.7103 21.85 15.4 21.85H1.32C1.0097 21.85 0.712103 21.7267 0.492685 21.5073C0.273267 21.2879 0.15 20.9903 0.15 20.68V6.6C0.15 6.2897 0.273268 5.9921 0.492685 5.77269C0.712103 5.55327 1.0097 5.43 1.32 5.43H5.28ZM14.08 19.51H14.23V19.36V7.92V7.77H14.08H2.64H2.49V7.92V19.36V19.51H2.64H14.08ZM19.36 14.23H19.51V14.08V2.64V2.49H19.36H7.92H7.77V2.64V5.28V5.43H7.92H15.4C15.7103 5.43 16.0079 5.55327 16.2273 5.77268C16.4467 5.9921 16.57 6.2897 16.57 6.6V14.08V14.23H16.72H19.36Z" fill="#646464" stroke="#646464" stroke-width="0.3"/>
</svg>
