<svg width="20" height="20" viewBox="0 0 20 20" fill="none" xmlns="http://www.w3.org/2000/svg">
<path d="M18.8 0H6C5.68174 0 5.37652 0.126428 5.15147 0.351472C4.92643 0.576516 4.8 0.88174 4.8 1.2V4.8H1.2C0.88174 4.8 0.576516 4.92643 0.351472 5.15147C0.126428 5.37652 0 5.68174 0 6V18.8C0 19.1183 0.126428 19.4235 0.351472 19.6485C0.576516 19.8736 0.88174 20 1.2 20H14C14.3183 20 14.6235 19.8736 14.8485 19.6485C15.0736 19.4235 15.2 19.1183 15.2 18.8V15.2H18.8C19.1183 15.2 19.4235 15.0736 19.6485 14.8485C19.8736 14.6235 20 14.3183 20 14V1.2C20 0.88174 19.8736 0.576516 19.6485 0.351472C19.4235 0.126428 19.1183 0 18.8 0ZM12.8 17.6H2.4V7.2H12.8V17.6ZM17.6 12.8H15.2V6C15.2 5.68174 15.0736 5.37652 14.8485 5.15147C14.6235 4.92643 14.3183 4.8 14 4.8H7.2V2.4H17.6V12.8Z" fill="#A42E70"/>
</svg>
