<svg width="20" height="20" viewBox="0 0 20 20" fill="none" xmlns="http://www.w3.org/2000/svg">
    <path d="M6.79375 13.2063L16.75 1M3.25 1L13.2063 13.2063M1 15.625C1 16.0682 1.0873 16.5071 1.25691 16.9166C1.42652 17.326 1.67512 17.6981 1.98851 18.0115C2.30191 18.3249 2.67397 18.5735 3.08344 18.7431C3.49292 18.9127 3.93179 19 4.375 19C4.81821 19 5.25708 18.9127 5.66656 18.7431C6.07603 18.5735 6.44809 18.3249 6.76149 18.0115C7.07488 17.6981 7.32348 17.326 7.49309 16.9166C7.6627 16.5071 7.75 16.0682 7.75 15.625C7.75 15.1818 7.6627 14.7429 7.49309 14.3334C7.32348 13.924 7.07488 13.5519 6.76149 13.2385C6.44809 12.9251 6.07603 12.6765 5.66656 12.5069C5.25708 12.3373 4.81821 12.25 4.375 12.25C3.93179 12.25 3.49292 12.3373 3.08344 12.5069C2.67397 12.6765 2.30191 12.9251 1.98851 13.2385C1.67512 13.5519 1.42652 13.924 1.25691 14.3334C1.0873 14.7429 1 15.1818 1 15.625ZM12.25 15.625C12.25 16.5201 12.6056 17.3786 13.2385 18.0115C13.8714 18.6444 14.7299 19 15.625 19C16.5201 19 17.3786 18.6444 18.0115 18.0115C18.6444 17.3786 19 16.5201 19 15.625C19 14.7299 18.6444 13.8714 18.0115 13.2385C17.3786 12.6056 16.5201 12.25 15.625 12.25C14.7299 12.25 13.8714 12.6056 13.2385 13.2385C12.6056 13.8714 12.25 14.7299 12.25 15.625Z" stroke="black" stroke-width="2" stroke-linecap="round" stroke-linejoin="round"/>
</svg>
