<svg width="17" height="20" viewBox="0 0 17 18" fill="none" xmlns="http://www.w3.org/2000/svg">
    <path d="M5.02457 1.28116C4.90022 1.09635 4.70755 0.968515 4.48894 0.925769C4.27033 0.883024 4.04369 0.928871 3.85889 1.05322C3.67408 1.17758 3.54625 1.37025 3.5035 1.58886C3.46076 1.80747 3.5066 2.03411 3.63096 2.21891L7.65482 8.19132L5.70207 11.2791C4.95686 10.9446 4.11526 10.8932 3.33486 11.1345C2.55446 11.3758 1.88877 11.8933 1.46243 12.59C1.0361 13.2868 0.878342 14.1151 1.01871 14.9198C1.15908 15.7245 1.58795 16.4504 2.22501 16.9617C2.86207 17.473 3.66365 17.7345 4.47966 17.6974C5.29567 17.6602 6.07015 17.3269 6.6581 16.7598C7.24606 16.1927 7.60716 15.4308 7.6738 14.6167C7.74044 13.8026 7.50804 12.992 7.02013 12.3369L8.67988 9.71254L10.2616 12.0599C9.70584 12.6592 9.3878 13.4407 9.36705 14.2578C9.3463 15.0749 9.62426 15.8715 10.1488 16.4983C10.6734 17.1251 11.4086 17.5391 12.2166 17.6626C13.0245 17.7861 13.8498 17.6107 14.5377 17.1693C15.2256 16.7279 15.7289 16.0507 15.9532 15.2647C16.1776 14.4788 16.1075 13.638 15.7563 12.8999C15.4051 12.1619 14.7967 11.5773 14.0452 11.2557C13.2938 10.9342 12.4509 10.8977 11.6745 11.1532L8.63539 6.64071L5.02457 1.28116ZM2.64871 14.3442C2.64871 13.8989 2.82561 13.4718 3.14049 13.157C3.45538 12.8421 3.88245 12.6652 4.32777 12.6652C4.77308 12.6652 5.20015 12.8421 5.51504 13.157C5.82992 13.4718 6.00682 13.8989 6.00682 14.3442C6.00682 14.7895 5.82992 15.2166 5.51504 15.5315C5.20015 15.8464 4.77308 16.0233 4.32777 16.0233C3.88245 16.0233 3.45538 15.8464 3.14049 15.5315C2.82561 15.2166 2.64871 14.7895 2.64871 14.3442ZM11.044 14.3442C11.044 13.8989 11.2209 13.4718 11.5358 13.157C11.8507 12.8421 12.2777 12.6652 12.7231 12.6652C13.1684 12.6652 13.5954 12.8421 13.9103 13.157C14.2252 13.4718 14.4021 13.8989 14.4021 14.3442C14.4021 14.7895 14.2252 15.2166 13.9103 15.5315C13.5954 15.8464 13.1684 16.0233 12.7231 16.0233C12.2777 16.0233 11.8507 15.8464 11.5358 15.5315C11.2209 15.2166 11.044 14.7895 11.044 14.3442ZM10.641 6.61216L13.4325 2.1996C13.5516 2.01146 13.5911 1.7837 13.5423 1.56643C13.4935 1.34916 13.3603 1.16017 13.1722 1.04105C12.9841 0.92193 12.7563 0.882428 12.539 0.931235C12.3218 0.980042 12.1328 1.11316 12.0137 1.30131L9.6168 5.09178L10.641 6.61216Z" fill="#646464"/>
</svg>
