<svg fill="#000000" height="22px" width="22px" version="1.1" id="Capa_1" xmlns="http://www.w3.org/2000/svg"
     xmlns:xlink="http://www.w3.org/1999/xlink" viewBox="0 0 60 60" xml:space="preserve" stroke="#000000"
     stroke-width="1.7"><g id="SVGRepo_bgCarrier" stroke-width="0"></g>
    <g id="SVGRepo_tracerCarrier" stroke-linecap="round" stroke-linejoin="round"></g>
    <g id="SVGRepo_iconCarrier"> <path
            d="M53,41V29H31V19h7V3H22v16h7v10H7v12H0v16h16V41H9V31h20v10h-7v16h16V41h-7V31h20v10h-7v16h16V41H53z M24,5h12v12H24V5z M14,55H2V43h12V55z M36,55H24V43h12V55z M58,55H46V43h12V55z"></path> </g></svg>