<svg width="24" height="24" viewBox="0 0 24 24" fill="none" xmlns="http://www.w3.org/2000/svg">
    <g clip-path="url(#clip0_4749_2367)">
        <path d="M3.54688 20.9399H20.4469C20.5795 20.9399 20.7067 20.8873 20.8004 20.7935C20.8942 20.6997 20.9469 20.5725 20.9469 20.4399C20.9469 20.3073 20.8942 20.1802 20.8004 20.0864C20.7067 19.9926 20.5795 19.9399 20.4469 19.9399H3.54688C3.41427 19.9399 3.28709 19.9926 3.19332 20.0864C3.09955 20.1802 3.04688 20.3073 3.04688 20.4399C3.04688 20.5725 3.09955 20.6997 3.19332 20.7935C3.28709 20.8873 3.41427 20.9399 3.54688 20.9399ZM9.70887 17.1819C10.1311 17.0632 10.5163 16.8396 10.8289 16.5319L20.3689 6.99194C20.6956 6.66395 20.879 6.21988 20.879 5.75694C20.879 5.29401 20.6956 4.84993 20.3689 4.52194L19.4289 3.59194C19.096 3.27465 18.6538 3.09766 18.1939 3.09766C17.734 3.09766 17.2918 3.27465 16.9589 3.59194L7.41887 13.1219C7.11124 13.4329 6.89056 13.819 6.77888 14.2419L6.03887 17.0019C6.00408 17.128 6.00334 17.2611 6.03671 17.3876C6.07009 17.5141 6.13639 17.6294 6.22887 17.7219C6.3706 17.8608 6.56046 17.9396 6.75888 17.9419L9.70887 17.1819ZM10.1189 15.8219C9.93446 16.0096 9.70308 16.1442 9.44887 16.2119L8.47887 16.4719L7.47888 15.4719L7.73887 14.5019C7.80792 14.2483 7.94241 14.0172 8.12887 13.8319L8.50887 13.4619L10.4989 15.4519L10.1189 15.8219ZM11.2089 14.7419L9.21887 12.7519L15.9489 6.02194L17.9389 8.01194L11.2089 14.7419ZM19.6589 6.29194L18.6489 7.30194L16.6589 5.31194L17.6689 4.29194C17.8095 4.15149 18.0001 4.0726 18.1989 4.0726C18.3976 4.0726 18.5882 4.15149 18.7289 4.29194L19.6589 5.23194C19.7984 5.37308 19.8766 5.56351 19.8766 5.76194C19.8766 5.96037 19.7984 6.1508 19.6589 6.29194Z" fill="#646464"/>
    </g>
    <defs>
        <clipPath id="clip0_4749_2367">
            <rect width="24" height="24" rx="6" fill="white"/>
        </clipPath>
    </defs>
</svg>
