<svg width="21" height="21" viewBox="0 0 21 21" fill="none" xmlns="http://www.w3.org/2000/svg">
    <path d="M20.5693 16.6534L12.6072 2.02059C12.0906 1.06194 11.3178 0.525391 10.4883 0.525391C9.6588 0.525391 8.89755 1.07244 8.3715 2.03109L0.429296 16.6544C-0.0852039 17.6005 -0.141904 18.5707 0.284396 19.3109C0.709646 20.0533 1.5612 20.4754 2.61435 20.4754H18.3853C19.4385 20.4754 20.29 20.0533 20.7163 19.312C21.1416 18.5707 21.0849 17.612 20.5693 16.6544M10.4998 5.10024C10.9146 5.10024 11.2506 5.44254 11.2506 5.86464V12.7768C11.2506 13.1989 10.9146 13.5412 10.4998 13.5412C10.4003 13.5405 10.3019 13.5202 10.2102 13.4813C10.1185 13.4425 10.0354 13.386 9.96568 13.3149C9.89593 13.2439 9.84089 13.1598 9.80372 13.0675C9.76655 12.9751 9.74799 12.8763 9.74909 12.7768V5.86359C9.74909 5.45304 10.0851 5.10024 10.4998 5.10024ZM10.4998 17.3044C9.8499 17.3044 9.33435 16.7689 9.33435 16.1074C9.33435 15.4459 9.86145 14.9093 10.4998 14.9093C11.1498 14.9093 11.6653 15.4448 11.6653 16.1063C11.6653 16.7678 11.1372 17.3044 10.4998 17.3044Z" fill="#C80001"/>
</svg>