<svg width="20" height="20" viewBox="0 0 20 20" fill="none" xmlns="http://www.w3.org/2000/svg">
    <path fill-rule="evenodd" clip-rule="evenodd" d="M18.625 19.375H1.375C0.960156 19.375 0.625 19.0398 0.625 18.625V1.375C0.625 0.960156 0.960156 0.625 1.375 0.625H9.8125C9.91563 0.625 10 0.709375 10 0.8125V2.125C10 2.22813 9.91563 2.3125 9.8125 2.3125H2.3125V17.6875H17.6875V10.1875C17.6875 10.0844 17.7719 10 17.875 10H19.1875C19.2906 10 19.375 10.0844 19.375 10.1875V18.625C19.375 19.0398 19.0398 19.375 18.625 19.375ZM16.0673 2.66713L14.8438 1.4437C14.7337 1.33354 14.7993 1.1437 14.954 1.12495L19.1587 0.632758C19.2782 0.618695 19.3813 0.719477 19.3673 0.841352L18.8751 5.04604C18.8563 5.20073 18.6665 5.26635 18.5563 5.1562L17.3282 3.92807L11.3235 9.93276C11.2509 10.0054 11.1313 10.0054 11.0587 9.93276L10.0649 8.93901C9.99227 8.86635 9.99227 8.74682 10.0649 8.67416L16.0673 2.66713Z" fill="#646464"/>
</svg>
