<svg width="19" height="19" viewBox="0 0 19 19" fill="none" xmlns="http://www.w3.org/2000/svg">
    <rect x="0.5" y="0.5" width="18" height="18"/>
    <path d="M7.91406 9.5013C7.91406 9.92123 8.08088 10.324 8.37781 10.6209C8.67474 10.9178 9.07747 11.0846 9.4974 11.0846C9.91732 11.0846 10.32 10.9178 10.617 10.6209C10.9139 10.324 11.0807 9.92123 11.0807 9.5013C11.0807 9.08138 10.9139 8.67865 10.617 8.38172C10.32 8.08478 9.91732 7.91797 9.4974 7.91797C9.07747 7.91797 8.67474 8.08478 8.37781 8.38172C8.08088 8.67865 7.91406 9.08138 7.91406 9.5013Z" stroke="#454545" stroke-width="2" stroke-linecap="round" stroke-linejoin="round"/>
    <path d="M8.86033 14.2231C6.29428 14.0014 4.1325 12.4271 2.375 9.5C4.275 6.33333 6.65 4.75 9.5 4.75C12.1331 4.75 14.3608 6.10164 16.1832 8.80492M14.5825 12.3579C14.7369 12.2035 14.9202 12.0811 15.1219 11.9975C15.3236 11.914 15.5398 11.871 15.7581 11.871C15.9765 11.871 16.1927 11.914 16.3944 11.9975C16.5961 12.0811 16.7794 12.2035 16.9337 12.3579C17.0881 12.5123 17.2106 12.6956 17.2942 12.8973C17.3777 13.099 17.4207 13.3152 17.4207 13.5335C17.4207 13.7519 17.3777 13.9681 17.2942 14.1698C17.2106 14.3715 17.0881 14.5548 16.9337 14.7092L14.25 17.4167H11.875V15.0417L14.5825 12.3579Z" stroke="#454545" stroke-width="2" stroke-linecap="round" stroke-linejoin="round"/>
</svg>
