<svg width="20" height="20" viewBox="0 0 19 15" fill="none" xmlns="http://www.w3.org/2000/svg">
    <path d="M9.62775 14.3306C7.78112 14.3306 6.07385 13.8428 4.50595 12.8673C2.93805 11.8917 1.70987 10.559 0.821392 8.86913C0.716866 8.66007 0.63847 8.44684 0.586207 8.22942C0.533944 8.01201 0.507812 7.78971 0.507812 7.56254C0.507812 7.31865 0.533944 7.08346 0.586207 6.85699C0.63847 6.63052 0.716866 6.41275 0.821392 6.2037C1.70987 4.51385 2.93805 3.18114 4.50595 2.20556C6.07385 1.22998 7.78112 0.742188 9.62775 0.742188C11.4744 0.742188 13.1817 1.22998 14.7496 2.20556C16.3175 3.18114 17.5456 4.51385 18.4341 6.2037C18.5386 6.41275 18.617 6.62633 18.6693 6.84445C18.7216 7.06256 18.7477 7.29321 18.7477 7.53641C18.7477 7.77961 18.7216 8.01061 18.6693 8.22942C18.617 8.44823 18.5386 8.66147 18.4341 8.86913C17.5456 10.559 16.3175 11.8917 14.7496 12.8673C13.1817 13.8428 11.4744 14.3306 9.62775 14.3306ZM9.62775 12.2401C11.1608 12.2401 12.5632 11.822 13.8349 10.9858C15.1067 10.1496 16.0823 8.99978 16.7617 7.53641C16.0823 6.07304 15.1067 4.92325 13.8349 4.08704C12.5632 3.25082 11.1608 2.83272 9.62775 2.83272C8.0947 2.83272 6.6923 3.25082 5.42056 4.08704C4.14882 4.92325 3.17324 6.07304 2.49382 7.53641C3.17324 8.99978 4.14882 10.1496 5.42056 10.9858C6.6923 11.822 8.0947 12.2401 9.62775 12.2401ZM9.62775 11.1948C10.6382 11.1948 11.5005 10.8377 12.2148 10.1234C12.9291 9.40918 13.2862 8.54683 13.2862 7.53641C13.2862 6.52599 12.9291 5.66364 12.2148 4.94938C11.5005 4.23512 10.6382 3.87798 9.62775 3.87798C8.61733 3.87798 7.75499 4.23512 7.04072 4.94938C6.32646 5.66364 5.96932 6.52599 5.96932 7.53641C5.96932 8.54683 6.32646 9.40918 7.04072 10.1234C7.75499 10.8377 8.61733 11.1948 9.62775 11.1948ZM9.62775 9.10431C9.19223 9.10431 8.82185 8.95205 8.51664 8.64753C8.21142 8.34301 8.05916 7.97264 8.05985 7.53641C8.06055 7.10019 8.21316 6.73016 8.51768 6.42634C8.8222 6.12252 9.19223 5.96991 9.62775 5.96851C10.0633 5.96712 10.4337 6.11973 10.7389 6.42634C11.0441 6.73295 11.1963 7.10298 11.1957 7.53641C11.195 7.96985 11.0427 8.34022 10.7389 8.64753C10.435 8.95484 10.0647 9.1071 9.62775 9.10431Z" fill="#333333"></path>
</svg>