<svg width="18" height="18" viewBox="0 0 16 16" fill="none" xmlns="http://www.w3.org/2000/svg">
    <g clip-path="url(#clip0_4804_2429)">
        <path d="M1.875 8L2.561 5.257C2.61517 5.04075 2.74005 4.84881 2.91579 4.71166C3.09154 4.5745 3.30807 4.50001 3.531 4.5H14.469C14.621 4.5 14.771 4.53466 14.9076 4.60134C15.0442 4.66801 15.1638 4.76495 15.2573 4.88479C15.3509 5.00462 15.4158 5.1442 15.4473 5.29291C15.4788 5.44162 15.4759 5.59555 15.439 5.743L15.124 7.003M6 13.5H2.004C1.80668 13.5005 1.6112 13.4621 1.42875 13.387C1.2463 13.3118 1.08046 13.2014 0.940753 13.0621C0.801041 12.9227 0.690194 12.7572 0.614562 12.575C0.53893 12.3927 0.499999 12.1973 0.5 12V3.5C0.5 3.23478 0.605357 2.98043 0.792893 2.79289C0.98043 2.60536 1.23478 2.5 1.5 2.5H6.5C6.76522 2.5 7.01957 2.60536 7.20711 2.79289C7.39464 2.98043 7.5 3.23478 7.5 3.5V4.5" stroke="#222222" stroke-width="1.5" stroke-linecap="round" stroke-linejoin="round"/>
        <path d="M9.163 15.477L11.999 8.5L14.836 15.477M8.5 15.5H9.977M14.023 15.5H15.5M10 13.5H14" stroke="#222222" stroke-width="1.5" stroke-linecap="round" stroke-linejoin="round"/>
    </g>
    <defs>
        <clipPath id="clip0_4804_2429">
            <rect width="16" height="16" fill="white"/>
        </clipPath>
    </defs>
</svg>
