<svg width="25" height="25" viewBox="0 0 25 25" fill="none" xmlns="http://www.w3.org/2000/svg">
<path id="Vector" d="M11.25 16.25H11.1863C10.8716 16.25 10.5699 16.125 10.3474 15.9026C10.125 15.6801 10 15.3784 10 15.0638C10 14.7322 9.8683 14.4143 9.63388 14.1799C9.39946 13.9454 9.08152 13.8138 8.75 13.8138C8.41848 13.8138 8.10054 13.9454 7.86612 14.1799C7.6317 14.4143 7.5 14.7322 7.5 15.0638C7.5 16.0414 7.88837 16.979 8.57968 17.6703C9.27098 18.3616 10.2086 18.75 11.1863 18.75H11.25V20C11.25 20.3315 11.3817 20.6495 11.6161 20.8839C11.8505 21.1183 12.1685 21.25 12.5 21.25C12.8315 21.25 13.1495 21.1183 13.3839 20.8839C13.6183 20.6495 13.75 20.3315 13.75 20V18.75C14.7446 18.75 15.6984 18.3549 16.4017 17.6517C17.1049 16.9484 17.5 15.9946 17.5 15C17.5 14.0054 17.1049 13.0516 16.4017 12.3484C15.6984 11.6451 14.7446 11.25 13.75 11.25V8.75H13.7775C14.4525 8.75 15 9.2975 15 9.9725C15 10.304 15.1317 10.622 15.3661 10.8564C15.6005 11.0908 15.9185 11.2225 16.25 11.2225C16.5815 11.2225 16.8995 11.0908 17.1339 10.8564C17.3683 10.622 17.5 10.304 17.5 9.9725C17.5 8.98523 17.1078 8.0384 16.4097 7.3403C15.7116 6.64219 14.7648 6.25 13.7775 6.25H13.75V5C13.75 4.66848 13.6183 4.35054 13.3839 4.11612C13.1495 3.8817 12.8315 3.75 12.5 3.75C12.1685 3.75 11.8505 3.8817 11.6161 4.11612C11.3817 4.35054 11.25 4.66848 11.25 5V6.25C10.7575 6.25 10.2699 6.347 9.81494 6.53545C9.35997 6.72391 8.94657 7.00013 8.59835 7.34835C8.25013 7.69657 7.97391 8.10997 7.78545 8.56494C7.597 9.01991 7.5 9.50754 7.5 10C7.5 10.4925 7.597 10.9801 7.78545 11.4351C7.97391 11.89 8.25013 12.3034 8.59835 12.6517C8.94657 12.9999 9.35997 13.2761 9.81494 13.4645C10.2699 13.653 10.7575 13.75 11.25 13.75V16.25ZM13.75 16.25V13.75C14.0815 13.75 14.3995 13.8817 14.6339 14.1161C14.8683 14.3505 15 14.6685 15 15C15 15.3315 14.8683 15.6495 14.6339 15.8839C14.3995 16.1183 14.0815 16.25 13.75 16.25ZM11.25 8.75V11.25C10.9185 11.25 10.6005 11.1183 10.3661 10.8839C10.1317 10.6495 10 10.3315 10 10C10 9.66848 10.1317 9.35054 10.3661 9.11612C10.6005 8.8817 10.9185 8.75 11.25 8.75ZM12.5 25C5.59625 25 0 19.4037 0 12.5C0 5.59625 5.59625 0 12.5 0C19.4037 0 25 5.59625 25 12.5C25 19.4037 19.4037 25 12.5 25Z" fill="#429E9D"/>
</svg>
