<svg width="22" height="22" viewBox="0 0 22 22" fill="none" xmlns="http://www.w3.org/2000/svg">
    <path d="M18.7778 1H3.22222C1.99492 1 1 1.99492 1 3.22222V18.7778C1 20.0051 1.99492 21 3.22222 21H18.7778C20.0051 21 21 20.0051 21 18.7778V3.22222C21 1.99492 20.0051 1 18.7778 1Z" stroke="#020202" stroke-width="2" stroke-linecap="round" stroke-linejoin="round"/>
    <path d="M7.66656 9.88878C8.89386 9.88878 9.88878 8.89386 9.88878 7.66656C9.88878 6.43926 8.89386 5.44434 7.66656 5.44434C6.43926 5.44434 5.44434 6.43926 5.44434 7.66656C5.44434 8.89386 6.43926 9.88878 7.66656 9.88878Z" stroke="#020202" stroke-width="2" stroke-linecap="round" stroke-linejoin="round"/>
    <path d="M20.9987 14.3334L17.5698 10.9045C17.1531 10.4879 16.588 10.2539 15.9987 10.2539C15.4094 10.2539 14.8443 10.4879 14.4276 10.9045L4.33203 21.0001" stroke="#020202" stroke-width="2" stroke-linecap="round" stroke-linejoin="round"/>
</svg>
