<svg width="27" height="27" viewBox="0 0 27 27" fill="none" xmlns="http://www.w3.org/2000/svg">
    <path d="M12.6773 1.70859L12.709 3.42773H13.5H14.291L14.3227 1.70859L14.3438 0H13.5H12.6562L12.6773 1.70859Z" fill="black"/>
    <path d="M4.23984 3.82852L3.69141 4.37695L4.9043 5.58984L6.11719 6.80273L6.66563 6.24375L7.22461 5.69531L6.01172 4.48242L4.79883 3.26953L4.23984 3.82852Z" fill="black"/>
    <path d="M20.9883 4.48242L19.7754 5.69531L20.3344 6.24375L20.8828 6.80273L22.0957 5.58984L23.3086 4.37695L22.7496 3.81797L22.2012 3.26953L20.9883 4.48242Z" fill="black"/>
    <path d="M12.6567 5.18949C11.6442 5.28441 10.368 5.68519 9.49262 6.19144C8.45903 6.79261 7.0141 8.29027 6.46567 9.33441C5.40043 11.3805 5.23168 13.5743 5.96996 15.7469C6.45512 17.1813 7.60473 18.7528 8.74379 19.5227L9.27114 19.8813L9.28168 21.8536V23.8364H9.90395H10.5157L10.5789 24.3532C10.695 25.3657 11.2961 26.2094 12.2348 26.6946C12.9098 27.0426 14.0911 27.0532 14.7661 26.7051C15.7047 26.2094 16.2743 25.4079 16.4114 24.3743L16.4852 23.8364H17.0969H17.7192V21.8536L17.7297 19.8813L18.2571 19.5227C18.5524 19.3223 19.0481 18.8688 19.375 18.5207C22.1911 15.4094 22.1805 10.7582 19.3539 7.72074C17.5715 5.80121 15.2829 4.93637 12.6567 5.18949ZM15.1247 6.91918C17.1602 7.44652 18.8688 9.06019 19.5754 11.1274C19.934 12.1926 19.9868 13.8063 19.6809 14.8188C19.2274 16.327 18.2254 17.6875 16.9598 18.4996L16.3586 18.8793H13.5004H10.6422L10.0411 18.4996C8.77543 17.6875 7.76293 16.3164 7.31996 14.8188C7.18285 14.3864 7.13012 13.8379 7.13012 13.0786C7.13012 12.1504 7.18285 11.834 7.42543 11.1274C8.12153 9.09183 9.74575 7.5309 11.7602 6.95082C12.5934 6.70824 14.2493 6.69769 15.1247 6.91918ZM16.1372 21.4106V22.2543H13.5004H10.8637V21.4106V20.5668H13.5004H16.1372V21.4106ZM14.8399 24.2266C14.745 24.775 14.4497 25.1231 13.9434 25.3129C13.1207 25.5977 12.3086 25.102 12.161 24.2266L12.0977 23.8364H13.5004H14.9032L14.8399 24.2266Z" fill="black"/>
    <path d="M14.0273 11.9707L12.498 13.5L11.9496 12.9516L11.3906 12.3926L10.8316 12.9516L10.2832 13.5L11.3906 14.6074L12.498 15.7148L14.6074 13.6055L16.7168 11.4961L16.1895 10.9687C15.9047 10.684 15.641 10.4414 15.6094 10.4414C15.5777 10.4414 14.8711 11.127 14.0273 11.9707Z" fill="black"/>
    <path d="M0.421875 13.1309V13.9219H2.10938H3.79688V13.1309V12.3398H2.10938H0.421875V13.1309Z" fill="black"/>
    <path d="M23.2031 13.1309V13.9219H24.8906H26.5781V13.1309V12.3398H24.8906H23.2031V13.1309Z" fill="black"/>
    <path d="M4.85156 20.6191L3.63867 21.832L4.19766 22.3805L4.74609 22.9395L5.95898 21.7266L7.16133 20.5242L6.66563 19.9758C6.39141 19.6805 6.14883 19.4273 6.11719 19.4168C6.08555 19.4062 5.51602 19.9547 4.85156 20.6191Z" fill="black"/>
    <path d="M20.3346 19.9766L19.8389 20.525L21.0201 21.7062L22.2014 22.877L22.7604 22.3391L23.3299 21.8012L22.1275 20.5988C21.4736 19.9449 20.9146 19.407 20.883 19.4176C20.8514 19.4281 20.6088 19.6812 20.3346 19.9766Z" fill="black"/>
</svg>
