<svg width="18" height="16" viewBox="0 0 18 16" fill="none" xmlns="http://www.w3.org/2000/svg">
<path id="Vector" d="M13.0179 0C11.3585 0 9.90563 0.740174 9 1.9913C8.09437 0.740174 6.64152 0 4.98214 0C3.66125 0.00154431 2.39489 0.546512 1.46088 1.51534C0.52687 2.48418 0.00148881 3.79775 0 5.16789C0 11.0026 8.34027 15.7254 8.69545 15.9204C8.78906 15.9727 8.8937 16 9 16C9.1063 16 9.21094 15.9727 9.30455 15.9204C9.65973 15.7254 18 11.0026 18 5.16789C17.9985 3.79775 17.4731 2.48418 16.5391 1.51534C15.6051 0.546512 14.3387 0.00154431 13.0179 0ZM9 14.5701C7.53268 13.6832 1.28571 9.64311 1.28571 5.16789C1.28699 4.15139 1.67684 3.1769 2.36978 2.45813C3.06272 1.73936 4.00218 1.33497 4.98214 1.33365C6.54509 1.33365 7.85732 2.19718 8.40536 3.58418C8.45379 3.70648 8.53618 3.81109 8.64206 3.88471C8.74794 3.95832 8.87253 3.99763 9 3.99763C9.12747 3.99763 9.25206 3.95832 9.35794 3.88471C9.46382 3.81109 9.54621 3.70648 9.59464 3.58418C10.1427 2.19468 11.4549 1.33365 13.0179 1.33365C13.9978 1.33497 14.9373 1.73936 15.6302 2.45813C16.3232 3.1769 16.713 4.15139 16.7143 5.16789C16.7143 9.63644 10.4657 13.6824 9 14.5701Z" fill="#828282"/>
</svg>
