<svg width="14" height="17" viewBox="0 0 14 17" fill="none" xmlns="http://www.w3.org/2000/svg">
<path d="M13.5176 2.95688C13.6538 3.46354 13.6884 3.99213 13.6194 4.51215C13.5504 5.03218 13.3792 5.53332 13.1156 5.98668L11.5827 8.64457C11.0544 9.55954 10.1846 10.227 9.16453 10.5003C8.14444 10.7737 7.05747 10.6305 6.14243 10.1023C6.06854 10.0643 6.00313 10.0117 5.95016 9.94767C5.89719 9.88363 5.85776 9.80949 5.83428 9.72976C5.8108 9.65002 5.80375 9.56635 5.81356 9.48382C5.82336 9.40129 5.84982 9.32162 5.89133 9.24965C5.93284 9.17768 5.98853 9.11491 6.05503 9.06514C6.12152 9.01537 6.19743 8.97965 6.27815 8.96014C6.35887 8.94063 6.44272 8.93774 6.5246 8.95164C6.60649 8.96554 6.68471 8.99595 6.75451 9.04102C7.38861 9.40497 8.14074 9.5031 8.84664 9.31395C9.55254 9.12481 10.1548 8.66377 10.522 8.03152L12.0549 5.37362C12.2453 5.05936 12.371 4.7102 12.4247 4.34662C12.4784 3.98304 12.459 3.61235 12.3676 3.2563C12.2763 2.90024 12.1149 2.56599 11.8928 2.27314C11.6707 1.9803 11.3925 1.73475 11.0744 1.55089C10.7563 1.36704 10.4047 1.24859 10.0403 1.20248C9.67593 1.15638 9.30604 1.18354 8.95235 1.28239C8.59866 1.38124 8.26829 1.54978 7.9806 1.77813C7.69291 2.00647 7.4537 2.29003 7.277 2.61217L6.2045 4.47175C6.11923 4.60409 5.98637 4.69852 5.83341 4.73549C5.68045 4.77246 5.51911 4.74914 5.38281 4.67036C5.2465 4.59158 5.14566 4.46338 5.10117 4.31229C5.05667 4.16119 5.07193 3.99879 5.14378 3.8587L6.21628 1.99911C6.61197 1.31898 7.19964 0.771059 7.90552 0.424116C8.6114 0.0771728 9.40404 -0.0533335 10.184 0.0489762C10.9639 0.151286 11.6964 0.481853 12.2894 0.99919C12.8825 1.51653 13.3098 2.19758 13.5176 2.95688ZM8.22535 12.0137L7.15285 13.8732C6.77897 14.4906 6.17827 14.9366 5.47948 15.1159C4.7807 15.2951 4.03945 15.1932 3.41458 14.8321C2.78971 14.4709 2.33094 13.8792 2.13661 13.1838C1.94227 12.4884 2.02782 11.7446 2.37493 11.1118L3.90784 8.4539C4.27501 7.82165 4.87731 7.36061 5.58321 7.17147C6.28911 6.98232 7.04124 7.08044 7.67534 7.4444C7.81535 7.51637 7.97763 7.53172 8.12858 7.48726C8.27954 7.4428 8.4076 7.34194 8.48625 7.20556C8.56491 7.06918 8.58813 6.90773 8.55112 6.75463C8.51411 6.60153 8.41969 6.46852 8.28742 6.38312C7.37238 5.85491 6.28541 5.71174 5.26532 5.98508C4.24523 6.25841 3.37547 6.92588 2.84712 7.84085L1.31421 10.4987C1.03224 10.9528 0.844405 11.4589 0.76186 11.9871C0.679314 12.5153 0.703746 13.0548 0.833705 13.5735C0.963665 14.0922 1.1965 14.5794 1.51836 15.0063C1.84022 15.4332 2.24453 15.791 2.70727 16.0585C3.17 16.3259 3.6817 16.4975 4.21194 16.5631C4.74218 16.6287 5.28014 16.5869 5.79383 16.4402C6.30752 16.2936 6.78644 16.045 7.20213 15.7093C7.61782 15.3737 7.96178 14.9578 8.21357 14.4863L9.28607 12.6267C9.35792 12.4866 9.37318 12.3242 9.32868 12.1731C9.28419 12.022 9.18335 11.8938 9.04704 11.8151C8.91073 11.7363 8.7494 11.713 8.59644 11.7499C8.44348 11.7869 8.31062 11.8813 8.22535 12.0137Z" fill="#429E9D"/>
</svg>
