<svg width="30" height="32" viewBox="0 0 30 32" fill="none" xmlns="http://www.w3.org/2000/svg">
    <path d="M15.5539 1.01294H16.1895C14.1116 2.94374 12.776 5.54165 12.4148 8.35506C12.0536 11.1685 12.6897 14.0195 14.2125 16.4126C15.7354 18.8056 18.0486 20.5894 20.7502 21.4539C23.4518 22.3183 26.3708 22.2087 29 21.1442C27.9886 23.5776 26.3357 25.691 24.2174 27.2587C22.0991 28.8264 19.595 29.7897 16.9722 30.0458C14.3494 30.3019 11.7063 29.8413 9.32474 28.713C6.9432 27.5847 4.9126 25.8311 3.44955 23.6393C1.98649 21.4474 1.14586 18.8995 1.01733 16.2674C0.888794 13.6352 1.47718 11.0176 2.71971 8.69359C3.96224 6.36961 5.81232 4.42652 8.0726 3.07157C10.3329 1.71662 12.9186 1.00064 15.5539 1V1.01294Z" stroke="#919191" stroke-width="2" stroke-linecap="round" stroke-linejoin="round"/>
</svg>