<svg width="26" height="24" viewBox="0 0 26 24" fill="none" xmlns="http://www.w3.org/2000/svg">
<path d="M9.1 21.4001H13V13.5247L7.8 8.9903L2.6 13.5247V21.4001H6.5V16.2001H9.1V21.4001ZM24.7 24.0001H1.3C0.955218 24.0001 0.624558 23.8631 0.380761 23.6193C0.136964 23.3755 7.78314e-09 23.0449 7.78314e-09 22.7001V12.9332C-2.03174e-05 12.7474 0.0397682 12.5638 0.116685 12.3948C0.193602 12.2257 0.305861 12.075 0.4459 11.953L5.2 7.8073V1.9001C5.2 1.55532 5.33696 1.22466 5.58076 0.980859C5.82456 0.737062 6.15522 0.600098 6.5 0.600098H24.7C25.0448 0.600098 25.3754 0.737062 25.6192 0.980859C25.863 1.22466 26 1.55532 26 1.9001V22.7001C26 23.0449 25.863 23.3755 25.6192 23.6193C25.3754 23.8631 25.0448 24.0001 24.7 24.0001ZM18.2 11.0001V13.6001H20.8V11.0001H18.2ZM18.2 16.2001V18.8001H20.8V16.2001H18.2ZM18.2 5.8001V8.4001H20.8V5.8001H18.2ZM13 5.8001V8.4001H15.6V5.8001H13Z" fill="#7F7F7F"/>
</svg>
