<svg width="19" height="19" viewBox="0 0 19 19" fill="none" xmlns="http://www.w3.org/2000/svg">
<path d="M0 16V13.2C0 12.6333 0.146 12.1127 0.438 11.638C0.73 11.1633 1.11733 10.8007 1.6 10.55C2.63333 10.0333 3.68333 9.646 4.75 9.388C5.81667 9.13 6.9 9.00067 8 9C8.33333 9 8.66667 9.01267 9 9.038C9.33333 9.06333 9.66667 9.10067 10 9.15C9.93333 10.1167 10.1083 11.0293 10.525 11.888C10.9417 12.7467 11.55 13.4507 12.35 14V16H0ZM16 19L14.5 17.5V12.85C13.7667 12.6333 13.1667 12.221 12.7 11.613C12.2333 11.005 12 10.3007 12 9.5C12 8.53333 12.3417 7.70833 13.025 7.025C13.7083 6.34167 14.5333 6 15.5 6C16.4667 6 17.2917 6.34167 17.975 7.025C18.6583 7.70833 19 8.53333 19 9.5C19 10.25 18.7873 10.9167 18.362 11.5C17.9367 12.0833 17.3993 12.5 16.75 12.75L18 14L16.5 15.5L18 17L16 19ZM8 8C6.9 8 5.95833 7.60833 5.175 6.825C4.39167 6.04167 4 5.1 4 4C4 2.9 4.39167 1.95833 5.175 1.175C5.95833 0.391667 6.9 0 8 0C9.1 0 10.0417 0.391667 10.825 1.175C11.6083 1.95833 12 2.9 12 4C12 5.1 11.6083 6.04167 10.825 6.825C10.0417 7.60833 9.1 8 8 8ZM15.5 10C15.7833 10 16.021 9.904 16.213 9.712C16.405 9.52 16.5007 9.28267 16.5 9C16.4993 8.71733 16.4033 8.48 16.212 8.288C16.0207 8.096 15.7833 8 15.5 8C15.2167 8 14.9793 8.096 14.788 8.288C14.5967 8.48 14.5007 8.71733 14.5 9C14.4993 9.28267 14.5953 9.52033 14.788 9.713C14.9807 9.90567 15.218 10.0013 15.5 10Z" fill="white"/>
</svg>
