<svg width="18" height="19" viewBox="0 0 18 19" fill="none" xmlns="http://www.w3.org/2000/svg">
    <path d="M0 16V13.2C0 12.6333 0.137446 12.1127 0.412339 11.638C0.687232 11.1633 1.05187 10.8007 1.50626 10.55C2.47906 10.0333 3.46754 9.646 4.47172 9.388C5.47589 9.13 6.49576 9.00067 7.53131 9C7.84512 9 8.15892 9.01267 8.47273 9.038C8.78653 9.06333 9.10034 9.10067 9.41414 9.15C9.35138 10.1167 9.51613 11.0293 9.90838 11.888C10.3006 12.7467 10.8733 13.4507 11.6265 14V16H0ZM15.0626 19L13.6505 17.5V12.85C12.9601 12.6333 12.3953 12.221 11.956 11.613C11.5166 11.005 11.297 10.3007 11.297 9.5C11.297 8.53333 11.6186 7.70833 12.2619 7.025C12.9052 6.34167 13.6819 6 14.5919 6C15.502 6 16.2786 6.34167 16.9219 7.025C17.5652 7.70833 17.8869 8.53333 17.8869 9.5C17.8869 10.25 17.6867 10.9167 17.2862 11.5C16.8858 12.0833 16.38 12.5 15.7687 12.75L16.9455 14L15.5333 15.5L16.9455 17L15.0626 19ZM7.53131 8C6.49576 8 5.60926 7.60833 4.87182 6.825C4.13438 6.04167 3.76566 5.1 3.76566 4C3.76566 2.9 4.13438 1.95833 4.87182 1.175C5.60926 0.391667 6.49576 0 7.53131 0C8.56687 0 9.45337 0.391667 10.1908 1.175C10.9282 1.95833 11.297 2.9 11.297 4C11.297 5.1 10.9282 6.04167 10.1908 6.825C9.45337 7.60833 8.56687 8 7.53131 8ZM14.5919 10C14.8587 10 15.0824 9.904 15.2631 9.712C15.4439 9.52 15.534 9.28267 15.5333 9C15.5327 8.71733 15.4423 8.48 15.2622 8.288C15.0821 8.096 14.8587 8 14.5919 8C14.3252 8 14.1018 8.096 13.9216 8.288C13.7415 8.48 13.6511 8.71733 13.6505 9C13.6499 9.28267 13.7403 9.52033 13.9216 9.713C14.103 9.90567 14.3264 10.0013 14.5919 10Z" fill="#646464"/>
</svg>
