<svg fill="#ffffff" height="40px" width="40px" version="1.1" id="Capa_1" xmlns="http://www.w3.org/2000/svg"
     xmlns:xlink="http://www.w3.org/1999/xlink" viewBox="0 0 530 520" xml:space="preserve" stroke="#ffffff"><g id="SVGRepo_bgCarrier" stroke-width="0"></g>
    <g id="SVGRepo_tracerCarrier" stroke-linecap="round" stroke-linejoin="round"></g>
    <g id="SVGRepo_iconCarrier"> <path
            d="M256,0C114.617,0,0,114.615,0,256s114.617,256,256,256s256-114.615,256-256S397.383,0,256,0z M224,320 c0,8.836-7.164,16-16,16h-32c-8.836,0-16-7.164-16-16V192c0-8.836,7.164-16,16-16h32c8.836,0,16,7.164,16,16V320z M352,320 c0,8.836-7.164,16-16,16h-32c-8.836,0-16-7.164-16-16V192c0-8.836,7.164-16,16-16h32c8.836,0,16,7.164,16,16V320z"></path> </g></svg>