<svg width="26" height="26" viewBox="0 0 26 26" fill="none" xmlns="http://www.w3.org/2000/svg">
<path d="M4.93431 14.7917L0 9.832L4.93431 4.87234L9.86861 9.832L4.93431 14.7917ZM9.36253 25.8609V19.5023C8.07624 19.3963 6.80049 19.2425 5.53528 19.0407C4.27007 18.8389 3.01541 18.5689 1.77129 18.2306L2.40389 15.6872C4.17518 16.1747 5.95195 16.5087 7.73421 16.6893C9.51646 16.8699 11.3244 16.9597 13.1582 16.9589C14.9927 16.9589 16.8011 16.8686 18.5834 16.688C20.3656 16.5074 22.142 16.1738 23.9124 15.6872L24.545 18.2306C23.3009 18.5697 22.0462 18.8402 20.781 19.042C19.5158 19.2437 18.2401 19.3972 16.9538 19.5023V25.8609H9.36253ZM13.1582 7.92444C12.1038 7.92444 11.2076 7.55353 10.4696 6.8117C9.73155 6.06987 9.36253 5.16907 9.36253 4.10932C9.36253 3.04956 9.73155 2.14876 10.4696 1.40693C11.2076 0.665105 12.1038 0.294189 13.1582 0.294189C14.2125 0.294189 15.1087 0.665105 15.8467 1.40693C16.5848 2.14876 16.9538 3.04956 16.9538 4.10932C16.9538 5.16907 16.5848 6.06987 15.8467 6.8117C15.1087 7.55353 14.2125 7.92444 13.1582 7.92444ZM13.1582 15.6872C12.4623 15.6872 11.8664 15.4379 11.3704 14.9394C10.8745 14.4409 10.6269 13.8424 10.6277 13.1438C10.6277 12.4443 10.8757 11.8454 11.3717 11.3468C11.8676 10.8483 12.4631 10.5995 13.1582 10.6004C13.854 10.6004 14.4499 10.8496 14.9459 11.3481C15.4418 11.8466 15.6894 12.4452 15.6886 13.1438C15.6886 13.8432 15.4406 14.4422 14.9446 14.9407C14.4487 15.4392 13.8532 15.688 13.1582 15.6872ZM19.5474 14.283L17.3966 10.4679L19.5474 6.65273H23.8491L26 10.4679L23.8491 14.283H19.5474Z" fill="#7F7F7F"/>
</svg>
