<svg width="15" height="15" viewBox="0 0 15 15" fill="none" xmlns="http://www.w3.org/2000/svg">
    <path d="M7.35379 5.96484C7.67389 5.96484 7.99085 5.9018 8.28658 5.7793C8.58232 5.6568 8.85102 5.47726 9.07737 5.25092C9.30371 5.02457 9.48326 4.75587 9.60575 4.46013C9.72825 4.1644 9.79129 3.84744 9.79129 3.52734C9.79129 3.20725 9.72825 2.89028 9.60575 2.59455C9.48326 2.29882 9.30371 2.03011 9.07737 1.80377C8.85102 1.57743 8.58232 1.39788 8.28658 1.27539C7.99085 1.15289 7.67389 1.08984 7.35379 1.08984C6.70733 1.08984 6.08734 1.34665 5.63022 1.80377C5.1731 2.26089 4.91629 2.88088 4.91629 3.52734C4.91629 4.17381 5.1731 4.7938 5.63022 5.25092C6.08734 5.70804 6.70733 5.96484 7.35379 5.96484ZM1.08594 13.2077V13.6256H13.6217V13.2077C13.6217 11.6477 13.6217 10.8677 13.318 10.2716C13.0509 9.74742 12.6248 9.32127 12.1007 9.0542C11.5045 8.75056 10.7245 8.75056 9.16451 8.75056H5.54308C3.98308 8.75056 3.20308 8.75056 2.60694 9.0542C2.0828 9.32127 1.65665 9.74742 1.38958 10.2716C1.08594 10.8677 1.08594 11.6477 1.08594 13.2077Z" fill="#686464" stroke="#686464" stroke-width="2" stroke-linecap="round" stroke-linejoin="round"/>
</svg>
