<svg width="21" height="22" viewBox="0 0 21 22" fill="none" xmlns="http://www.w3.org/2000/svg">
    <mask id="path-1-inside-1_2616_3734" fill="white">
        <path d="M0 1.21367C0 0.543889 0.519167 0 1.1585 0H19.8415C20.4808 0 21 0.543889 21 1.21367V20.7863C20.9997 21.1081 20.8775 21.4166 20.6603 21.6442C20.4431 21.8717 20.1487 21.9997 19.8415 22H1.1585C0.851247 22 0.556578 21.8721 0.339317 21.6445C0.122056 21.4169 0 21.1082 0 20.7863V1.21367ZM8.89233 6.61833C8.82212 6.56926 8.74051 6.54105 8.65621 6.53671C8.5719 6.53238 8.48805 6.55208 8.41359 6.59372C8.33912 6.63536 8.27683 6.69737 8.23335 6.77317C8.18987 6.84896 8.16682 6.93568 8.16667 7.02411V14.9759C8.16682 15.0643 8.18987 15.151 8.23335 15.2268C8.27683 15.3026 8.33912 15.3646 8.41359 15.4063C8.48805 15.4479 8.5719 15.4676 8.65621 15.4633C8.74051 15.459 8.82212 15.4307 8.89233 15.3817L14.5845 11.407C14.6485 11.3624 14.701 11.3019 14.7373 11.2309C14.7736 11.1599 14.7926 11.0806 14.7926 11C14.7926 10.9194 14.7736 10.8401 14.7373 10.7691C14.701 10.6981 14.6485 10.6376 14.5845 10.593L8.89233 6.61833Z"/>
    </mask>
    <path d="M0 1.21367C0 0.543889 0.519167 0 1.1585 0H19.8415C20.4808 0 21 0.543889 21 1.21367V20.7863C20.9997 21.1081 20.8775 21.4166 20.6603 21.6442C20.4431 21.8717 20.1487 21.9997 19.8415 22H1.1585C0.851247 22 0.556578 21.8721 0.339317 21.6445C0.122056 21.4169 0 21.1082 0 20.7863V1.21367ZM8.89233 6.61833C8.82212 6.56926 8.74051 6.54105 8.65621 6.53671C8.5719 6.53238 8.48805 6.55208 8.41359 6.59372C8.33912 6.63536 8.27683 6.69737 8.23335 6.77317C8.18987 6.84896 8.16682 6.93568 8.16667 7.02411V14.9759C8.16682 15.0643 8.18987 15.151 8.23335 15.2268C8.27683 15.3026 8.33912 15.3646 8.41359 15.4063C8.48805 15.4479 8.5719 15.4676 8.65621 15.4633C8.74051 15.459 8.82212 15.4307 8.89233 15.3817L14.5845 11.407C14.6485 11.3624 14.701 11.3019 14.7373 11.2309C14.7736 11.1599 14.7926 11.0806 14.7926 11C14.7926 10.9194 14.7736 10.8401 14.7373 10.7691C14.701 10.6981 14.6485 10.6376 14.5845 10.593L8.89233 6.61833Z" fill="#2A2E32"/>
    <path d="M21 20.7863L22 20.7873V20.7863H21ZM19.8415 22V23H19.8426L19.8415 22ZM1.1585 22V21V22ZM0 20.7863H-1H0ZM8.89233 6.61833L8.31944 7.43796L8.31982 7.43823L8.89233 6.61833ZM8.16667 7.02411L7.16667 7.02235V7.02411H8.16667ZM8.16667 14.9759H7.16666L7.16667 14.9777L8.16667 14.9759ZM8.89233 15.3817L8.31982 14.5618L8.31944 14.562L8.89233 15.3817ZM14.5845 11.407L14.0126 10.5867L14.012 10.5871L14.5845 11.407ZM14.5845 10.593L14.012 11.4129L14.0126 11.4133L14.5845 10.593ZM1 1.21367C1 1.14015 1.02779 1.08287 1.06286 1.04614C1.09717 1.01019 1.1308 1 1.1585 1V-1C-0.0764481 -1 -1 0.0359536 -1 1.21367H1ZM1.1585 1H19.8415V-1H1.1585V1ZM19.8415 1C19.8692 1 19.9028 1.01019 19.9371 1.04614C19.9722 1.08287 20 1.14015 20 1.21367H22C22 0.0359536 21.0764 -1 19.8415 -1V1ZM20 1.21367V20.7863H22V1.21367H20ZM20 20.7854C19.9999 20.8569 19.9724 20.9166 19.937 20.9537L21.3837 22.3346C21.7827 21.9166 21.9995 21.3594 22 20.7873L20 20.7854ZM19.937 20.9537C19.9031 20.9892 19.8674 21 19.8404 21L19.8426 23C20.43 22.9994 20.9832 22.7542 21.3837 22.3346L19.937 20.9537ZM19.8415 21H1.1585V23H19.8415V21ZM1.1585 21C1.13187 21 1.09637 20.9893 1.06267 20.9541L-0.384039 22.335C0.01679 22.7549 0.570625 23 1.1585 23V21ZM1.06267 20.9541C1.02747 20.9172 1 20.8576 1 20.7863H-1C-1 21.3588 -0.783357 21.9167 -0.384039 22.335L1.06267 20.9541ZM1 20.7863V1.21367H-1V20.7863H1ZM9.46522 5.7987C9.24378 5.64392 8.98195 5.55214 8.70755 5.53803L8.60486 7.5354C8.49907 7.52996 8.40046 7.49459 8.31944 7.43796L9.46522 5.7987ZM8.70755 5.53803C8.43308 5.52392 8.16251 5.58839 7.92553 5.72091L8.90164 7.46653C8.81359 7.51577 8.71072 7.54084 8.60486 7.5354L8.70755 5.53803ZM7.92553 5.72091C7.68901 5.85317 7.49729 6.04663 7.36596 6.27554L9.10074 7.2708C9.05638 7.34812 8.98924 7.41755 8.90164 7.46653L7.92553 5.72091ZM7.36596 6.27554C7.2348 6.50415 7.16713 6.7621 7.16667 7.02235L9.16667 7.02588C9.16652 7.10927 9.14493 7.19377 9.10074 7.2708L7.36596 6.27554ZM7.16667 7.02411V14.9759H9.16667V7.02411H7.16667ZM7.16667 14.9777C7.16713 15.2379 7.2348 15.4959 7.36596 15.7245L9.10074 14.7292C9.14493 14.8062 9.16652 14.8907 9.16667 14.9741L7.16667 14.9777ZM7.36596 15.7245C7.49729 15.9534 7.68901 16.1468 7.92553 16.2791L8.90164 14.5335C8.98924 14.5825 9.05638 14.6519 9.10074 14.7292L7.36596 15.7245ZM7.92553 16.2791C8.16251 16.4116 8.43308 16.4761 8.70755 16.462L8.60486 14.4646C8.71072 14.4592 8.81359 14.4842 8.90164 14.5335L7.92553 16.2791ZM8.70755 16.462C8.98195 16.4479 9.24378 16.3561 9.46522 16.2013L8.31944 14.562C8.40046 14.5054 8.49907 14.47 8.60486 14.4646L8.70755 16.462ZM9.46484 16.2016L15.157 12.2269L14.012 10.5871L8.31982 14.5618L9.46484 16.2016ZM15.1564 12.2273C15.3579 12.0868 15.5184 11.8997 15.6277 11.6861L13.847 10.7756C13.8836 10.704 13.9391 10.6379 14.0126 10.5867L15.1564 12.2273ZM15.6277 11.6861C15.7368 11.4727 15.7926 11.2372 15.7926 11H13.7926C13.7926 10.9239 13.8105 10.847 13.847 10.7756L15.6277 11.6861ZM15.7926 11C15.7926 10.7628 15.7368 10.5273 15.6277 10.3139L13.847 11.2244C13.8105 11.153 13.7926 11.0761 13.7926 11H15.7926ZM15.6277 10.3139C15.5184 10.1003 15.3579 9.91318 15.1564 9.77269L14.0126 11.4133C13.9391 11.3621 13.8836 11.296 13.847 11.2244L15.6277 10.3139ZM15.157 9.7731L9.46484 5.79844L8.31982 7.43823L14.012 11.4129L15.157 9.7731Z" fill="#2A2E32" mask="url(#path-1-inside-1_2616_3734)"/>
</svg>
