<svg width="15" height="15" viewBox="0 0 15 15" fill="none" xmlns="http://www.w3.org/2000/svg">
    <path d="M6.38451 8.54336H1.05758C0.755718 8.54336 0.502866 8.44084 0.299023 8.2358C0.0951786 8.03076 -0.00709857 7.77731 -0.00780883 7.47544C-0.00851908 7.17358 0.0937581 6.92012 0.299023 6.71508C0.504287 6.51004 0.757139 6.40752 1.05758 6.40752H6.38451V1.06792C6.38451 0.765346 6.48679 0.511893 6.69134 0.307565C6.89589 0.103236 7.14875 0.000715629 7.44989 3.68248e-06C7.75104 -0.000708264 8.00425 0.101812 8.20952 0.307565C8.41478 0.513317 8.5167 0.76677 8.51528 1.06792V6.40752H13.8422C14.1441 6.40752 14.3973 6.51004 14.6018 6.71508C14.8064 6.92012 14.9083 7.17358 14.9076 7.47544C14.9069 7.77731 14.8046 8.03112 14.6008 8.23687C14.3969 8.44262 14.1441 8.54479 13.8422 8.54336H8.51528V13.883C8.51528 14.1855 8.413 14.4393 8.20845 14.6444C8.0039 14.8494 7.75104 14.9516 7.44989 14.9509C7.14875 14.9502 6.89589 14.8476 6.69134 14.6433C6.48679 14.439 6.38451 14.1855 6.38451 13.883V8.54336Z" fill="#454545"/>
</svg>
