<svg width="6" height="11" viewBox="0 0 7 13" fill="none" xmlns="http://www.w3.org/2000/svg">
    <path d="M6.50954 5.62617L0.852201 0.142609C0.757805 0.0510667 0.632394 -2.63781e-07 0.501979 -2.69481e-07C0.371564 -2.75182e-07 0.246154 0.0510667 0.151759 0.142609L0.145667 0.148805C0.0997476 0.193183 0.0631828 0.2466 0.0381966 0.305807C0.0132103 0.365014 0.000325184 0.428773 0.000325181 0.493205C0.000325179 0.557638 0.0132103 0.621397 0.0381965 0.680604C0.0631828 0.739811 0.0997476 0.793228 0.145667 0.837606L5.47309 6.00103L0.145667 11.1624C0.0997472 11.2068 0.0631823 11.2602 0.0381961 11.3194C0.0132098 11.3786 0.000324703 11.4424 0.0003247 11.5068C0.000324697 11.5712 0.0132098 11.635 0.0381961 11.6942C0.0631823 11.7534 0.0997471 11.8068 0.145667 11.8512L0.151758 11.8574C0.246154 11.9489 0.371564 12 0.501979 12C0.632394 12 0.757805 11.9489 0.8522 11.8574L6.50954 6.37383C6.5593 6.32561 6.59891 6.26761 6.62597 6.20335C6.65304 6.13909 6.66699 6.06991 6.66699 6C6.66699 5.93009 6.65304 5.86091 6.62597 5.79665C6.59891 5.73239 6.5593 5.67439 6.50954 5.62617Z" fill="#505050"></path>
</svg>
