<svg height="20" viewBox="0 0 24 24" fill="none" xmlns="http://www.w3.org/2000/svg">
    <path d="M16 8V5H8V8H6V3H18V8H16ZM18 12.5C18.2833 12.5 18.521 12.404 18.713 12.212C18.905 12.02 19.0007 11.7827 19 11.5C18.9993 11.2173 18.9033 10.98 18.712 10.788C18.5207 10.596 18.2833 10.5 18 10.5C17.7167 10.5 17.4793 10.596 17.288 10.788C17.0967 10.98 17.0007 11.2173 17 11.5C16.9993 11.7827 17.0953 12.0203 17.288 12.213C17.4807 12.4057 17.718 12.5013 18 12.5ZM16 19V15H8V19H16ZM18 21H6V17H2V8H22V17H18V21ZM20 15V10H4V15H6V13H18V15H20Z" fill="#646464"/>
</svg>
