<svg width="20" height="20" viewBox="0 0 20 20" fill="none" xmlns="http://www.w3.org/2000/svg">
<g id="Group 143727144">
<path id="Vector" d="M10 1C5.0293 1 1 5.0293 1 10C1 14.9707 5.0293 19 10 19C14.9707 19 19 14.9707 19 10C19 5.0293 14.9707 1 10 1Z" stroke="#372B2B" stroke-width="1.5" stroke-linecap="round" stroke-linejoin="round"/>
<path id="Vector_2" d="M3.04395 15.7115C3.04395 15.7115 5.05005 13.1501 10 13.1501C14.95 13.1501 16.957 15.7115 16.957 15.7115M10 10.0001C10.7161 10.0001 11.4029 9.71563 11.9092 9.20929C12.4156 8.70294 12.7 8.01618 12.7 7.3001C12.7 6.58401 12.4156 5.89726 11.9092 5.39091C11.4029 4.88456 10.7161 4.6001 10 4.6001C9.28396 4.6001 8.5972 4.88456 8.09086 5.39091C7.58451 5.89726 7.30005 6.58401 7.30005 7.3001C7.30005 8.01618 7.58451 8.70294 8.09086 9.20929C8.5972 9.71563 9.28396 10.0001 10 10.0001Z" stroke="#372B2B" stroke-width="1.5" stroke-linecap="round" stroke-linejoin="round"/>
</g>
</svg>
