<svg width="22" height="29" viewBox="0 0 22 29" fill="none" xmlns="http://www.w3.org/2000/svg">
<path d="M6.54336 3.48998C6.56961 6.08479 6.55211 6.49858 6.42964 6.67962L6.29842 6.88651H3.14921H0V17.4468V28.0071H9.97251H19.945V27.4295V26.8433L18.7553 25.6709L17.5656 24.4899L17.0232 24.533C16.0872 24.6019 15.5973 24.1019 15.6848 23.1709C15.7198 22.7657 15.7023 22.645 15.5799 22.5416C15.3787 22.3606 15.3874 22.3606 14.8975 22.645C14.2677 23.0157 13.2442 23.4037 12.4656 23.5761C11.6171 23.7743 9.67508 23.7916 8.87903 23.6192C5.35366 22.8519 2.74681 20.2485 2.00325 16.7571C1.81955 15.9123 1.86328 14.1279 2.08198 13.2399C2.48438 11.6451 3.2017 10.3693 4.36516 9.18822C7.82054 5.67962 13.4191 5.70549 16.857 9.23995C17.9942 10.4124 18.6416 11.5589 19.0352 13.0589C19.5689 15.1537 19.3239 17.1968 18.3092 19.1537C17.9243 19.8864 17.9155 19.9123 18.0642 20.0847C18.1954 20.2226 18.2917 20.2399 18.6241 20.1968C19.0702 20.1451 19.4464 20.2485 19.7526 20.5244L19.945 20.7054V10.6106V0.50724H13.2354H6.51712L6.54336 3.48998Z" fill="#7F7F7F"/>
<path d="M3.10564 3.60893L0.65625 6.02271H3.13188H5.59876V3.60893C5.59876 2.28135 5.59002 1.19515 5.57252 1.19515C5.56377 1.19515 4.4528 2.28135 3.10564 3.60893Z" fill="#7F7F7F"/>
<path d="M9.01011 7.65299C7.11183 8.05816 5.34477 9.18747 4.24255 10.7219C1.79316 14.1271 2.54547 18.834 5.94837 21.3426C7.19056 22.265 8.59021 22.7391 10.2435 22.8081C11.9581 22.8857 13.244 22.5667 14.6699 21.7133C15.0636 21.4719 15.431 21.2822 15.4835 21.2822C15.536 21.2822 15.7634 21.4546 15.9996 21.6702L16.4108 22.0495L16.9969 21.4719L17.583 20.8857L17.2331 20.5495C17.0406 20.3684 16.8656 20.1443 16.8307 20.0581C16.8044 19.9633 16.9356 19.6615 17.1806 19.2736C17.9591 18.0064 18.2653 17.0495 18.344 15.6185C18.4752 13.2736 17.6704 11.265 15.9471 9.63574C14.1013 7.88575 11.4857 7.13575 9.01011 7.65299ZM11.8794 9.09264C13.1916 9.35126 14.5125 10.1357 15.4485 11.2133C15.9734 11.8168 16.5945 13.0668 16.7607 13.8685C16.9706 14.834 16.8919 16.2133 16.5857 17.1012C15.9296 19.0064 14.4425 20.4719 12.5355 21.0839C11.547 21.4029 10.1036 21.4546 9.11508 21.2133C7.27804 20.7564 5.8434 19.6357 4.96862 17.9805C4.55747 17.2133 4.36502 16.4805 4.31253 15.4978C4.2513 14.3254 4.41751 13.515 4.95987 12.403C5.30104 11.7047 5.47599 11.4806 6.15832 10.8081C7.16432 9.81677 8.13533 9.30815 9.45625 9.04953C10.0861 8.92885 11.1533 8.94609 11.8794 9.09264Z" fill="#7F7F7F"/>
<path d="M9.14166 10.0671C7.33086 10.5844 5.85248 12.0671 5.37135 13.8516C5.1964 14.4981 5.1964 15.8343 5.3801 16.4981C6.07993 19.0929 8.68678 20.8257 11.2849 20.4291C14.0142 20.0067 15.93 17.8774 15.9475 15.2481C15.9562 13.6964 15.4926 12.5844 14.3903 11.4895C13.6293 10.7223 12.8682 10.2826 11.9235 10.0413C11.2061 9.86023 9.82399 9.86886 9.14166 10.0671ZM13.8567 12.7999C14.0842 13.024 14.0142 13.2568 13.5768 13.7223C9.91147 17.6274 9.87648 17.6619 9.62279 17.6619C9.42159 17.6619 9.19415 17.455 8.30187 16.4981C7.70702 15.8516 7.2084 15.2568 7.1909 15.1619C7.15591 14.9723 7.46208 14.6447 7.66328 14.6447C7.80325 14.6447 7.9957 14.8257 9.08917 15.9636L9.64903 16.5585L9.88523 16.3085C10.0164 16.1792 10.8387 15.2999 11.7135 14.3602C13.3756 12.6016 13.5418 12.4809 13.8567 12.7999Z" fill="#7F7F7F"/>
<path d="M17.6004 22.1702C17.0143 22.7564 16.5332 23.2823 16.5332 23.334C16.5332 23.4374 16.7694 23.696 16.8656 23.696C16.9006 23.696 17.4342 23.196 18.0553 22.584C19.21 21.4374 19.3587 21.1788 18.8951 21.1271C18.7114 21.1099 18.4752 21.2995 17.6004 22.1702Z" fill="#7F7F7F"/>
<path d="M18.7465 23.2565L18.2041 23.8341L19.4463 25.0496C20.1286 25.7134 20.776 26.3082 20.8897 26.3685C21.467 26.653 22.1844 25.9806 21.9569 25.3686C21.8694 25.1444 19.4463 22.6444 19.3326 22.6703C19.3063 22.6789 19.0439 22.9375 18.7465 23.2565Z" fill="#7F7F7F"/>
</svg>
