<svg width="182" height="38" viewBox="0 0 182 38" fill="none" xmlns="http://www.w3.org/2000/svg">
<g filter="url(#filter0_d_501_14258)">
<rect x="4" y="4" width="174" height="30" rx="6" fill="#511A53" fill-opacity="0.06" shape-rendering="crispEdges"/>
<rect x="4.25" y="4.25" width="173.5" height="29.5" rx="5.75" stroke="#DBDBDB" stroke-width="0.5" shape-rendering="crispEdges"/>
<path d="M31.9231 11.5C31.7072 11.5 31.5016 11.5978 31.3288 11.7705L30.9152 12.1659L33.3446 14.5935L33.7408 14.1802C34.0864 13.8349 34.0864 13.3204 33.7408 12.9751L32.5348 11.7699C32.362 11.5973 32.1391 11.5 31.9231 11.5ZM30.519 12.5078L29.8889 13.0298L32.4807 15.6196L33.0566 15.0441L30.519 12.5078ZM29.5468 13.443L24.346 18.5871C24.3197 18.6088 24.2954 18.6329 24.2734 18.659L24.2377 18.6768C24.1749 18.7488 24.1315 18.8355 24.1116 18.9289L23.4095 21.3928C23.3794 21.4903 23.3765 21.5942 23.4011 21.6932C23.4257 21.7923 23.4769 21.8827 23.5491 21.9549C23.6213 22.027 23.7118 22.0782 23.8109 22.1027C23.9101 22.1273 24.014 22.1244 24.1116 22.0943L26.5772 21.3928C26.6591 21.3734 26.7355 21.3358 26.8009 21.2829C26.8663 21.23 26.919 21.1631 26.955 21.0872L32.0671 16.0329L31.0949 14.9894V15.0435L30.4107 14.3598H30.4648L29.5468 13.443ZM19.4683 13.8384C19.3349 13.8637 19.2147 13.9354 19.1291 14.0407C19.0434 14.146 18.9977 14.2782 19.0001 14.4139V25.9245C19.0001 26.0771 19.0608 26.2235 19.1688 26.3314C19.2768 26.4394 19.4233 26.5 19.576 26.5H31.0949C31.2477 26.5 31.3942 26.4394 31.5022 26.3314C31.6102 26.2235 31.6709 26.0771 31.6709 25.9245V19.5937C31.6709 19.441 31.6102 19.2946 31.5022 19.1867C31.3942 19.0788 31.2477 19.0181 31.0949 19.0181C30.9422 19.0181 30.7957 19.0788 30.6877 19.1867C30.5797 19.2946 30.519 19.441 30.519 19.5937V25.3489H20.152V14.9894H25.9114C26.0642 14.9894 26.2107 14.9288 26.3187 14.8209C26.4267 14.7129 26.4874 14.5665 26.4874 14.4139C26.4874 14.2613 26.4267 14.1149 26.3187 14.0069C26.2107 13.899 26.0642 13.8384 25.9114 13.8384H19.576C19.558 13.8375 19.5399 13.8375 19.5219 13.8384C19.5039 13.8375 19.4858 13.8375 19.4678 13.8384H19.4683ZM24.868 20.6544L24.346 21.0872L24.8818 20.6934L24.868 20.6544Z" fill="#A42E70"/>
<path d="M49.148 23L47.3 19.736H46.508V23H44.828V14.624H47.972C48.62 14.624 49.172 14.74 49.628 14.972C50.084 15.196 50.424 15.504 50.648 15.896C50.88 16.28 50.996 16.712 50.996 17.192C50.996 17.744 50.836 18.244 50.516 18.692C50.196 19.132 49.72 19.436 49.088 19.604L51.092 23H49.148ZM46.508 18.476H47.912C48.368 18.476 48.708 18.368 48.932 18.152C49.156 17.928 49.268 17.62 49.268 17.228C49.268 16.844 49.156 16.548 48.932 16.34C48.708 16.124 48.368 16.016 47.912 16.016H46.508V18.476ZM58.6955 19.532C58.6955 19.772 58.6795 19.988 58.6475 20.18H53.7875C53.8275 20.66 53.9955 21.036 54.2915 21.308C54.5875 21.58 54.9515 21.716 55.3835 21.716C56.0075 21.716 56.4515 21.448 56.7155 20.912H58.5275C58.3355 21.552 57.9675 22.08 57.4235 22.496C56.8795 22.904 56.2115 23.108 55.4195 23.108C54.7795 23.108 54.2035 22.968 53.6915 22.688C53.1875 22.4 52.7915 21.996 52.5035 21.476C52.2235 20.956 52.0835 20.356 52.0835 19.676C52.0835 18.988 52.2235 18.384 52.5035 17.864C52.7835 17.344 53.1755 16.944 53.6795 16.664C54.1835 16.384 54.7635 16.244 55.4195 16.244C56.0515 16.244 56.6155 16.38 57.1115 16.652C57.6155 16.924 58.0035 17.312 58.2755 17.816C58.5555 18.312 58.6955 18.884 58.6955 19.532ZM56.9555 19.052C56.9475 18.62 56.7915 18.276 56.4875 18.02C56.1835 17.756 55.8115 17.624 55.3715 17.624C54.9555 17.624 54.6035 17.752 54.3155 18.008C54.0355 18.256 53.8635 18.604 53.7995 19.052H56.9555ZM59.4897 19.676C59.4897 18.988 59.6298 18.388 59.9098 17.876C60.1898 17.356 60.5778 16.956 61.0738 16.676C61.5698 16.388 62.1378 16.244 62.7778 16.244C63.6018 16.244 64.2818 16.452 64.8178 16.868C65.3618 17.276 65.7258 17.852 65.9098 18.596H64.0978C64.0018 18.308 63.8378 18.084 63.6058 17.924C63.3818 17.756 63.1018 17.672 62.7658 17.672C62.2858 17.672 61.9058 17.848 61.6258 18.2C61.3458 18.544 61.2058 19.036 61.2058 19.676C61.2058 20.308 61.3458 20.8 61.6258 21.152C61.9058 21.496 62.2858 21.668 62.7658 21.668C63.4458 21.668 63.8898 21.364 64.0978 20.756H65.9098C65.7258 21.476 65.3618 22.048 64.8178 22.472C64.2738 22.896 63.5938 23.108 62.7778 23.108C62.1378 23.108 61.5698 22.968 61.0738 22.688C60.5778 22.4 60.1898 22 59.9098 21.488C59.6298 20.968 59.4897 20.364 59.4897 19.676ZM68.8205 17.384C69.0365 17.032 69.3165 16.756 69.6605 16.556C70.0125 16.356 70.4125 16.256 70.8605 16.256V18.02H70.4165C69.8885 18.02 69.4885 18.144 69.2165 18.392C68.9525 18.64 68.8205 19.072 68.8205 19.688V23H67.1405V16.352H68.8205V17.384ZM78.1721 19.532C78.1721 19.772 78.1561 19.988 78.1241 20.18H73.2641C73.3041 20.66 73.4721 21.036 73.7681 21.308C74.0641 21.58 74.4281 21.716 74.8601 21.716C75.4841 21.716 75.9281 21.448 76.1921 20.912H78.0041C77.8121 21.552 77.4441 22.08 76.9001 22.496C76.3561 22.904 75.6881 23.108 74.8961 23.108C74.2561 23.108 73.6801 22.968 73.1681 22.688C72.6641 22.4 72.2681 21.996 71.9801 21.476C71.7001 20.956 71.5601 20.356 71.5601 19.676C71.5601 18.988 71.7001 18.384 71.9801 17.864C72.2601 17.344 72.6521 16.944 73.1561 16.664C73.6601 16.384 74.2401 16.244 74.8961 16.244C75.5281 16.244 76.0921 16.38 76.5881 16.652C77.0921 16.924 77.4801 17.312 77.7521 17.816C78.0321 18.312 78.1721 18.884 78.1721 19.532ZM76.4321 19.052C76.4241 18.62 76.2681 18.276 75.9641 18.02C75.6601 17.756 75.2881 17.624 74.8481 17.624C74.4321 17.624 74.0801 17.752 73.7921 18.008C73.5121 18.256 73.3401 18.604 73.2761 19.052H76.4321ZM78.9663 19.652C78.9663 18.98 79.0983 18.384 79.3623 17.864C79.6343 17.344 79.9983 16.944 80.4543 16.664C80.9183 16.384 81.4343 16.244 82.0023 16.244C82.4983 16.244 82.9303 16.344 83.2983 16.544C83.6743 16.744 83.9743 16.996 84.1983 17.3V16.352H85.8903V23H84.1983V22.028C83.9823 22.34 83.6823 22.6 83.2983 22.808C82.9223 23.008 82.4863 23.108 81.9903 23.108C81.4303 23.108 80.9183 22.964 80.4543 22.676C79.9983 22.388 79.6343 21.984 79.3623 21.464C79.0983 20.936 78.9663 20.332 78.9663 19.652ZM84.1983 19.676C84.1983 19.268 84.1183 18.92 83.9583 18.632C83.7983 18.336 83.5823 18.112 83.3103 17.96C83.0383 17.8 82.7463 17.72 82.4343 17.72C82.1223 17.72 81.8343 17.796 81.5703 17.948C81.3063 18.1 81.0903 18.324 80.9223 18.62C80.7623 18.908 80.6823 19.252 80.6823 19.652C80.6823 20.052 80.7623 20.404 80.9223 20.708C81.0903 21.004 81.3063 21.232 81.5703 21.392C81.8423 21.552 82.1303 21.632 82.4343 21.632C82.7463 21.632 83.0383 21.556 83.3103 21.404C83.5823 21.244 83.7983 21.02 83.9583 20.732C84.1183 20.436 84.1983 20.084 84.1983 19.676ZM89.4871 17.732V20.948C89.4871 21.172 89.5391 21.336 89.6431 21.44C89.7551 21.536 89.9391 21.584 90.1951 21.584H90.9751V23H89.9191C88.5031 23 87.7951 22.312 87.7951 20.936V17.732H87.0031V16.352H87.7951V14.708H89.4871V16.352H90.9751V17.732H89.4871ZM98.3635 19.532C98.3635 19.772 98.3475 19.988 98.3155 20.18H93.4555C93.4955 20.66 93.6635 21.036 93.9595 21.308C94.2555 21.58 94.6195 21.716 95.0515 21.716C95.6755 21.716 96.1195 21.448 96.3835 20.912H98.1955C98.0035 21.552 97.6355 22.08 97.0915 22.496C96.5475 22.904 95.8795 23.108 95.0875 23.108C94.4475 23.108 93.8715 22.968 93.3595 22.688C92.8555 22.4 92.4595 21.996 92.1715 21.476C91.8915 20.956 91.7515 20.356 91.7515 19.676C91.7515 18.988 91.8915 18.384 92.1715 17.864C92.4515 17.344 92.8435 16.944 93.3475 16.664C93.8515 16.384 94.4315 16.244 95.0875 16.244C95.7195 16.244 96.2835 16.38 96.7795 16.652C97.2835 16.924 97.6715 17.312 97.9435 17.816C98.2235 18.312 98.3635 18.884 98.3635 19.532ZM96.6235 19.052C96.6155 18.62 96.4595 18.276 96.1555 18.02C95.8515 17.756 95.4795 17.624 95.0395 17.624C94.6235 17.624 94.2715 17.752 93.9835 18.008C93.7035 18.256 93.5315 18.604 93.4675 19.052H96.6235ZM105.341 23.084C104.757 23.084 104.229 22.984 103.757 22.784C103.293 22.584 102.925 22.296 102.653 21.92C102.381 21.544 102.241 21.1 102.233 20.588H104.033C104.057 20.932 104.177 21.204 104.393 21.404C104.617 21.604 104.921 21.704 105.305 21.704C105.697 21.704 106.005 21.612 106.229 21.428C106.453 21.236 106.565 20.988 106.565 20.684C106.565 20.436 106.489 20.232 106.337 20.072C106.185 19.912 105.993 19.788 105.761 19.7C105.537 19.604 105.225 19.5 104.825 19.388C104.281 19.228 103.837 19.072 103.493 18.92C103.157 18.76 102.865 18.524 102.617 18.212C102.377 17.892 102.257 17.468 102.257 16.94C102.257 16.444 102.381 16.012 102.629 15.644C102.877 15.276 103.225 14.996 103.673 14.804C104.121 14.604 104.633 14.504 105.209 14.504C106.073 14.504 106.773 14.716 107.309 15.14C107.853 15.556 108.153 16.14 108.209 16.892H106.361C106.345 16.604 106.221 16.368 105.989 16.184C105.765 15.992 105.465 15.896 105.089 15.896C104.761 15.896 104.497 15.98 104.297 16.148C104.105 16.316 104.009 16.56 104.009 16.88C104.009 17.104 104.081 17.292 104.225 17.444C104.377 17.588 104.561 17.708 104.777 17.804C105.001 17.892 105.313 17.996 105.713 18.116C106.257 18.276 106.701 18.436 107.045 18.596C107.389 18.756 107.685 18.996 107.933 19.316C108.181 19.636 108.305 20.056 108.305 20.576C108.305 21.024 108.189 21.44 107.957 21.824C107.725 22.208 107.385 22.516 106.937 22.748C106.489 22.972 105.957 23.084 105.341 23.084ZM116.038 16.352V23H114.346V22.16C114.13 22.448 113.846 22.676 113.494 22.844C113.15 23.004 112.774 23.084 112.366 23.084C111.846 23.084 111.386 22.976 110.986 22.76C110.586 22.536 110.27 22.212 110.038 21.788C109.814 21.356 109.702 20.844 109.702 20.252V16.352H111.382V20.012C111.382 20.54 111.514 20.948 111.778 21.236C112.042 21.516 112.402 21.656 112.858 21.656C113.322 21.656 113.686 21.516 113.95 21.236C114.214 20.948 114.346 20.54 114.346 20.012V16.352H116.038ZM125.951 16.256C126.767 16.256 127.423 16.508 127.919 17.012C128.423 17.508 128.675 18.204 128.675 19.1V23H126.995V19.328C126.995 18.808 126.863 18.412 126.599 18.14C126.335 17.86 125.975 17.72 125.519 17.72C125.063 17.72 124.699 17.86 124.427 18.14C124.163 18.412 124.031 18.808 124.031 19.328V23H122.351V19.328C122.351 18.808 122.219 18.412 121.955 18.14C121.691 17.86 121.331 17.72 120.875 17.72C120.411 17.72 120.043 17.86 119.771 18.14C119.507 18.412 119.375 18.808 119.375 19.328V23H117.695V16.352H119.375V17.156C119.591 16.876 119.867 16.656 120.203 16.496C120.547 16.336 120.923 16.256 121.331 16.256C121.851 16.256 122.315 16.368 122.723 16.592C123.131 16.808 123.447 17.12 123.671 17.528C123.887 17.144 124.199 16.836 124.607 16.604C125.023 16.372 125.471 16.256 125.951 16.256ZM138.525 16.256C139.341 16.256 139.997 16.508 140.493 17.012C140.997 17.508 141.249 18.204 141.249 19.1V23H139.569V19.328C139.569 18.808 139.437 18.412 139.173 18.14C138.909 17.86 138.549 17.72 138.093 17.72C137.637 17.72 137.273 17.86 137.001 18.14C136.737 18.412 136.605 18.808 136.605 19.328V23H134.925V19.328C134.925 18.808 134.793 18.412 134.529 18.14C134.265 17.86 133.905 17.72 133.449 17.72C132.985 17.72 132.617 17.86 132.345 18.14C132.081 18.412 131.949 18.808 131.949 19.328V23H130.269V16.352H131.949V17.156C132.165 16.876 132.441 16.656 132.777 16.496C133.121 16.336 133.497 16.256 133.905 16.256C134.425 16.256 134.889 16.368 135.297 16.592C135.705 16.808 136.021 17.12 136.245 17.528C136.461 17.144 136.773 16.836 137.181 16.604C137.597 16.372 138.045 16.256 138.525 16.256ZM142.412 19.652C142.412 18.98 142.544 18.384 142.808 17.864C143.08 17.344 143.444 16.944 143.9 16.664C144.364 16.384 144.88 16.244 145.448 16.244C145.944 16.244 146.376 16.344 146.744 16.544C147.12 16.744 147.42 16.996 147.644 17.3V16.352H149.336V23H147.644V22.028C147.428 22.34 147.128 22.6 146.744 22.808C146.368 23.008 145.932 23.108 145.436 23.108C144.876 23.108 144.364 22.964 143.9 22.676C143.444 22.388 143.08 21.984 142.808 21.464C142.544 20.936 142.412 20.332 142.412 19.652ZM147.644 19.676C147.644 19.268 147.564 18.92 147.404 18.632C147.244 18.336 147.028 18.112 146.756 17.96C146.484 17.8 146.192 17.72 145.88 17.72C145.568 17.72 145.28 17.796 145.016 17.948C144.752 18.1 144.536 18.324 144.368 18.62C144.208 18.908 144.128 19.252 144.128 19.652C144.128 20.052 144.208 20.404 144.368 20.708C144.536 21.004 144.752 21.232 145.016 21.392C145.288 21.552 145.576 21.632 145.88 21.632C146.192 21.632 146.484 21.556 146.756 21.404C147.028 21.244 147.244 21.02 147.404 20.732C147.564 20.436 147.644 20.084 147.644 19.676ZM152.656 17.384C152.872 17.032 153.152 16.756 153.496 16.556C153.848 16.356 154.248 16.256 154.696 16.256V18.02H154.252C153.724 18.02 153.324 18.144 153.052 18.392C152.788 18.64 152.656 19.072 152.656 19.688V23H150.976V16.352H152.656V17.384ZM162.188 16.352L158.072 26.144H156.284L157.724 22.832L155.06 16.352H156.944L158.66 20.996L160.4 16.352H162.188Z" fill="#A42E70"/>
</g>
<defs>
<filter id="filter0_d_501_14258" x="0" y="0" width="182" height="38" filterUnits="userSpaceOnUse" color-interpolation-filters="sRGB">
<feFlood flood-opacity="0" result="BackgroundImageFix"/>
<feColorMatrix in="SourceAlpha" type="matrix" values="0 0 0 0 0 0 0 0 0 0 0 0 0 0 0 0 0 0 127 0" result="hardAlpha"/>
<feOffset/>
<feGaussianBlur stdDeviation="2"/>
<feComposite in2="hardAlpha" operator="out"/>
<feColorMatrix type="matrix" values="0 0 0 0 0 0 0 0 0 0 0 0 0 0 0 0 0 0 0.02 0"/>
<feBlend mode="normal" in2="BackgroundImageFix" result="effect1_dropShadow_501_14258"/>
<feBlend mode="normal" in="SourceGraphic" in2="effect1_dropShadow_501_14258" result="shape"/>
</filter>
</defs>
</svg>
