<?xml version="1.0" encoding="UTF-8"?>
<svg xmlns="http://www.w3.org/2000/svg" xmlns:xlink="http://www.w3.org/1999/xlink" width="20px" height="20px" viewBox="0 0 20 20" version="1.1">
<g id="surface1">
<path style=" stroke:none;fill-rule:evenodd;fill:rgb(0%,0%,0%);fill-opacity:1;" d="M 9.253906 3.800781 L 6.394531 6.65625 L 5.449219 5.722656 L 7.175781 3.988281 L 3.175781 3.988281 C 2.070312 3.988281 1.175781 4.886719 1.175781 5.988281 C 1.175781 7.09375 2.070312 7.988281 3.175781 7.988281 L 3.917969 7.988281 L 3.917969 9.324219 L 3.183594 9.324219 C 1.40625 9.238281 0.0078125 7.773438 0.0078125 5.992188 C 0.0078125 4.214844 1.40625 2.75 3.183594 2.664062 L 7.183594 2.664062 L 5.449219 0.941406 L 6.394531 0 L 9.253906 2.859375 Z M 13.851562 20 L 5.851562 20 L 5.183594 19.332031 L 5.183594 8.675781 L 5.851562 8.011719 L 13.851562 8.011719 L 14.515625 8.675781 L 14.515625 19.332031 Z M 6.515625 18.667969 L 13.183594 18.667969 L 13.183594 9.34375 L 6.515625 9.34375 Z M 11.183594 1.335938 L 19.183594 1.335938 L 19.851562 2 L 19.851562 12.65625 L 19.183594 13.324219 L 15.851562 13.324219 L 15.851562 11.988281 L 18.515625 11.988281 L 18.515625 2.667969 L 11.851562 2.667969 L 11.851562 6.65625 L 10.515625 6.65625 L 10.515625 2 Z M 11.851562 10.65625 L 7.851562 10.65625 L 7.851562 11.988281 L 11.851562 11.988281 Z M 7.851562 13.324219 L 11.851562 13.324219 L 11.851562 14.65625 L 7.851562 14.65625 Z M 11.851562 15.988281 L 7.851562 15.988281 L 7.851562 17.324219 L 11.851562 17.324219 Z M 13.183594 3.988281 L 17.183594 3.988281 L 17.183594 5.324219 L 13.183594 5.324219 Z M 17.183594 9.324219 L 15.851562 9.324219 L 15.851562 10.65625 L 17.183594 10.65625 Z M 14.402344 6.675781 L 14.402344 6.65625 L 17.183594 6.65625 L 17.183594 7.988281 L 15.714844 7.988281 Z M 14.402344 6.675781 "/>
</g>
</svg>
