<svg width="15" height="12" viewBox="0 0 15 12" fill="none" xmlns="http://www.w3.org/2000/svg">
<g id="Group 143727018">
<path id="Vector" d="M14.1465 11.6074C13.9047 11.6074 13.7021 11.5255 13.5388 11.3616C13.375 11.1983 13.293 10.9957 13.293 10.7539V8.19346C13.293 7.48222 13.0441 6.87767 12.5462 6.3798C12.0484 5.88193 11.4438 5.633 10.7326 5.633H2.88051L5.37696 8.12944C5.53343 8.28592 5.61166 8.47795 5.61166 8.70555C5.61166 8.93314 5.52632 9.13229 5.35562 9.30299C5.19915 9.45946 5 9.5377 4.75818 9.5377C4.51636 9.5377 4.31721 9.45946 4.16074 9.30299L0.234708 5.37696C0.14936 5.29161 0.0890469 5.19915 0.0537695 5.09957C0.0179232 5 0 4.89331 0 4.77952C0 4.66572 0.0179232 4.55903 0.0537695 4.45946C0.0890469 4.35989 0.14936 4.26743 0.234708 4.18208L4.18208 0.234708C4.33855 0.0782362 4.53058 0 4.75818 0C4.98578 0 5.18492 0.0853483 5.35562 0.256045C5.51209 0.412518 5.59033 0.611664 5.59033 0.853485C5.59033 1.09531 5.51209 1.29445 5.35562 1.45092L2.88051 3.92603H10.7326C11.9132 3.92603 12.9198 4.34196 13.7522 5.17383C14.5841 6.00626 15 7.0128 15 8.19346V10.7539C15 10.9957 14.9181 11.1983 14.7542 11.3616C14.5909 11.5255 14.3883 11.6074 14.1465 11.6074Z" fill="#828282"/>
</g>
</svg>
