<svg width="323" height="51" viewBox="0 0 323 51" fill="none" xmlns="http://www.w3.org/2000/svg">
<g filter="url(#filter0_d_98_442)">
<path fill-rule="evenodd" clip-rule="evenodd" d="M27.7328 4C21.6577 4 16.7328 8.92487 16.7328 15V26.5762C16.2046 30.0985 15.2192 34.8639 13.4799 38.1558C10.6744 43.4657 4.80542 46.8303 4.80542 46.8303C12.2398 46.3176 22.9729 43.4776 32.5547 40.8666H307.171C313.247 40.8666 318.171 35.9417 318.171 29.8666V15C318.171 8.92487 313.247 4 307.171 4H27.7328Z" fill="#E7F3F3"/>
</g>
<path d="M34.2039 26.8025V20.0525H31.9539V18.9275H38.7039V20.0525H36.4539V26.8025H34.2039ZM39.8289 26.8025V18.9275H42.0789V21.1775H46.5789V22.3025H47.7039V26.8025H45.4539V22.3025H42.0789V26.8025H39.8289ZM52.2039 20.0525V18.9275H54.4539V20.0525H52.2039ZM49.9539 26.8025V25.6775H52.2039V22.3025H51.0789V21.1775H54.4539V25.6775H56.7039V26.8025H49.9539ZM57.8289 26.8025V25.6775H63.4539V24.5525H58.9539V23.4275H57.8289V22.3025H58.9539V21.1775H64.5789V22.3025H60.0789V23.4275H64.5789V24.5525H65.7039V25.6775H64.5789V26.8025H57.8289ZM75.8289 27.9275V21.1775H82.5789V22.3025H83.7039V24.5525H82.5789V25.6775H78.0789V27.9275H75.8289ZM78.0789 24.5525H81.4539V22.3025H78.0789V24.5525ZM85.9539 26.8025V25.6775H84.8289V22.3025H85.9539V21.1775H91.5789V22.3025H92.7039V25.6775H91.5789V26.8025H85.9539ZM87.0789 25.6775H90.4539V22.3025H87.0789V25.6775ZM93.8289 26.8025V25.6775H99.4539V24.5525H94.9539V23.4275H93.8289V22.3025H94.9539V21.1775H100.579V22.3025H96.0789V23.4275H100.579V24.5525H101.704V25.6775H100.579V26.8025H93.8289ZM106.204 26.8025V22.3025H103.954V21.1775H106.204V18.9275H108.454V21.1775H110.704V22.3025H108.454V26.8025H106.204ZM123.079 25.6775H124.204V26.8025H121.954V25.6775H120.829V21.1775H123.079V25.6775ZM125.329 21.1775V25.6775H124.204V21.1775H125.329ZM128.704 21.1775V25.6775H127.579V26.8025H125.329V25.6775H126.454V21.1775H128.704ZM133.204 20.0525V18.9275H135.454V20.0525H133.204ZM130.954 26.8025V25.6775H133.204V22.3025H132.079V21.1775H135.454V25.6775H137.704V26.8025H130.954ZM139.954 26.8025V25.6775H142.204V20.0525H141.079V18.9275H144.454V25.6775H146.704V26.8025H139.954ZM148.954 26.8025V25.6775H151.204V20.0525H150.079V18.9275H153.454V25.6775H155.704V26.8025H148.954ZM166.954 26.8025V25.6775H165.829V18.9275H168.079V21.1775H172.579V22.3025H173.704V25.6775H172.579V26.8025H166.954ZM168.079 25.6775H171.454V22.3025H168.079V25.6775ZM175.954 26.8025V25.6775H174.829V22.3025H175.954V21.1775H181.579V22.3025H182.704V24.5525H177.079V25.6775H181.579V26.8025H175.954ZM177.079 23.4275H180.454V22.3025H177.079V23.4275ZM193.954 26.8025V25.6775H192.829V24.5525H193.954V23.4275H198.454V22.3025H193.954V21.1775H199.579V22.3025H200.704V26.8025H193.954ZM195.079 25.6775H198.454V24.5525H195.079V25.6775ZM210.829 26.8025V25.6775H216.454V24.5525H211.954V23.4275H210.829V22.3025H211.954V21.1775H217.579V22.3025H213.079V23.4275H217.579V24.5525H218.704V25.6775H217.579V26.8025H210.829ZM220.954 26.8025V25.6775H219.829V21.1775H222.079V25.6775H225.454V21.1775H227.704V26.8025H220.954ZM229.954 26.8025V25.6775H228.829V22.3025H229.954V21.1775H236.704V22.3025H231.079V25.6775H236.704V26.8025H229.954ZM238.954 26.8025V25.6775H237.829V22.3025H238.954V21.1775H245.704V22.3025H240.079V25.6775H245.704V26.8025H238.954ZM247.954 26.8025V25.6775H246.829V22.3025H247.954V21.1775H253.579V22.3025H254.704V24.5525H249.079V25.6775H253.579V26.8025H247.954ZM249.079 23.4275H252.454V22.3025H249.079V23.4275ZM255.829 26.8025V25.6775H261.454V24.5525H256.954V23.4275H255.829V22.3025H256.954V21.1775H262.579V22.3025H258.079V23.4275H262.579V24.5525H263.704V25.6775H262.579V26.8025H255.829ZM264.829 26.8025V25.6775H270.454V24.5525H265.954V23.4275H264.829V22.3025H265.954V21.1775H271.579V22.3025H267.079V23.4275H271.579V24.5525H272.704V25.6775H271.579V26.8025H264.829ZM276.079 24.5525V18.9275H279.454V22.3025H278.329V24.5525H276.079ZM276.079 26.8025V25.6775H278.329V26.8025H276.079Z" fill="#0BC3EE"/>
<defs>
<filter id="filter0_d_98_442" x="0.80542" y="0" width="321.366" height="50.8303" filterUnits="userSpaceOnUse" color-interpolation-filters="sRGB">
<feFlood flood-opacity="0" result="BackgroundImageFix"/>
<feColorMatrix in="SourceAlpha" type="matrix" values="0 0 0 0 0 0 0 0 0 0 0 0 0 0 0 0 0 0 127 0" result="hardAlpha"/>
<feOffset/>
<feGaussianBlur stdDeviation="2"/>
<feComposite in2="hardAlpha" operator="out"/>
<feColorMatrix type="matrix" values="0 0 0 0 0.258824 0 0 0 0 0.619608 0 0 0 0 0.615686 0 0 0 0.34 0"/>
<feBlend mode="normal" in2="BackgroundImageFix" result="effect1_dropShadow_98_442"/>
<feBlend mode="normal" in="SourceGraphic" in2="effect1_dropShadow_98_442" result="shape"/>
</filter>
</defs>
</svg>
