<svg width="44" height="58" viewBox="0 0 44 58" fill="none" xmlns="http://www.w3.org/2000/svg">
<path d="M27.2061 1.53487C26.4529 1.15826 25.5946 1.06347 24.7697 0.955871C24.712 0.981491 24.598 1.03145 24.5404 1.05707C23.9242 1.32095 23.2364 1.11599 22.5882 1.15826C21.9797 1.11471 21.3303 1.31967 20.7538 1.06091C20.6975 1.03401 20.5873 0.98149 20.5322 0.95459C19.6471 1.08525 18.6812 1.13905 17.9165 1.6476C17.2312 2.12284 17.0365 2.96828 16.7329 3.69459C15.0369 4.15318 13.378 4.78214 11.8677 5.69035C10.2652 6.64211 8.85232 7.92052 7.76605 9.43719C7.48936 9.80995 7.278 10.2275 6.99235 10.5952C6.83223 9.12335 6.81429 7.6387 6.71053 6.16302C6.64264 5.64551 6.04571 5.26378 5.55254 5.44055C5.313 5.50204 5.13877 5.68906 4.97097 5.85943C4.36507 6.48839 4.01537 7.34024 3.94492 8.20618C3.7643 9.94446 3.57599 11.6827 3.40306 13.4223C3.39922 13.5799 3.32108 13.7156 3.20067 13.8143C2.52688 14.4573 2.07982 15.3527 2.03883 16.2891C2.02986 16.6465 1.94659 17.0077 1.97606 17.3638C2.00423 17.4394 2.0606 17.5906 2.08878 17.6662C2.3232 18.2054 2.19254 18.8037 2.22073 19.3711C2.20279 19.8387 2.30655 20.3447 2.07726 20.7776C2.04908 20.834 1.99271 20.9493 1.96325 21.0056C2.01705 21.8229 2.02986 22.6568 2.35139 23.4254C0.946159 23.8174 -0.0760574 25.2201 0.00464249 26.6804C0.107121 27.9152 0.725834 29.045 1.39066 30.066C3.40947 32.9763 6.30959 35.1168 9.20331 37.0908C9.5338 37.3573 10.0552 37.4854 10.1499 37.9542C11.1235 40.8697 12.6594 43.634 14.8229 45.836C15.7145 46.7429 16.665 47.6127 17.7807 48.2366C19.8008 49.3779 22.2321 49.8006 24.5109 49.3369C26.499 48.9693 28.3231 47.9355 29.7591 46.5265C31.8906 44.5768 33.4854 42.0994 34.5947 39.444C35.8232 40.9209 37.3091 42.2634 39.1166 42.9743C39.1729 42.9666 39.2857 42.9513 39.3433 42.9449L39.4202 42.9244C39.8928 42.7502 40.404 42.7681 40.8728 42.9423L41.0444 42.9807C42.1896 42.7194 43.1299 41.6588 43.3015 40.4969C43.2131 40.0793 43.2029 39.6528 43.2925 39.2352C43.1606 38.0695 42.6905 36.9666 42.1602 35.9303C40.5487 32.9776 38.2084 30.5066 35.7796 28.2124C36.7391 27.4553 37.5512 26.5279 38.2417 25.5224C38.8745 25.5377 39.5111 25.6005 40.1414 25.5224C41.2712 25.3353 42.3075 24.6077 42.8276 23.5817C43.2644 22.799 43.2887 21.878 43.3066 21.0056C43.2682 20.8609 43.2298 20.7174 43.1926 20.5727C43.0056 19.6568 43.0223 18.6909 43.176 17.7712C43.2093 17.6162 43.2452 17.4638 43.2823 17.3113C43.3284 16.3621 43.2118 15.354 42.6828 14.538C42.4753 14.1832 42.1602 13.9142 41.9091 13.5939C41.708 11.7288 41.5184 9.85991 41.316 7.99481C41.2046 7.08404 40.7537 6.21042 40.0581 5.60964C39.6917 5.2894 39.0897 5.34576 38.7822 5.72237C38.4518 6.09385 38.585 6.62417 38.5286 7.07508C38.4172 8.27022 38.4556 9.4769 38.2929 10.6682C36.7826 7.88337 34.1848 5.80435 31.2783 4.61305C30.3944 4.24028 29.4785 3.95206 28.555 3.69715C28.2411 2.90935 28.0016 1.98193 27.2061 1.53487ZM26.5528 2.14077C27.1331 2.33676 27.3906 2.93369 27.5801 3.46402C24.3316 2.85299 20.9588 2.83122 17.7128 3.47426C17.8947 2.93241 18.1535 2.32139 18.7491 2.13437C20.0262 1.73983 21.3764 1.66681 22.7048 1.64503C23.9973 1.68346 25.3128 1.74495 26.5528 2.14077ZM25.0284 3.29493C23.4477 3.30005 21.8657 3.31286 20.2837 3.29237C21.8657 3.2834 23.4477 3.27059 25.0284 3.29493ZM21.0754 3.7343C21.1151 3.76504 21.1945 3.82653 21.2342 3.85727C24.2804 3.68562 27.3765 4.05198 30.2522 5.09597C32.9654 6.0836 35.4735 7.80907 37.0709 10.248C38.8143 12.8433 39.4227 16.0278 39.4227 19.1098C39.4176 19.3173 39.4304 19.5325 39.3612 19.7324C39.3049 21.1466 38.8668 22.5223 38.2673 23.7969C37.1042 26.2115 35.0136 28.0984 32.6067 29.2372C29.1071 30.8781 25.1578 31.2176 21.3405 31.11C17.8627 30.9639 14.2785 30.3439 11.2798 28.4788C9.15078 27.1799 7.44965 25.1803 6.58755 22.8349C6.24554 21.8793 5.95092 20.884 5.94323 19.8617C5.76902 19.0227 5.89967 18.1491 5.94835 17.2998C6.15843 13.9449 7.44069 10.5696 9.90271 8.22027C12.5953 5.63398 16.2961 4.38631 19.943 3.95591L19.8162 3.74455C20.2043 3.56906 20.6962 3.50757 21.0754 3.7343ZM39.9531 6.71256C40.2861 7.20189 40.5064 7.76808 40.5295 8.36373C40.6627 9.93421 40.9202 11.497 40.9778 13.0726C40.9445 13.0675 40.8779 13.0572 40.8446 13.0521L40.8523 13.0137C40.3207 12.8766 39.7763 12.7921 39.228 12.7472C39.1473 12.4846 39.0282 12.2195 39.0769 11.9389C39.1653 11.0832 39.155 10.2211 39.2255 9.36417C39.3126 8.30225 39.2639 7.22495 39.4663 6.17455C39.629 6.35261 39.7917 6.53323 39.9531 6.71256ZM5.98935 7.97048C6.03418 9.38467 6.18149 10.7937 6.19814 12.2092C6.19814 12.409 6.09311 12.5884 6.02265 12.7703C5.43212 12.7792 4.85184 12.9061 4.2895 13.079C4.2959 12.9624 4.30999 12.7306 4.31768 12.6153C4.43809 11.228 4.62383 9.8471 4.73784 8.45981C4.79036 7.83982 4.96585 7.22623 5.33092 6.7164C5.49745 6.52426 5.6691 6.33852 5.84716 6.15918C5.93939 6.75868 5.93938 7.36714 5.98935 7.97048ZM41.7528 14.6776C42.5598 15.5718 42.474 16.8604 42.524 17.9813L42.5265 17.9031C42.6252 19.3353 42.5534 20.7738 42.41 22.2008C42.2883 23.4075 41.3032 24.4463 40.1247 24.691C39.6623 24.7704 39.1909 24.732 38.7246 24.7089C39.2216 23.8417 39.5713 22.9015 39.8506 21.9446C39.9595 21.4617 40.0747 20.98 40.1311 20.4869L39.9966 20.6342C39.9684 20.574 39.9121 20.4536 39.8839 20.3933C39.8429 19.7119 39.9492 19.0291 39.8967 18.3476C39.9018 17.8378 39.7583 17.2895 40.0017 16.813L40.1401 16.9693C40.035 15.8395 39.8506 14.7122 39.5137 13.6285C40.3707 13.6285 41.2084 14.0141 41.7528 14.6776ZM5.7703 13.6247C5.19899 15.5244 5.02861 17.5227 5.05936 19.4992C5.08241 20.4407 5.2784 21.3643 5.51026 22.2738C5.79464 23.1116 6.10079 23.9468 6.54272 24.7179C6.08542 24.7333 5.62427 24.764 5.16953 24.6936C4.09223 24.4707 3.17761 23.5881 2.92654 22.5159C2.82278 21.9382 2.79845 21.349 2.77539 20.7635C2.74593 19.4903 2.73183 18.2144 2.801 16.9424C2.8548 16.4108 2.85736 15.8536 3.0969 15.3642C3.55677 14.3331 4.63664 13.6196 5.7703 13.6247ZM2.54481 16.6721C2.64472 17.5701 2.5589 18.4719 2.57428 19.3711C2.58452 19.9296 2.60758 20.4907 2.54225 21.0466C2.41671 20.4087 2.48588 19.7567 2.47435 19.1124C2.50126 18.299 2.40006 17.4779 2.54481 16.6721ZM42.8237 19.375C42.8058 19.8553 42.8942 20.3549 42.7443 20.8199C42.6738 19.5223 42.6546 18.2106 42.7635 16.9142C42.8826 17.7302 42.8007 18.5552 42.8237 19.375ZM2.79716 24.153C3.19811 24.5898 3.64901 24.9933 4.19855 25.2329C4.9761 25.63 5.86637 25.5774 6.71053 25.5403C6.98082 25.7286 7.27544 25.8951 7.48168 26.1577C8.27332 27.194 9.23661 28.0946 10.3062 28.8388C9.749 29.797 9.39032 30.8743 9.30194 31.9823L9.28401 31.9938C9.44413 32.2411 9.39673 32.5459 9.4057 32.8252C9.39417 33.271 9.4326 33.7308 9.29041 34.1625C9.35446 34.9196 9.50433 35.6677 9.68239 36.4068C7.49833 34.9516 5.37832 33.3645 3.56446 31.4597C2.32064 30.0839 1.09347 28.5109 0.812939 26.6266C0.565708 26.633 0.575954 26.0552 0.833427 26.0796C0.855206 26.0245 0.90004 25.9156 0.921818 25.8605C1.18954 25.0113 1.93891 24.3605 2.79716 24.153ZM40.1734 25.3097C39.6072 25.4609 39.0141 25.3802 38.4377 25.3366C39.0103 25.2303 39.5969 25.2354 40.1734 25.3097ZM6.82582 25.2674L6.82838 25.375C6.25706 25.3763 5.6832 25.4109 5.11316 25.3507C5.66014 25.1611 6.25835 25.3033 6.82582 25.2674ZM35.8206 29.3845C37.696 31.2227 39.5022 33.1634 40.9023 35.3961C41.717 36.7193 42.4036 38.1784 42.5406 39.745C42.6124 40.4905 42.2601 41.2027 41.7451 41.7215L41.7003 41.7151C41.2468 42.1314 40.6294 42.3569 40.0133 42.3159C39.3292 42.2813 38.7348 41.9047 38.1597 41.5691C36.9069 40.7685 35.8603 39.6835 34.9342 38.5306C35.1942 37.8607 35.3685 37.1638 35.6016 36.4875L35.5708 36.4657C35.827 35.6382 35.9462 34.771 36.0192 33.9102C35.991 33.873 35.9334 33.8 35.9052 33.7629C35.6913 33.3273 35.6669 32.7432 35.9129 32.3192L36.0192 32.2359C35.9731 31.5737 35.8334 30.9242 35.6375 30.2901C35.4978 29.7918 35.1276 29.3473 35.1635 28.8119C35.4094 28.9695 35.6221 29.1719 35.8206 29.3845ZM34.2848 29.2718C34.3757 29.4473 34.4654 29.624 34.5576 29.7995C34.7843 30.3478 35.0316 30.9101 35.0597 31.5109C35.1673 31.8952 35.2314 32.291 35.2314 32.6907C35.307 34.9836 34.5973 37.21 33.7519 39.3133C33.4713 39.2083 33.1882 39.1122 32.9013 39.0276C31.8688 38.6972 30.8184 38.4218 29.7539 38.2155C29.8321 37.812 29.9359 37.4149 30.0127 37.0127C29.7693 36.8654 29.8526 36.3799 30.0063 36.1634C29.8372 35.2731 29.1019 34.5212 28.2053 34.3624C26.4298 34.078 24.6288 34.0242 22.8341 34.0293C20.9101 34.0229 18.9771 34.0524 17.0749 34.3649C16.1859 34.5161 15.4609 35.2667 15.279 36.1403C15.1419 36.8193 15.3814 37.4892 15.5339 38.1425C14.4822 38.3961 13.4369 38.6741 12.4032 38.9918L12.4275 39.0315C12.1214 39.0955 11.8267 39.1967 11.5372 39.3146C11.1927 38.4679 10.8737 37.6109 10.6265 36.7309C10.164 35.0438 9.81817 33.2338 10.2306 31.5019C10.2575 30.9088 10.4971 30.3503 10.7302 29.8123L10.7187 29.8059C10.8173 29.6304 10.9147 29.4562 11.0108 29.282C14.7038 31.4955 19.1334 31.9951 23.3593 31.9464C27.1254 31.8555 31.0067 31.2329 34.2848 29.2718ZM25.8098 34.2906C25.5088 34.3444 25.2027 34.3764 24.8965 34.3688C23.6578 34.3483 22.4191 34.3316 21.1804 34.3534C20.6142 34.3547 20.0442 34.3957 19.4844 34.2932C20.431 34.1702 21.3866 34.297 22.3371 34.2496C23.4938 34.2829 24.657 34.1638 25.8098 34.2906ZM27.5161 35.0861C28.0003 35.1399 28.5255 35.2513 28.8586 35.6395C29.0891 35.9354 29.2954 36.3222 29.1685 36.7052C29.1942 37.0844 29.0763 37.4495 28.9828 37.812C28.651 39.093 28.1361 40.3432 27.3393 41.4064C26.5067 42.5234 25.2757 43.3599 23.8986 43.6225C22.3384 43.9056 20.6296 43.6789 19.3191 42.7425C17.896 41.7497 17.03 40.1523 16.5087 38.5332C16.3486 37.9721 16.1308 37.4111 16.1449 36.818C15.9015 36.0929 16.5036 35.3205 17.2119 35.1822C18.6863 34.908 20.1928 34.9106 21.6851 34.844C23.6309 34.8325 25.5818 34.8619 27.5161 35.0861ZM15.767 38.9662C16.036 39.6681 16.3076 40.374 16.6932 41.0221C17.5745 42.5913 19.0271 43.9005 20.8025 44.3347C22.6855 44.7959 24.8068 44.5781 26.4234 43.4534C27.9401 42.394 28.9213 40.7288 29.4888 38.9969C30.5084 39.1993 31.5153 39.467 32.5106 39.7642C32.818 39.8577 33.1216 39.9602 33.4227 40.0716C32.1135 42.8027 30.2394 45.3095 27.771 47.0939C25.2257 48.8783 21.7376 49.187 18.9144 47.8843C17.6744 47.3386 16.6189 46.4586 15.662 45.5132C14.0748 43.9491 12.8259 42.07 11.8626 40.0665C12.1649 39.9564 12.4698 39.8526 12.7747 39.7514C13.7572 39.4414 14.7499 39.1442 15.767 38.9662Z" fill="#040473"/>
<path d="M24.7695 0.956798C23.3643 0.808206 21.936 0.8018 20.5321 0.955517C20.5872 0.982418 20.6973 1.03494 20.7537 1.06184C22.0154 1.017 23.2785 1.03494 24.5402 1.058C24.5979 1.03238 24.7119 0.982418 24.7695 0.956798Z" fill="#01074D"/>
<path d="M24.5405 1.05774C23.2788 1.03468 22.0157 1.01675 20.754 1.06158C21.3304 1.32034 21.9799 1.11538 22.5883 1.15894C23.2365 1.11666 23.9244 1.32162 24.5405 1.05774Z" fill="#161979"/>
<path d="M26.5537 2.14222C25.3137 1.7464 23.9982 1.68491 22.7057 1.64648C21.3773 1.66826 20.0272 1.74128 18.75 2.13582C18.1544 2.32284 17.8956 2.93386 17.7137 3.47571C20.9597 2.83267 24.3325 2.85444 27.5811 3.46547C27.3915 2.93514 27.134 2.33821 26.5537 2.14222Z" fill="#FFFFFE"/>
<path d="M25.0291 3.29554C23.4483 3.2712 21.8663 3.28402 20.2843 3.29298C21.8663 3.31348 23.4483 3.30067 25.0291 3.29554Z" fill="#8281BA"/>
<path d="M27.8883 10.0812C25.6441 9.57263 23.3294 9.47656 21.0377 9.57647C18.6346 9.74812 16.2136 10.1798 14.0154 11.1982C12.2297 11.9975 10.6183 13.2708 9.60503 14.9617C8.79673 16.3259 8.39322 17.9105 8.35351 19.4912C8.50595 18.8763 8.61099 18.2499 8.7852 17.6402C9.12082 16.4476 9.75746 15.3498 10.5734 14.4224C11.6559 13.2132 13.0649 12.3331 14.5521 11.7093C17.9723 10.3182 21.7589 10.0645 25.4033 10.4129C28.3482 10.7434 31.3687 11.5594 33.7027 13.4655C35.1707 14.6338 36.2236 16.3157 36.6374 18.1462C36.7309 18.5663 36.7873 18.9942 36.8846 19.4131C36.9179 17.1662 36.0046 14.9002 34.3957 13.3246C32.6497 11.5709 30.2671 10.6115 27.8883 10.0812Z" fill="#8281BA"/>
<path d="M21.0747 3.73649C20.6955 3.50976 20.2036 3.57125 19.8155 3.74674C20.2357 3.74802 20.6545 3.73521 21.0747 3.73649Z" fill="#1A1880"/>
<path d="M21.2339 3.86037C21.1942 3.82962 21.1148 3.76814 21.075 3.73739C20.6549 3.73611 20.236 3.74892 19.8158 3.74764L19.9427 3.959C20.3731 3.92057 20.8035 3.8988 21.2339 3.86037Z" fill="#050550"/>
<path d="M30.2519 5.09636C27.3761 4.05237 24.28 3.68601 21.2338 3.85766C20.8034 3.89609 20.373 3.91787 19.9426 3.9563C16.2957 4.3867 12.595 5.63437 9.90235 8.22066C7.44032 10.57 6.15807 13.9453 5.94799 17.3002C5.89931 18.1495 5.76865 19.0231 5.94286 19.8621C6.70248 22.1704 8.13333 24.2636 10.0945 25.7123C11.8392 27.0279 13.9015 27.8669 16.0152 28.3768C18.7052 29.0185 21.4913 29.1607 24.2467 29.0544C26.9175 28.9148 29.6101 28.4997 32.0888 27.457C34.5329 26.4527 36.7349 24.758 38.1145 22.4817C38.6423 21.6209 39.0394 20.6871 39.3609 19.7328C39.43 19.5329 39.4172 19.3177 39.4224 19.1102C39.4224 16.0282 38.8139 12.8437 37.0705 10.2484C35.4731 7.80946 32.965 6.08399 30.2519 5.09636ZM33.5286 11.5153C35.4449 12.804 36.8822 14.7985 37.4202 17.0517C37.8173 18.7528 37.9697 20.6115 37.269 22.2576C36.6286 23.9151 35.2323 25.2179 33.5875 25.8596C31.4022 26.732 28.976 26.6974 26.678 26.3964C26.1553 26.2901 25.5981 26.2913 25.0985 26.103C23.6869 25.8763 22.2509 25.8392 20.829 25.998C19.0203 26.4015 17.1475 26.6436 15.2837 26.5757C13.3059 26.4989 11.2499 25.989 9.72301 24.6658C8.50993 23.6231 7.75672 22.1 7.56714 20.5206C7.38396 17.9804 8.06928 15.3224 9.72686 13.3522C11.3947 11.3514 13.8337 10.1613 16.3085 9.48626C18.8935 8.78556 21.5963 8.62288 24.2621 8.7497C27.4965 8.94569 30.8091 9.67456 33.5286 11.5153Z" fill="white"/>
<path d="M41.7528 14.68C41.2084 14.0164 40.3706 13.6309 39.5136 13.6309C39.8505 14.7146 40.035 15.8418 40.14 16.9716C40.2259 18.1399 40.3027 19.3235 40.1311 20.4892C40.0747 20.9824 39.9594 21.464 39.8505 21.9469C39.8377 22.011 39.8121 22.1391 39.7993 22.2018C40.8343 22.1301 41.8809 21.651 42.4458 20.7543C42.5764 19.8397 42.4304 18.9059 42.5239 17.9836C42.474 16.8628 42.5598 15.5741 41.7528 14.68Z" fill="white"/>
<path d="M5.77075 13.6267C4.63709 13.6216 3.55723 14.3351 3.09736 15.3663C2.85782 15.8556 2.85526 16.4129 2.80145 16.9445C2.73228 18.2165 2.74637 19.4923 2.77584 20.7656C3.1422 21.1601 3.52136 21.5624 4.00941 21.8057C4.47697 22.0594 5.01882 22.0927 5.51071 22.2759C5.27886 21.3664 5.08287 20.4428 5.05981 19.5013C5.02907 17.5247 5.19944 15.5264 5.77075 13.6267Z" fill="white"/>
<path d="M2.7966 24.1558C1.93835 24.3633 1.18898 25.014 0.921257 25.8633C0.808532 26.3283 0.912291 26.7997 1.21332 27.1712C2.48661 29.0965 4.20439 30.681 6.01184 32.0965C6.96232 32.8408 8.36883 32.7601 9.28345 31.9966L9.30138 31.9851C9.38977 30.877 9.74844 29.7997 10.3057 28.8416C9.23605 28.0973 8.27276 27.1968 7.48112 26.1605C7.27488 25.8979 6.98026 25.7314 6.70997 25.5431C5.86581 25.5802 4.97553 25.6327 4.19798 25.2356C3.64845 24.9961 3.19754 24.5926 2.7966 24.1558Z" fill="white"/>
<path d="M40.9017 35.3988C39.5016 33.1661 37.6954 31.2254 35.8201 29.3872C35.7278 29.6818 35.651 29.9829 35.6369 30.2929C35.8329 30.9269 35.9725 31.5764 36.0186 32.2387C36.0852 32.7946 36.0814 33.3569 36.0186 33.9129C35.9456 34.7737 35.8265 35.6409 35.5703 36.4684L35.601 36.4902C35.6318 36.5017 35.6945 36.5261 35.7253 36.5376C35.8649 36.7297 35.9597 36.9501 36.0596 37.1666C36.9038 38.9753 38.3987 40.4625 40.192 41.3336C40.6609 41.5705 41.1835 41.6551 41.6997 41.7178L41.7446 41.7243C42.2595 41.2055 42.6118 40.4932 42.54 39.7477C42.403 38.1811 41.7164 36.7221 40.9017 35.3988Z" fill="white"/>
<path d="M34.5579 29.8003C32.4341 31.1556 30.0028 31.9613 27.5215 32.3494C24.6265 32.7952 21.6701 32.8272 18.7597 32.4891C15.9403 32.1598 13.1349 31.3554 10.7305 29.8131C10.4974 30.3511 10.2579 30.9096 10.231 31.5027C10.3373 33.1488 10.6486 34.782 11.2288 36.3294C11.5696 37.2363 11.886 38.1663 12.4035 38.9925C13.4372 38.6749 14.4825 38.3969 15.5342 38.1433C15.3818 37.49 15.1422 36.82 15.2793 36.1411C15.4612 35.2675 16.1862 34.5168 17.0752 34.3657C18.9774 34.0531 20.9104 34.0237 22.8345 34.0301C24.6291 34.0249 26.4301 34.0787 28.2056 34.3631C29.1023 34.522 29.8375 35.2739 30.0066 36.1642C30.0745 36.4409 30.0681 36.7329 30.013 37.0134C29.9362 37.4157 29.8324 37.8128 29.7543 38.2163C30.8188 38.4225 31.8692 38.6979 32.9016 39.0284C33.6933 37.4938 34.294 35.8606 34.6911 34.1799C34.9089 33.3063 34.9563 32.4032 35.0601 31.5117C35.0319 30.9109 34.7846 30.3485 34.5579 29.8003Z" fill="white"/>
<path d="M15.7664 38.967C14.7493 39.1451 13.7566 39.4423 12.7741 39.7523C13.8065 41.602 15.1746 43.266 16.8014 44.6238C18.4257 46.0265 20.5726 46.8296 22.7221 46.7797C24.705 46.7989 26.6675 46.0739 28.2149 44.8454C29.9609 43.453 31.4071 41.7019 32.51 39.7651C31.5147 39.4679 30.5079 39.2002 29.4882 38.9978C28.9207 40.7297 27.9395 42.3949 26.4228 43.4543C24.8062 44.579 22.6849 44.7967 20.8019 44.3356C19.0265 43.9013 17.5739 42.5922 16.6926 41.023C16.307 40.3748 16.0354 39.669 15.7664 38.967Z" fill="white"/>
<path d="M39.9521 6.71403C39.7907 6.5347 39.628 6.35408 39.4654 6.17603C39.263 7.22642 39.3116 8.30372 39.2245 9.36565C39.1541 10.2226 39.1643 11.0847 39.0759 11.9404C39.0273 12.2209 39.1464 12.4861 39.2271 12.7487C39.7754 12.7935 40.3198 12.8781 40.8514 13.0151C40.8808 12.8781 40.9103 12.741 40.9385 12.6039C40.5414 12.367 40.0905 12.1377 39.8817 11.6996C39.5935 11.1398 39.6998 10.4929 39.7318 9.89213C39.8227 8.83404 39.783 7.76571 39.9521 6.71403Z" fill="#0288D2"/>
<path d="M5.98895 7.97194C5.939 7.3686 5.93899 6.76014 5.84676 6.16064C5.66871 6.33998 5.49706 6.52572 5.33053 6.71787C5.49706 7.85793 5.4612 9.01337 5.57008 10.1586C5.61491 10.6966 5.67255 11.2833 5.37024 11.7636C5.15248 12.1825 4.71055 12.3964 4.31729 12.6167C4.3096 12.732 4.29551 12.9639 4.28911 13.0805C4.85145 12.9075 5.43173 12.7807 6.02226 12.7717C6.09271 12.5898 6.19775 12.4105 6.19775 12.2107C6.1811 10.7952 6.03379 9.38613 5.98895 7.97194Z" fill="#0088D1"/>
<path d="M40.529 8.36455C40.5059 7.7689 40.2856 7.20271 39.9525 6.71338C39.7834 7.76506 39.8231 8.83339 39.7322 9.89147C39.7002 10.4922 39.5938 11.1391 39.8821 11.6989C40.0909 12.137 40.5418 12.3663 40.9389 12.6033C40.9107 12.7404 40.8812 12.8774 40.8518 13.0145L40.8441 13.0529C40.8774 13.058 40.944 13.0683 40.9773 13.0734C40.9197 11.4978 40.6622 9.93502 40.529 8.36455Z" fill="#02D0FF"/>
<path d="M5.56975 10.1568C5.46087 9.01157 5.49673 7.85613 5.3302 6.71606C4.96513 7.22589 4.78964 7.83948 4.73712 8.45947C4.62311 9.84676 4.43737 11.2277 4.31696 12.6149C4.71022 12.3946 5.15215 12.1807 5.36991 11.7618C5.67222 11.2815 5.61458 10.6948 5.56975 10.1568Z" fill="#00D0FF"/>
<path d="M33.5296 11.5171C30.8101 9.67638 27.4975 8.94751 24.2631 8.75152C21.5974 8.62471 18.8945 8.78739 16.3095 9.48808C13.8347 10.1632 11.3957 11.3532 9.72788 13.3541C8.0703 15.3242 7.38498 17.9822 7.56816 20.5224C7.75774 22.1018 8.51095 23.6249 9.72404 24.6676C11.251 25.9909 13.3069 26.5007 15.2847 26.5775C17.1486 26.6454 19.0213 26.4033 20.8301 25.9998C20.8941 25.9422 21.0222 25.8294 21.085 25.7718C21.3002 25.4721 21.6845 25.5707 21.933 25.7654C22.3403 25.8025 22.7502 25.809 23.1563 25.7654C23.5355 25.6232 23.939 25.6104 24.3207 25.7487C24.6025 25.8102 24.8549 25.9575 25.0996 26.1049C25.5991 26.2932 26.1564 26.2919 26.679 26.3982C28.9771 26.6992 31.4032 26.7338 33.5886 25.8615C35.2333 25.2197 36.6296 23.917 37.2701 22.2594C37.9708 20.6133 37.8183 18.7546 37.4212 17.0535C36.8832 14.8003 35.446 12.8058 33.5296 11.5171ZM27.8895 10.0812C30.2683 10.6115 32.6509 11.5709 34.3969 13.3246C36.0058 14.9002 36.9191 17.1662 36.8858 19.4131C36.7884 18.9942 36.7321 18.5663 36.6386 18.1462C36.0557 19.1056 35.8905 20.2598 35.3525 21.2448C34.9605 21.788 34.4942 22.2722 34.0138 22.7359C33.5745 23.1804 32.9417 23.3341 32.4703 23.7376C32.0322 24.1437 31.4096 24.1411 30.8729 24.3269C29.524 24.7842 28.0817 24.5664 26.6995 24.4306C26.3664 24.3525 26.0436 24.2398 25.7131 24.1527C24.9727 23.9887 24.5833 23.142 23.7802 23.1445C23.7289 22.9831 23.6892 22.8166 23.6098 22.6654C23.3395 22.5309 23.0705 22.3939 22.8617 22.1671C22.7029 21.9724 22.3339 21.9673 22.2122 22.2043C21.7588 22.8768 21.0043 23.2214 20.3971 23.7287C20.0935 23.9964 19.6682 24.013 19.3134 24.1834C18.1951 24.788 16.8821 24.5395 15.6677 24.5972C15.1297 24.6369 14.6378 24.4012 14.1511 24.209C13.6515 24.0028 13.0891 23.9759 12.6178 23.6992C12.1182 23.4007 11.5571 23.1689 11.1984 22.6872C10.5362 22.1005 10.0571 21.355 9.51267 20.6658C9.15656 19.7756 9.40123 18.8072 9.24751 17.8861C9.0464 17.8938 8.82351 17.9015 8.78636 17.6402C8.61215 18.2499 8.50711 18.8763 8.35468 19.4912C8.39438 17.9105 8.79789 16.3259 9.60619 14.9617C10.6194 13.2708 12.2309 11.9975 14.0166 11.1982C16.2147 10.1798 18.6358 9.74812 21.0389 9.57647C23.3305 9.47655 25.6452 9.57263 27.8895 10.0812ZM37.5237 18.6957C37.6006 19.3593 37.598 20.0318 37.5301 20.6953C37.3879 20.0459 37.3982 19.3464 37.5237 18.6957ZM30.463 26.3815C29.6701 26.4328 28.8656 26.461 28.0765 26.3521C28.6773 26.2406 29.2909 26.2829 29.8968 26.2739C30.0928 26.2663 30.2849 26.3021 30.463 26.3815ZM17.2267 26.3636C16.403 26.4456 15.5653 26.4546 14.7416 26.3559C15.5589 26.2253 16.4094 26.247 17.2267 26.3636Z" fill="#010173"/>
<path d="M25.4037 10.4105C21.7593 10.0621 17.9728 10.3157 14.5526 11.7069C13.0654 12.3307 11.6563 13.2107 10.5739 14.42C10.8314 14.3905 11.0978 14.3726 11.3361 14.2663C11.7101 14.0741 11.9266 13.6616 12.3314 13.522C12.6926 13.3875 13.0129 13.1736 13.3011 12.9212C13.6713 12.9481 14.044 12.952 14.4117 12.9097C15.6568 12.7855 16.9134 12.8726 18.1483 13.0583C18.6376 13.1672 19.0565 13.4656 19.5356 13.6091C20.0172 13.7564 20.3605 14.1458 20.7832 14.3969C21.3802 14.7697 21.7939 15.3525 22.2922 15.8354C22.5113 16.066 22.8558 15.9033 23.0851 15.7752C23.5079 15.5472 23.5975 15.0182 23.9434 14.7159C24.2995 14.5007 24.7158 14.3969 25.0489 14.1433C25.6228 13.7103 26.2927 13.4234 26.9639 13.1826C27.8478 13.048 28.7214 12.7598 29.6258 12.861C30.4277 12.8597 31.2321 13.0007 32.0315 12.9238C32.1275 13.057 32.2223 13.189 32.3171 13.3222C32.7847 13.3132 33.2394 13.4311 33.7031 13.4631C31.3692 11.557 28.3487 10.741 25.4037 10.4105Z" fill="#010173"/>
<path d="M32.0311 12.9252C31.2317 13.002 30.4273 12.8611 29.6254 12.8624C28.721 12.7612 27.8474 13.0494 26.9635 13.1839C26.2923 13.4248 25.6224 13.7117 25.0485 14.1447C24.7154 14.3983 24.2991 14.5021 23.943 14.7173C23.5972 15.0196 23.5075 15.5486 23.0848 15.7766C22.8555 15.9047 22.5109 16.0674 22.2918 15.8368C21.7935 15.3539 21.3798 14.7711 20.7829 14.3983C20.3601 14.1472 20.0168 13.7578 19.5352 13.6105C19.0561 13.467 18.6372 13.1686 18.1479 13.0597C16.913 12.874 15.6564 12.7868 14.4113 12.9111C14.0437 12.9534 13.6709 12.9495 13.3007 12.9226C13.0125 13.175 12.6922 13.3889 12.331 13.5234C11.9262 13.663 11.7097 14.0755 11.3357 14.2676C11.0974 14.374 10.831 14.3919 10.5735 14.4214C9.75753 15.3488 9.12088 16.4466 8.78527 17.6392C8.82242 17.9005 9.04531 17.8928 9.24642 17.8851C9.40014 18.8061 9.15547 19.7746 9.51158 20.6648C10.056 21.354 10.5351 22.0995 11.1973 22.6862C11.556 23.1678 12.1171 23.3997 12.6167 23.6982C13.0881 23.9749 13.6504 24.0018 14.15 24.208C14.6368 24.4001 15.1286 24.6358 15.6667 24.5961C16.881 24.5385 18.194 24.787 19.3123 24.1824C19.6671 24.012 20.0924 23.9954 20.396 23.7276C21.0032 23.2204 21.7577 22.8758 22.2111 22.2033C22.3328 21.9663 22.7018 21.9714 22.8606 22.1661C23.0694 22.3929 23.3384 22.5299 23.6087 22.6644C23.6881 22.8156 23.7278 22.9821 23.7791 23.1435C24.5822 23.1409 24.9716 23.9877 25.712 24.1516C26.0425 24.2387 26.3653 24.3515 26.6984 24.4296C28.0806 24.5654 29.5229 24.7832 30.8718 24.3258C31.4085 24.1401 32.0311 24.1427 32.4692 23.7366C32.9406 23.3331 33.5734 23.1794 34.0127 22.7349C34.4931 22.2712 34.9594 21.787 35.3514 21.2438C35.8894 20.2588 36.0546 19.1046 36.6375 18.1452C36.2237 16.3146 35.1707 14.6327 33.7027 13.4645C33.239 13.4325 32.7843 13.3146 32.3167 13.3236C32.2219 13.1904 32.1271 13.0584 32.0311 12.9252ZM19.3469 14.9248C19.8106 15.327 20.3256 15.6601 20.8174 16.0251C20.9263 16.4607 21.1249 16.8539 21.4643 17.1562C21.7871 17.4137 21.6219 17.8941 21.8435 18.19C22.402 18.0504 22.9618 17.8749 23.5536 17.9235C23.902 16.5363 24.9306 15.3334 26.2782 14.8326C26.9751 14.4982 27.6783 14.0845 28.4789 14.0998C29.2885 14.1178 30.1186 14.0204 30.9064 14.2536C31.3739 14.3945 31.8517 14.4995 32.3398 14.5315C32.3769 14.5994 32.4141 14.6673 32.4512 14.7352C32.6869 14.8466 32.9329 14.9632 33.0456 15.2143C33.2723 15.6601 33.736 15.8855 34.0473 16.2583C34.1908 16.4453 34.4969 16.5247 34.4995 16.7963C34.5379 17.3189 34.6712 17.8249 34.7608 18.3399C34.7826 19.681 34.0883 20.9415 33.1237 21.8369C32.6805 22.1136 32.2616 22.4236 31.8415 22.7336C30.3018 23.5355 28.493 23.4445 26.829 23.1883C26.1642 22.822 25.4776 22.4953 24.809 22.1379C24.6604 22.0739 24.5989 21.9176 24.5207 21.7895C24.2953 21.3437 23.8943 21.0081 23.7291 20.5278C23.6228 20.1089 23.1245 20.0935 22.7914 19.9539C22.7222 19.845 22.6518 19.7374 22.5801 19.6285C22.5019 19.6388 22.3456 19.6593 22.2675 19.6695C22.2265 19.804 22.183 19.9372 22.1394 20.073C21.8896 20.2434 21.6206 20.4176 21.4861 20.702C21.2414 21.0952 21.1864 21.6409 20.747 21.8843C20.241 22.1815 19.7312 22.4736 19.27 22.8386C18.8409 23.0128 18.3849 23.1256 17.9557 23.31C16.6671 23.4689 15.3567 23.3331 14.0885 23.0615C14.0744 23.0116 14.0449 22.9117 14.0296 22.863C13.5518 22.7234 13.0022 22.6491 12.6794 22.2225C12.3592 21.8139 12.0133 21.4244 11.5496 21.1721C11.4074 20.6251 10.8323 20.3484 10.7618 19.7694C10.5428 18.6614 10.562 17.456 11.0347 16.412C11.6367 15.6268 12.4847 15.09 13.3212 14.5879C13.9168 14.2433 14.6137 14.1703 15.2824 14.0755C15.7922 14.0063 16.311 13.9141 16.8247 13.9999C17.7034 14.1972 18.5424 14.5302 19.3469 14.9248Z" fill="#011081"/>
<path d="M19.3485 14.9248C18.544 14.5303 17.705 14.1973 16.8263 14C16.3126 13.9142 15.7938 14.0064 15.284 14.0756C14.6153 14.1704 13.9185 14.2434 13.3228 14.5879C12.4863 15.0901 11.6383 15.6268 11.0363 16.4121C10.5636 17.456 10.5444 18.6614 10.7634 19.7695C10.8339 20.3485 11.409 20.6252 11.5512 21.1721C12.0149 21.4245 12.3608 21.8139 12.681 22.2225C13.0038 22.6491 13.5534 22.7234 14.0312 22.863C14.0465 22.9117 14.076 23.0116 14.0901 23.0616C15.3583 23.3331 16.6687 23.4689 17.9574 23.3101C18.3865 23.1256 18.8425 23.0129 19.2716 22.8387C19.7328 22.4736 20.2426 22.1816 20.7486 21.8844C21.188 21.641 21.2431 21.0953 21.4877 20.702C21.6222 20.4177 21.8912 20.2434 22.141 20.0731C22.1846 19.9373 22.2281 19.8041 22.2691 19.6696C22.3473 19.6593 22.5035 19.6388 22.5817 19.6286C22.6534 19.7375 22.7239 19.8451 22.793 19.9539C23.1261 20.0936 23.6244 20.1089 23.7307 20.5278C23.8959 21.0082 24.2969 21.3438 24.5223 21.7896C24.6005 21.9177 24.662 22.074 24.8106 22.138C25.4792 22.4954 26.1658 22.822 26.8307 23.1884C28.4946 23.4446 30.3034 23.5355 31.8431 22.7337C32.2633 22.4237 32.6821 22.1137 33.1254 21.837C34.0899 20.9416 34.7842 19.6811 34.7624 18.3399C34.6728 17.825 34.5396 17.319 34.5011 16.7963C34.4986 16.5248 34.1924 16.4454 34.0489 16.2583C33.7377 15.8856 33.274 15.6601 33.0472 15.2143C32.9345 14.9633 32.6885 14.8467 32.4528 14.7353C32.4157 14.6674 32.3786 14.5995 32.3414 14.5316C31.8534 14.4996 31.3756 14.3945 30.908 14.2536C30.1202 14.0205 29.2901 14.1178 28.4806 14.0999C27.6799 14.0845 26.9767 14.4983 26.2798 14.8326C24.9323 15.3335 23.9036 16.5363 23.5552 17.9236C22.9634 17.8749 22.4036 18.0504 21.8451 18.19C21.6235 17.8941 21.7887 17.4138 21.4659 17.1563C21.1265 16.854 20.9279 16.4607 20.8191 16.0252C20.3272 15.6601 19.8122 15.3271 19.3485 14.9248ZM29.9729 15.0798C30.6723 15.2131 31.4089 15.3155 32.0314 15.6845C32.3158 15.8292 32.3798 16.1751 32.6117 16.3723C33.0459 16.69 33.2675 17.2139 33.4392 17.7058C33.4661 18.2976 33.5109 18.8984 33.4558 19.489C33.1715 19.8963 32.9588 20.3446 32.7026 20.7674C32.3606 21.1183 31.9084 21.34 31.5792 21.705C31.3089 22.0112 30.8875 22.0663 30.5147 22.1675C29.8128 22.3711 29.0762 22.2776 28.3563 22.3263C27.7197 22.3852 27.1214 22.1201 26.5245 21.942C26.2017 21.8677 26.1441 21.486 25.8738 21.3412C25.5689 21.1478 25.1872 21.0056 25.036 20.6495C24.8528 20.2255 24.6825 19.7925 24.5569 19.348C24.4685 19.0406 24.6914 18.7678 24.7375 18.4744C24.881 16.8143 26.3516 15.5243 27.9195 15.1887C28.5741 14.9274 29.2888 15.026 29.9729 15.0798ZM16.5278 15.1938C17.0235 15.3207 17.5282 15.4116 18.0381 15.4539C18.1341 15.573 18.2302 15.6921 18.325 15.8126C18.6888 15.8728 19.0757 15.956 19.2166 16.3442C19.3331 16.3954 19.4497 16.4466 19.565 16.4992C19.7571 16.8924 20.0441 17.2255 20.267 17.5982C20.6154 18.2246 20.4155 18.9573 20.413 19.6324C20.4181 20.3446 19.8276 20.8186 19.3754 21.2849C18.9258 21.6256 18.4787 22.0406 17.8959 22.1175C17.3041 22.2225 16.7007 22.3968 16.0961 22.2763C15.5389 22.1751 14.9637 22.1713 14.4168 22.0227C14.0722 21.5769 13.5367 21.3771 13.114 21.0287C12.8591 20.6803 12.7246 20.214 12.2698 20.0654C12.1328 19.5953 11.9393 19.1187 11.997 18.6192C12.0457 18.1913 12.0354 17.7584 12.1046 17.3331C12.4108 16.6875 13.0141 16.2699 13.5931 15.8907C14.0747 15.5922 14.582 15.2886 15.1597 15.2412C15.6132 15.19 16.0769 15.0722 16.5278 15.1938Z" fill="#012593"/>
<path d="M29.9723 15.0789C29.2883 15.0251 28.5735 14.9265 27.9189 15.1878C26.351 15.5234 24.8804 16.8133 24.737 18.4735C24.6909 18.7668 24.468 19.0397 24.5564 19.3471C24.6819 19.7916 24.8523 20.2246 25.0354 20.6486C25.1866 21.0047 25.5683 21.1469 25.8732 21.3403C26.1435 21.485 26.2011 21.8668 26.5239 21.9411C27.1209 22.1191 27.7191 22.3843 28.3557 22.3254C29.0756 22.2767 29.8122 22.3702 30.5142 22.1665C30.8869 22.0653 31.3084 22.0102 31.5786 21.7041C31.9079 21.339 32.36 21.1174 32.7021 20.7664C32.9583 20.3437 33.1709 19.8954 33.4553 19.488C33.5104 18.8975 33.4655 18.2967 33.4386 17.7049C33.267 17.213 33.0454 16.6891 32.6111 16.3714C32.3793 16.1741 32.3152 15.8283 32.0308 15.6835C31.4083 15.3146 30.6717 15.2121 29.9723 15.0789ZM30.4552 16.8697C31.1085 17.1131 31.2917 17.8496 31.831 18.2403C31.7503 18.2403 31.5876 18.2391 31.5056 18.2391C31.8566 18.5798 32.173 19.0012 32.2576 19.4931C32.2332 19.994 31.6837 20.3399 31.2149 20.1567C31.3289 20.2899 31.4839 20.3757 31.6312 20.4654C31.0176 20.6537 30.5897 21.2506 29.9275 21.3326C28.8732 21.1968 27.6589 21.4376 26.7955 20.6639C26.7737 20.5896 26.7519 20.5141 26.7289 20.4398C26.588 20.4026 26.4445 20.3667 26.3023 20.3296C26.4791 20.3104 26.6559 20.2912 26.8314 20.272C26.8455 20.2194 26.8736 20.1157 26.8877 20.0632C26.383 20.2566 25.7528 19.7788 25.9039 19.2331C26.0589 18.8014 26.3612 18.4338 26.6905 18.1199C26.6841 18.0456 26.6725 17.897 26.6674 17.8227C26.921 17.4705 27.2515 17.1861 27.5641 16.8902C27.7037 16.9261 27.842 16.9632 27.9804 16.9991C28.5748 16.2228 29.7084 16.4713 30.4552 16.8697Z" fill="#013BA5"/>
<path d="M16.5252 15.1934C16.0743 15.0717 15.6106 15.1896 15.1571 15.2408C14.5794 15.2882 14.0721 15.5918 13.5905 15.8903C13.0115 16.2694 12.4082 16.687 12.102 17.3326C12.0328 17.7579 12.0431 18.1909 11.9944 18.6187C11.9368 19.1183 12.1302 19.5948 12.2672 20.0649C12.722 20.2135 12.8565 20.6798 13.1114 21.0282C13.5341 21.3767 14.0696 21.5765 14.4142 22.0223C14.9611 22.1709 15.5363 22.1747 16.0935 22.2759C16.6981 22.3963 17.3015 22.2221 17.8933 22.1171C18.4761 22.0402 18.9232 21.6252 19.3728 21.2844C19.825 20.8182 20.4155 20.3442 20.4104 19.632C20.4129 18.9569 20.6128 18.2242 20.2644 17.5978C20.0415 17.225 19.7545 16.892 19.5624 16.4987C19.4471 16.4462 19.3305 16.395 19.214 16.3437C19.0731 15.9556 18.6862 15.8723 18.3224 15.8121C18.2276 15.6917 18.1315 15.5726 18.0355 15.4534C17.5256 15.4112 17.0209 15.3202 16.5252 15.1934ZM16.4893 16.3501C16.93 16.4616 17.4898 16.3117 17.8126 16.7024C18.2391 17.1366 18.7093 17.5453 19.009 18.0807C19.132 18.2306 19.0833 18.3946 18.9642 18.5303C19.1845 18.7763 19.319 19.0799 19.4509 19.3783C19.3523 19.8882 18.7118 20.3685 18.266 19.9292C18.1994 20.1136 18.1328 20.3006 18.0662 20.4864C17.0991 20.7836 16.073 20.945 15.0687 20.7515C14.8727 20.7003 14.7933 20.4941 14.6729 20.3532C14.4897 20.2686 14.3027 20.1905 14.117 20.1098C13.7954 20.2917 13.3266 20.193 13.1524 19.8536C12.8719 19.4078 13.2228 18.9018 13.497 18.5483C13.4585 18.465 13.3817 18.2985 13.3445 18.2152C13.6315 17.6055 13.9786 16.933 14.6255 16.6435C15.2109 16.3988 15.8527 16.1913 16.4893 16.3501Z" fill="#013EA7"/>
<path d="M16.4914 16.352C15.8548 16.1932 15.213 16.4007 14.6276 16.6453C13.9807 16.9348 13.6336 17.6074 13.3466 18.2171C13.3838 18.3004 13.4606 18.4669 13.4991 18.5502C14.5315 17.346 16.3928 16.9092 17.8288 17.6074C18.2758 17.82 18.6422 18.1646 18.9663 18.5322C19.0854 18.3964 19.1341 18.2325 19.0111 18.0826C18.7113 17.5472 18.2412 17.1385 17.8147 16.7043C17.4919 16.3136 16.9321 16.4635 16.4914 16.352Z" fill="#0252B8"/>
<path d="M30.4541 16.8708C29.7073 16.4724 28.5736 16.2239 27.9792 17.0002C27.8409 16.9643 27.7025 16.9272 27.5629 16.8913C27.2504 17.1872 26.9199 17.4716 26.6662 17.8239C26.6714 17.8982 26.6829 18.0468 26.6893 18.1211C28.0215 16.899 30.1979 17.0681 31.5045 18.2402C31.5865 18.2402 31.7491 18.2415 31.8298 18.2415C31.2905 17.8508 31.1074 17.1142 30.4541 16.8708Z" fill="#0254BB"/>
<path d="M2.54456 16.675C2.39981 17.4808 2.50101 18.3019 2.47411 19.1153C2.48564 19.7596 2.41647 20.4116 2.542 21.0496C2.60733 20.4936 2.58427 19.9326 2.57403 19.3741C2.55866 18.4748 2.64448 17.573 2.54456 16.675Z" fill="#191B83"/>
<path d="M42.8239 19.3755C42.8009 18.5557 42.8828 17.7308 42.7637 16.9148C42.6548 18.2111 42.674 19.5229 42.7445 20.8205C42.8944 20.3555 42.806 19.8559 42.8239 19.3755Z" fill="#21227B"/>
<path d="M40.1407 16.97L40.0023 16.8137C40.0049 18.087 40.0677 19.3616 39.9972 20.6349L40.1317 20.4876C40.3034 19.3219 40.2265 18.1382 40.1407 16.97Z" fill="#060556"/>
<path d="M40.0013 16.8137C39.758 17.2902 39.9014 17.8385 39.8963 18.3483C39.9488 19.0298 39.8425 19.7126 39.8835 20.394C39.9117 20.4542 39.968 20.5747 39.9962 20.6349C40.0667 19.3616 40.0039 18.087 40.0013 16.8137Z" fill="#16157F"/>
<path d="M43.3183 17.1743L43.2824 17.3127C43.2453 17.4651 43.2094 17.6175 43.1761 17.7725C43.2337 18.7051 43.2094 19.6402 43.1927 20.574C43.2299 20.7188 43.2683 20.8622 43.3067 21.007C43.4079 19.7337 43.3759 18.4489 43.3183 17.1743Z" fill="#010B48"/>
<path d="M31.5039 18.2401C30.1973 17.0681 28.021 16.899 26.6888 18.121C26.3595 18.4349 26.0572 18.8025 25.9022 19.2342C25.7511 19.7799 26.3813 20.2577 26.886 20.0643C27.1089 19.8247 27.3087 19.5672 27.5009 19.3046C28.2887 18.4067 29.8041 18.5527 30.6162 19.3418C30.8173 19.6121 30.9826 19.9105 31.2131 20.1578C31.682 20.3409 32.2315 19.9951 32.2559 19.4942C32.1713 19.0023 31.8549 18.5809 31.5039 18.2401Z" fill="#01E1FF"/>
<path d="M17.8276 17.6069C16.3917 16.9087 14.5304 17.3455 13.4979 18.5497C13.2238 18.9032 12.8728 19.4092 13.1534 19.855C13.3276 20.1944 13.7964 20.2931 14.1179 20.1112C14.3882 19.7602 14.6085 19.3631 14.9595 19.0825C15.7435 18.6073 16.8029 18.5087 17.5676 19.0761C17.8238 19.3413 18.0313 19.6474 18.267 19.9305C18.7128 20.3699 19.3533 19.8895 19.4519 19.3797C19.32 19.0813 19.1855 18.7777 18.9651 18.5317C18.641 18.1641 18.2747 17.8195 17.8276 17.6069Z" fill="#02E2FF"/>
<path d="M2.08912 17.6666C2.06094 17.591 2.00458 17.4398 1.9764 17.3643C1.88673 18.5748 1.91875 19.7943 1.96359 21.0061C1.99305 20.9497 2.04941 20.8344 2.07759 20.778C2.11218 19.7417 2.07887 18.7029 2.08912 17.6666Z" fill="#000651"/>
<path d="M2.22105 19.371C2.19287 18.8035 2.32353 18.2053 2.08911 17.666C2.07886 18.7023 2.11217 19.7412 2.07758 20.7775C2.30688 20.3445 2.20312 19.8385 2.22105 19.371Z" fill="#191B80"/>
<path d="M43.1754 17.771C43.0217 18.6907 43.005 19.6566 43.1921 20.5725C43.2087 19.6387 43.2331 18.7035 43.1754 17.771Z" fill="#191C79"/>
<path d="M42.5252 17.906L42.5227 17.9841C42.4291 18.9064 42.5752 19.8403 42.4445 20.7549C41.8796 21.6516 40.8331 22.1307 39.798 22.2024C39.8108 22.1396 39.8365 22.0115 39.8493 21.9475C39.57 22.9044 39.2203 23.8446 38.7233 24.7118C39.1896 24.7349 39.661 24.7733 40.1234 24.6939C41.3019 24.4492 42.287 23.4103 42.4086 22.2037C42.5521 20.7767 42.6239 19.3381 42.5252 17.906Z" fill="#A8A7CD"/>
<path d="M39.3606 19.7336C39.0391 20.688 38.642 21.6218 38.1142 22.4826C36.7346 24.7589 34.5326 26.4536 32.0885 27.4579C29.6098 28.5006 26.9172 28.9157 24.2464 29.0553C21.491 29.1616 18.7049 29.0194 16.0149 28.3776C13.9013 27.8678 11.8389 27.0288 10.0942 25.7132C8.13304 24.2644 6.7022 22.1713 5.94258 19.863C5.95027 20.8852 6.24489 21.8806 6.58691 22.8362C7.449 25.1816 9.15014 27.1812 11.2791 28.4801C14.2779 30.3452 17.862 30.9652 21.3399 31.1112C25.1572 31.2188 29.1064 30.8794 32.606 29.2385C35.013 28.0997 37.1035 26.2128 38.2666 23.7982C38.8661 22.5236 39.3042 21.1478 39.3606 19.7336Z" fill="#A8A7CD"/>
<path d="M37.5228 18.6938C37.3973 19.3446 37.387 20.044 37.5292 20.6934C37.5971 20.0299 37.5997 19.3574 37.5228 18.6938Z" fill="#21227C"/>
<path d="M30.6169 19.342C29.8048 18.553 28.2894 18.4069 27.5016 19.3049C27.6912 19.5431 27.827 19.8442 28.0883 20.0158C28.634 20.1747 29.2694 20.199 29.7741 19.9031C30.07 19.7391 30.3415 19.538 30.6169 19.342Z" fill="#026BCF"/>
<path d="M17.5674 19.0763C16.8026 18.5088 15.7433 18.6075 14.9593 19.0827C15.3628 19.6246 16.0379 19.9 16.7066 19.7719C17.1383 19.7924 17.3278 19.3517 17.5674 19.0763Z" fill="#026DD2"/>
<path d="M18.2671 19.9294C18.0314 19.6463 17.8239 19.3401 17.5677 19.075C17.3281 19.3504 17.1386 19.791 16.7069 19.7705C16.0382 19.8986 15.3631 19.6232 14.9596 19.0814C14.6086 19.3619 14.3883 19.759 14.118 20.11C14.3038 20.1907 14.4908 20.2688 14.674 20.3534C14.7944 20.4943 14.8738 20.7005 15.0698 20.7517C16.0741 20.9452 17.1001 20.7838 18.0673 20.4866C18.1339 20.3008 18.2005 20.1138 18.2671 19.9294Z" fill="#0159C1"/>
<path d="M31.2138 20.1578C30.9832 19.9106 30.818 19.6121 30.6169 19.3418C30.3415 19.5378 30.0699 19.7389 29.774 19.9029C29.2693 20.1988 28.6339 20.1745 28.0882 20.0156C27.8269 19.844 27.6911 19.5429 27.5016 19.3047C27.3094 19.5673 27.1096 19.8248 26.8867 20.0643C26.8726 20.1168 26.8444 20.2206 26.8303 20.2731C26.6548 20.2923 26.4781 20.3115 26.3013 20.3307C26.4435 20.3679 26.5869 20.4038 26.7278 20.4409C26.7509 20.5152 26.7727 20.5908 26.7945 20.6651C27.6578 21.4388 28.8722 21.198 29.9264 21.3337C30.5887 21.2518 31.0165 20.6548 31.6301 20.4665C31.4828 20.3769 31.3278 20.291 31.2138 20.1578Z" fill="#0151B7"/>
<path d="M4.00872 21.8046C3.52067 21.5612 3.1415 21.1589 2.77514 20.7644C2.7982 21.3498 2.82253 21.9391 2.92629 22.5168C3.17736 23.5889 4.09198 24.4715 5.16928 24.6944C5.62402 24.7649 6.08517 24.7341 6.54248 24.7188C6.10054 23.9476 5.79439 23.1124 5.51002 22.2747C5.01812 22.0915 4.47627 22.0582 4.00872 21.8046Z" fill="#A8A6CF"/>
<path d="M40.1741 25.3114C39.5976 25.2371 39.0109 25.2319 38.4384 25.3383C39.0148 25.3818 39.6079 25.4625 40.1741 25.3114Z" fill="#1A1E7A"/>
<path d="M6.82605 25.2693C6.25858 25.3051 5.66037 25.163 5.11339 25.3525C5.68343 25.4127 6.2573 25.3782 6.82861 25.3769L6.82605 25.2693Z" fill="#1E227B"/>
<path d="M24.3206 25.7463C23.9388 25.608 23.5353 25.6208 23.1562 25.763C23.5443 25.7604 23.9324 25.7553 24.3206 25.7463Z" fill="#191A84"/>
<path d="M21.9321 25.7636C21.6836 25.5689 21.2993 25.4703 21.0841 25.77C21.3672 25.7905 21.6503 25.788 21.9321 25.7636Z" fill="#1A1B83"/>
<path d="M25.0977 26.1032C24.853 25.9559 24.6006 25.8086 24.3188 25.7471C23.9307 25.756 23.5426 25.7612 23.1544 25.7637C22.7484 25.8073 22.3384 25.8009 21.9311 25.7637C21.6493 25.7881 21.3662 25.7906 21.0831 25.7701C21.0203 25.8278 20.8922 25.9405 20.8282 25.9981C22.2501 25.8393 23.686 25.8764 25.0977 26.1032Z" fill="#0A0A59"/>
<path d="M0.920828 25.8606C0.899051 25.9157 0.854217 26.0246 0.83244 26.0796C0.826035 26.2615 0.81963 26.4434 0.811944 26.6266C1.09248 28.5109 2.31965 30.084 3.56347 31.4597C5.37733 33.3645 7.49734 34.9517 9.6814 36.4068C9.50334 35.6677 9.35347 34.9196 9.28942 34.1626C9.21512 33.4414 9.21128 32.7138 9.28302 31.9939C8.3684 32.7573 6.96189 32.8381 6.01141 32.0938C4.20396 30.6783 2.48618 29.0938 1.21289 27.1685C0.91186 26.797 0.808102 26.3256 0.920828 25.8606Z" fill="#A8A7CF"/>
<path d="M34.285 29.2751C31.007 31.2363 27.1257 31.8589 23.3596 31.9498C19.1337 31.9985 14.7041 31.4989 11.011 29.2854C10.9149 29.4596 10.8176 29.6338 10.719 29.8093L10.7305 29.8157C13.1349 31.358 15.9402 32.1625 18.7596 32.4917C21.67 32.8298 24.6265 32.7978 27.5215 32.352C30.0027 31.9639 32.434 31.1582 34.5579 29.8029C34.4656 29.6274 34.376 29.4506 34.285 29.2751Z" fill="#A8A7CF"/>
<path d="M10.2301 31.5029C9.81766 33.2348 10.1635 35.0448 10.626 36.7319C10.8732 37.6119 11.1921 38.4689 11.5367 39.3156C11.8262 39.1977 12.1208 39.0965 12.427 39.0325L12.4027 38.9928C11.8852 38.1665 11.5687 37.2366 11.228 36.3296C10.6477 34.7822 10.3365 33.149 10.2301 31.5029Z" fill="#A8A7CF"/>
<path d="M35.7253 36.5357C35.6945 36.5241 35.6317 36.4998 35.601 36.4883C35.3679 37.1646 35.1936 37.8615 34.9336 38.5314C35.8598 39.6843 36.9063 40.7693 38.1591 41.5699C38.7343 41.9055 39.3286 42.2821 40.0127 42.3167C40.6288 42.3577 41.2462 42.1322 41.6997 41.7159C41.1835 41.6532 40.6608 41.5686 40.192 41.3316C38.3986 40.4606 36.9037 38.9734 36.0596 37.1646C35.9597 36.9482 35.8649 36.7278 35.7253 36.5357Z" fill="#A8A7CF"/>
<path d="M33.4219 40.0727C33.1208 39.9612 32.8173 39.8588 32.5098 39.7653C31.4069 41.7021 29.9607 43.4532 28.2147 44.8456C26.6673 46.074 24.7049 46.7991 22.7219 46.7799C20.5724 46.8298 18.4255 46.0266 16.8013 44.624C15.1744 43.2662 13.8063 41.6022 12.7739 39.7524C12.469 39.8536 12.1641 39.9574 11.8618 40.0676C12.8251 42.071 14.0741 43.9502 15.6612 45.5143C16.6181 46.4596 17.6736 47.3396 18.9136 47.8853C21.7368 49.1881 25.2249 48.8794 27.7702 47.095C30.2387 45.3106 32.1127 42.8037 33.4219 40.0727Z" fill="#A8A7CF"/>
<path d="M0.833496 26.0813C0.576021 26.057 0.565772 26.6347 0.813 26.6283C0.820686 26.4451 0.827091 26.2632 0.833496 26.0813Z" fill="#050844"/>
<path d="M30.4626 26.3821C30.2846 26.3026 30.0924 26.2668 29.8965 26.2745C29.2906 26.2834 28.677 26.2411 28.0762 26.3526C28.8653 26.4615 29.6697 26.4333 30.4626 26.3821Z" fill="#20217B"/>
<path d="M17.2261 26.3649C16.4088 26.2484 15.5582 26.2266 14.741 26.3573C15.5647 26.4559 16.4024 26.4469 17.2261 26.3649Z" fill="#20207C"/>
<path d="M35.8206 29.3858C35.622 29.1732 35.4094 28.9708 35.1634 28.8132C35.1275 29.3487 35.4978 29.7932 35.6374 30.2915C35.6515 29.9815 35.7283 29.6805 35.8206 29.3858Z" fill="#A2A6CD"/>
<path d="M35.2323 32.691C35.2323 32.2913 35.1682 31.8955 35.0606 31.5112C34.9569 32.4028 34.9095 33.3059 34.6917 34.1795C34.2946 35.8601 33.6938 37.4934 32.9022 39.028C33.1891 39.1125 33.4722 39.2086 33.7527 39.3136C34.5982 37.2103 35.3078 34.9839 35.2323 32.691Z" fill="#A7A7CF"/>
<path d="M9.40619 32.8265C9.39722 32.5472 9.44462 32.2423 9.2845 31.9951C9.21277 32.715 9.21661 33.4426 9.2909 34.1638C9.43309 33.7321 9.39466 33.2722 9.40619 32.8265Z" fill="#050454"/>
<path d="M36.0193 32.2349L35.913 32.3181C35.9041 32.7985 35.9015 33.2801 35.9053 33.7618C35.9335 33.7989 35.9912 33.8719 36.0193 33.9091C36.0821 33.3532 36.086 32.7908 36.0193 32.2349Z" fill="#070655"/>
<path d="M35.9114 32.3196C35.6654 32.7436 35.6898 33.3277 35.9037 33.7632C35.8998 33.2816 35.9024 32.7999 35.9114 32.3196Z" fill="#161784"/>
<path d="M25.8086 34.2919C24.6557 34.1651 23.4926 34.2842 22.3359 34.2509C21.3854 34.2983 20.4298 34.1715 19.4832 34.2944C20.0429 34.3969 20.613 34.3559 21.1792 34.3546C22.4179 34.3329 23.6566 34.3495 24.8953 34.37C25.2014 34.3777 25.5076 34.3457 25.8086 34.2919Z" fill="#1B1A83"/>
<path d="M27.5156 35.0868C25.5814 34.8626 23.6304 34.8331 21.6847 34.8446C20.1923 34.9113 18.6859 34.9087 17.2115 35.1828C16.5031 35.3212 15.9011 36.0936 16.1444 36.8186C16.5364 37.4373 16.7593 38.1432 17.1603 38.7555C17.8866 39.9749 18.9792 41.0113 20.3217 41.5121C21.5527 41.9745 22.9195 42.0207 24.1979 41.7453C25.7799 41.4084 27.1224 40.3221 27.9845 38.9796C28.4725 38.2725 28.7403 37.4476 29.1681 36.7059C29.2949 36.3229 29.0887 35.936 28.8581 35.6401C28.525 35.252 27.9998 35.1406 27.5156 35.0868Z" fill="#01CFFF"/>
<path d="M30.0123 37.0143C30.0673 36.7338 30.0737 36.4417 30.0059 36.165C29.8521 36.3815 29.7689 36.867 30.0123 37.0143Z" fill="#070939"/>
<path d="M29.1678 36.7041C28.74 37.4458 28.4723 38.2707 27.9842 38.9778C27.1221 40.3203 25.7797 41.4066 24.1976 41.7435C22.9192 42.0189 21.5524 41.9727 20.3214 41.5103C18.979 41.0095 17.8863 39.9731 17.16 38.7537C16.759 38.1414 16.5362 37.4355 16.1442 36.8168C16.1301 37.4099 16.3478 37.971 16.508 38.5321C17.0293 40.1512 17.8953 41.7486 19.3184 42.7413C20.6289 43.6777 22.3377 43.9044 23.8979 43.6214C25.2749 43.3588 26.506 42.5223 27.3386 41.4053C28.1354 40.3421 28.6503 39.0918 28.9821 37.8109C29.0756 37.4483 29.1934 37.0833 29.1678 36.7041Z" fill="#0187D1"/>
<path d="M43.293 39.2363C43.2034 39.6539 43.2136 40.0805 43.302 40.4981C43.3929 40.0818 43.3917 39.6501 43.293 39.2363Z" fill="#000A45"/>
<path d="M40.8726 42.9432C40.4037 42.769 39.8926 42.751 39.4199 42.9253C39.9041 42.9317 40.3884 42.9394 40.8726 42.9432Z" fill="#1A1882"/>
<path d="M41.0439 42.9819L40.8723 42.9435C40.3881 42.9396 39.9039 42.9319 39.4197 42.9255L39.3428 42.946L39.2352 43.0524C39.8309 43.1254 40.4739 43.2291 41.0439 42.9819Z" fill="#010657"/>
<path d="M27.2606 54.8099C24.3439 54.6204 21.413 54.5896 18.4949 54.7818C16.7554 54.9214 14.9979 55.0777 13.316 55.5734C12.9355 55.7092 12.4962 55.8283 12.2476 56.1716C12.1042 56.529 12.4923 56.7378 12.7562 56.8672C13.4325 57.1721 14.1691 57.3117 14.8929 57.4526C18.2349 58.0175 21.6372 58.047 25.0164 57.9675C27.121 57.8715 29.2372 57.7306 31.2957 57.2617C31.8632 57.1144 32.4716 56.9863 32.9315 56.6033C33.1723 56.3996 33.0173 56.0525 32.7829 55.9218C32.3833 55.6784 31.9221 55.5606 31.475 55.4338C30.0942 55.0866 28.6748 54.947 27.2606 54.8099Z" fill="#A5BFE4"/>
</svg>
