<svg width="25" height="25" viewBox="0 0 25 25" fill="none" xmlns="http://www.w3.org/2000/svg">
<path id="Vector" d="M12.5 0C10.8034 0 9.4375 1.36585 9.4375 3.0625V5.10936L7.99223 3.66404C6.79245 2.46436 4.86383 2.46436 3.66404 3.66404C2.46426 4.86372 2.46436 6.7925 3.66404 7.99223L5.10941 9.4375H3.0625C1.36596 9.4375 0 10.8034 0 12.5C0 14.1966 1.36596 15.5625 3.0625 15.5625H5.10941L3.6641 17.0078C2.46436 18.2075 2.46436 20.1362 3.6641 21.336C4.86383 22.5357 6.79245 22.5356 7.99223 21.336L9.4375 19.8906V21.9375C9.4375 23.6341 10.8034 25 12.5 25C14.1966 25 15.5625 23.6341 15.5625 21.9375V19.8906L17.0078 21.336C18.2076 22.5356 20.1362 22.5356 21.336 21.336C22.5357 20.1363 22.5357 18.2075 21.336 17.0078L19.8907 15.5625H21.9375C23.6341 15.5625 25 14.1966 25 12.5C25 10.8034 23.6341 9.4375 21.9375 9.4375H19.8907L21.3359 7.99218C22.5357 6.7925 22.5357 4.86378 21.3359 3.66404C20.1361 2.46431 18.2076 2.46436 17.0079 3.66404L15.5626 5.10936V3.06255C15.5626 1.36585 14.1966 0 12.5 0ZM12.5 1.75782C13.3787 1.75782 14.0937 2.47287 14.0937 3.35154C14.0937 4.23021 13.3787 4.94532 12.5 4.94532C11.6213 4.94532 10.9063 4.23027 10.9063 3.35154C10.9063 2.47282 11.6214 1.75782 12.5 1.75782ZM12.5 9.625C14.0879 9.625 15.375 10.9122 15.375 12.5C15.375 14.0878 14.0879 15.375 12.5 15.375C10.9121 15.375 9.625 14.0878 9.625 12.5C9.625 10.9122 10.9122 9.625 12.5 9.625ZM3.3516 10.9062C4.23032 10.9062 4.9375 11.6213 4.9375 12.5C4.9375 13.3787 4.23027 14.0937 3.3516 14.0937C2.47293 14.0937 1.75787 13.3787 1.75787 12.5C1.75787 11.6213 2.47293 10.9062 3.3516 10.9062ZM21.6406 10.9062C22.5193 10.9062 23.2344 11.6213 23.2344 12.5C23.2344 13.3787 22.5193 14.0937 21.6406 14.0937C20.762 14.0937 20.0547 13.3787 20.0547 12.5C20.0547 11.6213 20.762 10.9062 21.6406 10.9062ZM12.5 20.0547C13.3787 20.0547 14.0937 20.7698 14.0937 21.6485C14.0937 22.5272 13.3787 23.2422 12.5 23.2422C11.6213 23.2422 10.9062 22.5271 10.9062 21.6485C10.9062 20.7698 11.6214 20.0547 12.5 20.0547Z" fill="#429E9D"/>
</svg>
