<svg fill="#000000" height="64px" width="64px" version="1.1" id="Layer_1" xmlns="http://www.w3.org/2000/svg"
     xmlns:xlink="http://www.w3.org/1999/xlink" viewBox="0 0 512 512" xml:space="preserve"><g id="SVGRepo_bgCarrier" stroke-width="0"></g>
    <g id="SVGRepo_tracerCarrier" stroke-linecap="round" stroke-linejoin="round"></g>
    <g id="SVGRepo_iconCarrier"> <g> <g> <path
            d="M447.996,192c-8.789,0-16.939,2.667-23.723,7.211c-5.845-16.597-21.696-28.544-40.277-28.544 c-8.789,0-16.939,2.667-23.723,7.211c-5.845-16.597-21.696-28.544-40.277-28.544c-7.765,0-15.061,2.091-21.355,5.739v-7.808 c81.301-6.805,144.896-32.768,188.992-77.952c2.923-3.008,3.819-7.488,2.261-11.392c-1.557-3.904-5.269-6.549-9.493-6.699 c-25.664-1.003-43.883-13.099-63.168-25.92C398.524,12.864,379.196,0,354.001,0c-29.867,0-49.344,10.24-63.552,17.749 C282.684,7.04,270.161,0,255.974,0c-14.187,0-26.709,7.04-34.453,17.728C207.292,10.219,187.836,0,157.99,0 c-25.173,0-44.523,12.864-63.232,25.28C75.473,38.101,57.254,50.219,31.59,51.2c-4.224,0.171-7.787,2.987-9.344,6.891 c-0.341,0.875-0.107,1.813-0.213,2.731c-0.256,0.768-0.597,1.493-0.661,2.347c-0.427,5.355,3.243,9.92,8.32,11.072 c43.563,41.941,105.259,66.453,183.616,73.024v168.96c0,2.411-1.6,3.435-2.56,3.84c-0.939,0.427-2.773,0.811-4.523-0.896 l-17.365-17.365c-27.691-27.691-72.725-27.691-100.416,0c-4.16,4.16-4.16,10.923,0,15.083L240.678,469.12 C268.348,496.768,305.126,512,344.23,512c80.747,0,146.432-65.685,146.432-146.432V234.667 C490.662,211.136,471.526,192,447.996,192z M298.662,126.08V85.227c41.941-0.811,111.488-5.867,147.861-8.683 C408.721,104.085,359.27,120.789,298.662,126.08z M300.326,36.629c13.611-7.168,29.035-15.296,53.675-15.296 c18.752,0,33.899,10.069,51.435,21.717c6.805,4.523,13.995,9.216,21.675,13.547c-37.952,2.816-93.419,6.571-128.448,7.275V42.667 c0-1.664-0.107-3.328-0.32-4.992C299.004,37.333,299.644,36.971,300.326,36.629z M106.556,43.072 c17.536-11.669,32.683-21.739,51.435-21.739c24.64,0,40.064,8.128,53.696,15.317c0.661,0.341,1.323,0.683,1.963,1.024 c-0.192,1.472-0.256,2.923-0.277,4.395c0,0.213-0.064,0.384-0.064,0.597v21.227c-34.709-0.64-89.173-4.032-129.259-6.805 C92.07,52.651,99.494,47.765,106.556,43.072z M66.513,77.269c40.533,2.901,106.347,7.232,146.795,7.957v40.853 C153.382,120.853,104.337,104.448,66.513,77.269z M469.329,365.568c0,68.992-56.107,125.099-125.099,125.099 c-33.408,0-64.832-13.013-88.448-36.629L111.889,310.144c18.816-12.075,45.696-9.472,61.909,6.741l17.365,17.365 c7.317,7.317,18.261,9.515,27.776,5.525c9.536-3.968,15.723-13.205,15.723-23.552V137.579V42.667 c0-11.755,9.579-21.333,21.333-21.333s21.333,9.579,21.333,21.333v94.912v107.755c0,5.888,4.779,10.667,10.667,10.667 s10.667-4.779,10.667-10.667V192c0-11.755,9.579-21.333,21.333-21.333s21.333,9.579,21.333,21.333v32 c0,5.888,4.779,10.667,10.667,10.667c5.888,0,10.667-4.779,10.667-10.667v-10.667c0-11.755,9.579-21.333,21.333-21.333 c11.755,0,21.333,9.579,21.333,21.333v21.333c0,5.888,4.779,10.667,10.667,10.667c5.888,0,10.667-4.779,10.667-10.667 c0-11.755,9.579-21.333,21.333-21.333c11.755,0,21.333,9.579,21.333,21.333V365.568z"></path> </g> </g> </g></svg>