<svg version="1.1" id="Uploaded to svgrepo.com" xmlns="http://www.w3.org/2000/svg"
     xmlns:xlink="http://www.w3.org/1999/xlink" width="27px" height="27px" viewBox="0 0 32 32" xml:space="preserve"
     fill="#000000"><g id="SVGRepo_bgCarrier" stroke-width="0"></g>
    <g id="SVGRepo_tracerCarrier" stroke-linecap="round" stroke-linejoin="round"></g>
    <g id="SVGRepo_iconCarrier"> <style type="text/css"> .blueprint_een{fill:#111918;} .st0{fill:#0B1719;} </style>
        <path class="blueprint_een"
              d="M23,7l-1.703-2.555C21.111,4.167,20.799,4,20.465,4h-8.93c-0.334,0-0.647,0.167-0.832,0.445 L9,7H7V6H3v1H1C0.448,7,0,7.448,0,8v19c0,0.552,0.448,1,1,1h30c0.552,0,1-0.448,1-1V8c0-0.552-0.448-1-1-1H23z M30,26H2V14h6.262 C8.097,14.64,8,15.308,8,16c0,4.418,3.582,8,8,8s8-3.582,8-8c0-0.692-0.097-1.36-0.262-2H30V26z M16,9c3.86,0,7,3.14,7,7 s-3.14,7-7,7s-7-3.14-7-7S12.14,9,16,9z M30,13h-6.587C22.226,10.069,19.357,8,16,8s-6.226,2.069-7.413,5H2V9h8.07l2-3h7.859l2,3H30 V13z M16,22c3.314,0,6-2.686,6-6s-2.686-6-6-6s-6,2.686-6,6S12.686,22,16,22z M16,11c2.757,0,5,2.243,5,5s-2.243,5-5,5s-5-2.243-5-5 S13.243,11,16,11z"></path> </g></svg>