<svg width="20px" height="20px" viewBox="0 0 546 674" fill="none" xmlns="http://www.w3.org/2000/svg">
    <path d="M407.438 674C374.521 674 346.542 662.479 323.501 639.437C300.459 616.396 288.938 588.417 288.938 555.5H275.771C273.138 555.5 271.163 554.293 269.846 551.879C268.53 549.465 268.749 547.161 270.505 544.967L301.446 503.821C304.08 500.31 307.591 498.554 311.98 498.554C316.369 498.554 319.88 500.31 322.513 503.821L353.455 544.967C355.21 547.161 355.43 549.465 354.113 551.879C352.796 554.293 350.821 555.5 348.188 555.5H335.021C335.021 575.469 342.101 592.533 356.259 606.692C370.418 620.851 387.477 627.925 407.438 627.917C414.68 627.917 421.649 626.872 428.347 624.783C435.044 622.694 441.241 619.788 446.938 616.067C450.449 613.653 454.237 612.665 458.301 613.104C462.365 613.543 465.6 615.408 468.005 618.7L476.234 629.892C479.306 633.842 480.513 638.231 479.855 643.058C479.196 647.886 476.782 651.726 472.613 654.579C463.177 660.943 452.973 665.771 442.001 669.062C431.028 672.354 419.508 674 407.438 674ZM525.938 555.5H539.105C541.738 555.5 543.713 556.707 545.03 559.121C546.346 561.535 546.127 563.839 544.371 566.033L513.43 607.179C510.796 610.69 507.285 612.446 502.896 612.446C498.507 612.446 494.996 610.69 492.363 607.179L461.421 566.033C459.666 563.839 459.446 561.535 460.763 559.121C462.08 556.707 464.055 555.5 466.688 555.5H479.855C479.855 535.531 472.775 518.467 458.617 504.308C444.458 490.149 427.399 483.075 407.438 483.083C400.196 483.083 393.227 484.128 386.529 486.217C379.832 488.306 373.635 491.212 367.938 494.933C364.427 497.347 360.644 498.335 356.588 497.896C352.533 497.457 349.294 495.592 346.871 492.3L338.642 481.108C335.57 477.158 334.416 472.769 335.179 467.942C335.943 463.114 338.304 459.274 342.263 456.421C351.699 450.276 361.903 445.501 372.876 442.095C383.848 438.69 395.369 436.991 407.438 437C440.355 437 468.334 448.521 491.376 471.562C514.417 494.604 525.938 522.583 525.938 555.5Z" fill="#646464"/>
    <path d="M349.25 63.5998H63.5V572.4H254L254 636L444.5 413.4L444.5 159H349.25V63.5998ZM63.5 0H381L508 127.2L508 413.4H444.5L254 636H63.5C46.6588 636 30.5073 629.3 18.5987 617.372C6.69017 605.443 0 589.267 0 572.4V63.5998C0 46.7322 6.69017 30.5553 18.5987 18.628C30.5073 6.7007 46.6588 0 63.5 0ZM127 286.2H381V349.8H127V286.2ZM127 413.4H301.5L301.5 477H127V413.4Z" fill="#646464"/>
</svg>