<svg width="18" height="16" viewBox="0 0 18 16" fill="none" xmlns="http://www.w3.org/2000/svg">
<path d="M2.42308 15.3H1.03846C0.763044 15.3 0.498908 15.2194 0.304158 15.0759C0.109409 14.9325 0 14.7379 0 14.535V9.945C0 9.74211 0.109409 9.54753 0.304158 9.40406C0.498908 9.2606 0.763044 9.18 1.03846 9.18H2.42308C2.69849 9.18 2.96263 9.2606 3.15738 9.40406C3.35213 9.54753 3.46154 9.74211 3.46154 9.945V14.535C3.46154 14.7379 3.35213 14.9325 3.15738 15.0759C2.96263 15.2194 2.69849 15.3 2.42308 15.3ZM12.1154 15.3H10.7308C10.4554 15.3 10.1912 15.2194 9.99647 15.0759C9.80172 14.9325 9.69231 14.7379 9.69231 14.535V6.885C9.69231 6.68211 9.80172 6.48753 9.99647 6.34406C10.1912 6.2006 10.4554 6.12 10.7308 6.12H12.1154C12.3908 6.12 12.6549 6.2006 12.8497 6.34406C13.0444 6.48753 13.1538 6.68211 13.1538 6.885V14.535C13.1538 14.7379 13.0444 14.9325 12.8497 15.0759C12.6549 15.2194 12.3908 15.3 12.1154 15.3ZM16.9615 15.3H15.5769C15.3015 15.3 15.0374 15.2194 14.8426 15.0759C14.6479 14.9325 14.5385 14.7379 14.5385 14.535V3.315C14.5385 3.11211 14.6479 2.91753 14.8426 2.77406C15.0374 2.6306 15.3015 2.55 15.5769 2.55H16.9615C17.237 2.55 17.5011 2.6306 17.6958 2.77406C17.8906 2.91753 18 3.11211 18 3.315V14.535C18 14.7379 17.8906 14.9325 17.6958 15.0759C17.5011 15.2194 17.237 15.3 16.9615 15.3ZM7.26923 15.3H5.88462C5.6092 15.3 5.34506 15.2194 5.15031 15.0759C4.95556 14.9325 4.84615 14.7379 4.84615 14.535V0.765C4.84615 0.562109 4.95556 0.367529 5.15031 0.224063C5.34506 0.080598 5.6092 0 5.88462 0H7.26923C7.54465 0 7.80878 0.080598 8.00353 0.224063C8.19828 0.367529 8.30769 0.562109 8.30769 0.765V14.535C8.30769 14.7379 8.19828 14.9325 8.00353 15.0759C7.80878 15.2194 7.54465 15.3 7.26923 15.3Z" fill="#4CBC79"/>
</svg>
