<svg width="36" height="36" viewBox="0 0 36 36" fill="none" xmlns="http://www.w3.org/2000/svg">
    <path d="M6.552 27L5.274 28.278C4.93875 28.6153 4.75057 29.0715 4.75057 29.547C4.75057 30.0225 4.93875 30.4788 5.274 30.816C5.61125 31.1513 6.06747 31.3394 6.543 31.3394C7.01854 31.3394 7.47475 31.1513 7.812 30.816L9.09 29.538C9.38489 29.1937 9.53898 28.7507 9.52148 28.2977C9.50398 27.8447 9.31618 27.415 8.99562 27.0944C8.67505 26.7738 8.24531 26.586 7.7923 26.5685C7.33928 26.551 6.89634 26.7051 6.552 27ZM5.4 18C5.4 17.5226 5.21036 17.0648 4.87279 16.7272C4.53523 16.3896 4.07739 16.2 3.6 16.2H1.8C1.32261 16.2 0.864773 16.3896 0.527208 16.7272C0.189642 17.0648 0 17.5226 0 18C0 18.4774 0.189642 18.9352 0.527208 19.2728C0.864773 19.6104 1.32261 19.8 1.8 19.8H3.6C4.07739 19.8 4.53523 19.6104 4.87279 19.2728C5.21036 18.9352 5.4 18.4774 5.4 18ZM18 5.4C18.4774 5.4 18.9352 5.21036 19.2728 4.87279C19.6104 4.53523 19.8 4.07739 19.8 3.6V1.8C19.8 1.32261 19.6104 0.864773 19.2728 0.527208C18.9352 0.189642 18.4774 0 18 0C17.5226 0 17.0648 0.189642 16.7272 0.527208C16.3896 0.864773 16.2 1.32261 16.2 1.8V3.6C16.2 4.07739 16.3896 4.53523 16.7272 4.87279C17.0648 5.21036 17.5226 5.4 18 5.4ZM6.552 9.09C6.88727 9.42254 7.33979 9.61001 7.812 9.612C8.04889 9.61337 8.28372 9.56797 8.50303 9.47839C8.72234 9.38881 8.92181 9.25683 9.09 9.09C9.42525 8.75275 9.61343 8.29653 9.61343 7.821C9.61343 7.34547 9.42525 6.88925 9.09 6.552L7.812 5.274C7.46766 4.97911 7.02472 4.82502 6.5717 4.84252C6.11869 4.86002 5.68896 5.04782 5.36839 5.36839C5.04782 5.68896 4.86002 6.11869 4.84252 6.5717C4.82502 7.02472 4.97911 7.46766 5.274 7.812L6.552 9.09ZM28.152 9.612C28.6242 9.61001 29.0767 9.42254 29.412 9.09L30.69 7.812C30.8784 7.65064 31.0315 7.45206 31.1395 7.22875C31.2476 7.00543 31.3083 6.76219 31.3178 6.5143C31.3274 6.2664 31.2856 6.0192 31.1951 5.78822C31.1047 5.55723 30.9674 5.34745 30.792 5.17203C30.6166 4.99661 30.4068 4.85935 30.1758 4.76885C29.9448 4.67836 29.6976 4.63659 29.4497 4.64616C29.2018 4.65574 28.9586 4.71645 28.7353 4.82449C28.5119 4.93254 28.3134 5.08557 28.152 5.274L27 6.552C26.6647 6.88925 26.4766 7.34547 26.4766 7.821C26.4766 8.29653 26.6647 8.75275 27 9.09C27.3173 9.40565 27.7409 9.59175 28.188 9.612H28.152ZM34.2 16.2H32.4C31.9226 16.2 31.4648 16.3896 31.1272 16.7272C30.7896 17.0648 30.6 17.5226 30.6 18C30.6 18.4774 30.7896 18.9352 31.1272 19.2728C31.4648 19.6104 31.9226 19.8 32.4 19.8H34.2C34.6774 19.8 35.1352 19.6104 35.4728 19.2728C35.8104 18.9352 36 18.4774 36 18C36 17.5226 35.8104 17.0648 35.4728 16.7272C35.1352 16.3896 34.6774 16.2 34.2 16.2ZM18 30.6C17.5226 30.6 17.0648 30.7896 16.7272 31.1272C16.3896 31.4648 16.2 31.9226 16.2 32.4V34.2C16.2 34.6774 16.3896 35.1352 16.7272 35.4728C17.0648 35.8104 17.5226 36 18 36C18.4774 36 18.9352 35.8104 19.2728 35.4728C19.6104 35.1352 19.8 34.6774 19.8 34.2V32.4C19.8 31.9226 19.6104 31.4648 19.2728 31.1272C18.9352 30.7896 18.4774 30.6 18 30.6ZM29.448 27C29.106 26.8098 28.7114 26.7362 28.3238 26.7904C27.9363 26.8445 27.5769 27.0235 27.3002 27.3002C27.0235 27.5769 26.8445 27.9363 26.7904 28.3238C26.7362 28.7114 26.8098 29.106 27 29.448L28.278 30.726C28.6153 31.0613 29.0715 31.2494 29.547 31.2494C30.0225 31.2494 30.4788 31.0613 30.816 30.726C31.1513 30.3888 31.3394 29.9325 31.3394 29.457C31.3394 28.9815 31.1513 28.5253 30.816 28.188L29.448 27ZM18 8.1C16.042 8.1 14.1279 8.68063 12.4999 9.76845C10.8718 10.8563 9.6029 12.4024 8.85359 14.2114C8.10429 16.0204 7.90823 18.011 8.29023 19.9314C8.67222 21.8518 9.6151 23.6158 10.9996 25.0004C12.3842 26.3849 14.1482 27.3278 16.0686 27.7098C17.989 28.0918 19.9796 27.8957 21.7886 27.1464C23.5976 26.3971 25.1437 25.1282 26.2316 23.5001C27.3194 21.8721 27.9 19.958 27.9 18C27.8952 15.3758 26.8507 12.8605 24.9951 11.0049C23.1395 9.14932 20.6242 8.10476 18 8.1ZM18 24.3C16.754 24.3 15.5359 23.9305 14.4999 23.2383C13.4639 22.546 12.6564 21.5621 12.1796 20.4109C11.7027 19.2597 11.578 17.993 11.8211 16.7709C12.0641 15.5489 12.6642 14.4263 13.5452 13.5452C14.4263 12.6642 15.5489 12.0641 16.7709 11.8211C17.993 11.578 19.2597 11.7027 20.4109 12.1796C21.5621 12.6564 22.546 13.4639 23.2383 14.4999C23.9305 15.5359 24.3 16.754 24.3 18C24.3 19.6709 23.6363 21.2733 22.4548 22.4548C21.2733 23.6363 19.6709 24.3 18 24.3Z" fill="#7B7B7B"/>
</svg>

