<?xml version="1.0" encoding="UTF-8"?>
<svg xmlns="http://www.w3.org/2000/svg" xmlns:xlink="http://www.w3.org/1999/xlink" width="20px" height="20px" viewBox="0 0 20 20" version="1.1">
<g id="surface1">
<path style=" stroke:none;fill-rule:nonzero;fill:rgb(28.627452%,29.803923%,30.588236%);fill-opacity:1;" d="M 3.332031 1.667969 C 3.332031 0.746094 2.585938 0 1.667969 0 C 0.746094 0 0 0.746094 0 1.667969 C 0 2.585938 0.746094 3.332031 1.667969 3.332031 C 2.585938 3.332031 3.332031 2.585938 3.332031 1.667969 Z M 3.332031 1.667969 "/>
<path style=" stroke:none;fill-rule:nonzero;fill:rgb(28.627452%,29.803923%,30.588236%);fill-opacity:1;" d="M 3.332031 6.667969 C 3.332031 5.746094 2.585938 5 1.667969 5 C 0.746094 5 0 5.746094 0 6.667969 C 0 7.585938 0.746094 8.332031 1.667969 8.332031 C 2.585938 8.332031 3.332031 7.585938 3.332031 6.667969 Z M 3.332031 6.667969 "/>
<path style=" stroke:none;fill-rule:nonzero;fill:rgb(28.627452%,29.803923%,30.588236%);fill-opacity:1;" d="M 3.332031 16.667969 C 3.332031 15.746094 2.585938 15 1.667969 15 C 0.746094 15 0 15.746094 0 16.667969 C 0 17.585938 0.746094 18.332031 1.667969 18.332031 C 2.585938 18.332031 3.332031 17.585938 3.332031 16.667969 Z M 3.332031 16.667969 "/>
<path style=" stroke:none;fill-rule:nonzero;fill:rgb(28.627452%,29.803923%,30.588236%);fill-opacity:1;" d="M 3.332031 11.667969 C 3.332031 10.746094 2.585938 10 1.667969 10 C 0.746094 10 0 10.746094 0 11.667969 C 0 12.585938 0.746094 13.332031 1.667969 13.332031 C 2.585938 13.332031 3.332031 12.585938 3.332031 11.667969 Z M 3.332031 11.667969 "/>
<path style=" stroke:none;fill-rule:nonzero;fill:rgb(28.627452%,29.803923%,30.588236%);fill-opacity:1;" d="M 19.167969 2.5 L 6.664062 2.5 C 6.207031 2.5 5.832031 2.125 5.832031 1.667969 L 5.832031 1.664062 C 5.832031 1.207031 6.207031 0.832031 6.664062 0.832031 L 19.167969 0.832031 C 19.625 0.832031 20 1.207031 20 1.664062 L 20 1.667969 C 20 2.125 19.625 2.5 19.167969 2.5 Z M 19.167969 7.5 L 6.664062 7.5 C 6.207031 7.5 5.832031 7.125 5.832031 6.667969 L 5.832031 6.664062 C 5.832031 6.207031 6.207031 5.832031 6.664062 5.832031 L 19.167969 5.832031 C 19.625 5.832031 20 6.207031 20 6.664062 L 20 6.667969 C 20 7.125 19.625 7.5 19.167969 7.5 Z M 19.167969 12.5 L 6.664062 12.5 C 6.207031 12.5 5.832031 12.125 5.832031 11.667969 C 5.832031 11.207031 6.207031 10.832031 6.664062 10.832031 L 19.167969 10.832031 C 19.625 10.832031 20 11.207031 20 11.664062 L 20 11.667969 C 20 12.125 19.625 12.5 19.167969 12.5 Z M 19.167969 17.5 L 6.664062 17.5 C 6.207031 17.5 5.832031 17.125 5.832031 16.667969 C 5.832031 16.207031 6.207031 15.832031 6.664062 15.832031 L 19.167969 15.832031 C 19.625 15.832031 20 16.207031 20 16.664062 L 20 16.667969 C 20 17.125 19.625 17.5 19.167969 17.5 Z M 19.167969 17.5 "/>
</g>
</svg>
