<svg width="20" height="20" viewBox="0 0 21 24" fill="none" xmlns="http://www.w3.org/2000/svg">
    <path d="M18.6513 2.46089C18.6061 1.79319 18.3106 1.16768 17.8246 0.710847C17.3387 0.254012 16.6985 -6.18651e-05 16.0335 1.12992e-08H2.62366L2.44408 0.00586779C1.78063 0.051675 1.15922 0.349321 0.705505 0.838618C0.251788 1.32792 -0.000376825 1.97235 4.2267e-07 2.64161V20.829L0.0058309 21.0097C0.0510506 21.6774 0.346517 22.3029 0.832485 22.7597C1.31845 23.2166 1.95866 23.4706 2.62366 23.4706H11.4485L9.69937 21.7103H2.62366L2.50472 21.7021C2.29535 21.6732 2.10346 21.5689 1.96456 21.4086C1.82565 21.2483 1.74911 21.0428 1.7491 20.8301V2.64161L1.75727 2.52191C1.78601 2.3112 1.88959 2.11809 2.04887 1.9783C2.20814 1.8385 2.41232 1.76148 2.62366 1.76147H16.0335L16.1524 1.76968C16.3618 1.79861 16.5536 1.90286 16.6926 2.06315C16.8315 2.22344 16.908 2.42893 16.908 2.64161V16.2158L18.2595 14.8557C18.3839 14.7305 18.516 14.621 18.6559 14.5271V2.64044L18.6513 2.46089ZM14.3287 23.4694H14.24C14.0234 23.4585 13.8185 23.3669 13.6652 23.2124L10.75 20.2762C10.5861 20.111 10.4941 19.8869 10.4943 19.6534C10.4946 19.4199 10.5869 19.1961 10.7512 19.0311C10.9154 18.8662 11.138 18.7736 11.37 18.7738C11.602 18.7741 11.8245 18.867 11.9884 19.0323L14.2844 21.3453L19.4967 16.0996C19.5774 16.0156 19.6739 15.9486 19.7807 15.9025C19.8874 15.8565 20.0021 15.8322 20.1183 15.8313C20.2344 15.8303 20.3495 15.8526 20.457 15.897C20.5645 15.9413 20.6621 16.0067 20.7441 16.0893C20.8262 16.172 20.8911 16.2703 20.935 16.3785C20.979 16.4867 21.001 16.6026 21 16.7195C20.9989 16.8363 20.9747 16.9518 20.9288 17.0592C20.883 17.1665 20.8163 17.2636 20.7327 17.3448L14.9024 23.2124C14.7493 23.3666 14.5449 23.4582 14.3287 23.4694ZM11.4741 17.0162C11.4034 17.0129 11.3326 17.0129 11.2619 17.0162H8.44817C8.21623 17.0162 7.99378 16.9234 7.82977 16.7584C7.66576 16.5933 7.57362 16.3695 7.57362 16.136C7.57362 15.9026 7.66576 15.6787 7.82977 15.5137C7.99378 15.3486 8.21623 15.2559 8.44817 15.2559H14.2832C14.5151 15.2559 14.7376 15.3486 14.9016 15.5137C15.0656 15.6787 15.1577 15.9026 15.1577 16.136C15.1577 16.3695 15.0656 16.5933 14.9016 16.7584C14.7376 16.9234 14.5151 17.0162 14.2832 17.0162H11.4741ZM5.83035 6.75014C5.83035 7.06138 5.70749 7.35987 5.48881 7.57995C5.27013 7.80003 4.97354 7.92367 4.66428 7.92367C4.35502 7.92367 4.05842 7.80003 3.83974 7.57995C3.62106 7.35987 3.49821 7.06138 3.49821 6.75014C3.49821 6.4389 3.62106 6.14041 3.83974 5.92033C4.05842 5.70025 4.35502 5.57661 4.66428 5.57661C4.97354 5.57661 5.27013 5.70025 5.48881 5.92033C5.70749 6.14041 5.83035 6.4389 5.83035 6.75014ZM7.57479 6.74779C7.57479 6.51436 7.66693 6.2905 7.83094 6.12544C7.99495 5.96038 8.21739 5.86765 8.44934 5.86765H14.2844C14.5163 5.86765 14.7387 5.96038 14.9028 6.12544C15.0668 6.2905 15.1589 6.51436 15.1589 6.74779C15.1589 6.98122 15.0668 7.20509 14.9028 7.37015C14.7387 7.53521 14.5163 7.62794 14.2844 7.62794H8.44934C8.21739 7.62794 7.99495 7.53521 7.83094 7.37015C7.66693 7.20509 7.57479 6.98122 7.57479 6.74779ZM8.44934 10.5618C8.21739 10.5618 7.99495 10.6545 7.83094 10.8196C7.66693 10.9846 7.57479 11.2085 7.57479 11.4419C7.57479 11.6753 7.66693 11.8992 7.83094 12.0643C7.99495 12.2293 8.21739 12.3221 8.44934 12.3221H14.2844C14.3992 12.3221 14.5129 12.2993 14.619 12.2551C14.7251 12.2108 14.8215 12.146 14.9028 12.0643C14.984 11.9825 15.0484 11.8855 15.0923 11.7787C15.1363 11.6719 15.1589 11.5575 15.1589 11.4419C15.1589 11.3263 15.1363 11.2119 15.0923 11.1051C15.0484 10.9983 14.984 10.9013 14.9028 10.8196C14.8215 10.7378 14.7251 10.673 14.619 10.6288C14.5129 10.5845 14.3992 10.5618 14.2844 10.5618H8.44934ZM4.66428 12.6154C4.97354 12.6154 5.27013 12.4918 5.48881 12.2717C5.70749 12.0516 5.83035 11.7532 5.83035 11.4419C5.83035 11.1307 5.70749 10.8322 5.48881 10.6121C5.27013 10.392 4.97354 10.2684 4.66428 10.2684C4.35502 10.2684 4.05842 10.392 3.83974 10.6121C3.62106 10.8322 3.49821 11.1307 3.49821 11.4419C3.49821 11.7532 3.62106 12.0516 3.83974 12.2717C4.05842 12.4918 4.35502 12.6154 4.66428 12.6154ZM5.83035 16.1337C5.83035 16.4449 5.70749 16.7434 5.48881 16.9635C5.27013 17.1836 4.97354 17.3072 4.66428 17.3072C4.35502 17.3072 4.05842 17.1836 3.83974 16.9635C3.62106 16.7434 3.49821 16.4449 3.49821 16.1337C3.49821 15.8224 3.62106 15.524 3.83974 15.3039C4.05842 15.0838 4.35502 14.9602 4.66428 14.9602C4.97354 14.9602 5.27013 15.0838 5.48881 15.3039C5.70749 15.524 5.83035 15.8224 5.83035 16.1337Z" fill="#646464"/>
</svg>
