<svg width="17" height="20" viewBox="0 0 17 19" fill="none" xmlns="http://www.w3.org/2000/svg">
    <path d="M4.25 0V2.25M4.25 2.25H0.5M4.25 2.25H8M6.5 2.25L4.25 6.75L1.25 9.75M2 5.25L6.5 9M10.25 15H14.75M15.5 18C15.5 17.25 12.5 9 12.5 9C12.5 9 9.5 17.25 9.5 18M1.25 12V14.25C1.25 14.6478 1.40804 15.0294 1.68934 15.3107C1.97064 15.592 2.35218 15.75 2.75 15.75H6.5M10.25 2.25H13.25C13.6478 2.25 14.0294 2.40804 14.3107 2.68934C14.592 2.97064 14.75 3.35218 14.75 3.75V6.75" stroke="#646464" stroke-width="1.5"/>
</svg>
