<svg width="24" height="24" viewBox="0 0 24 24" fill="none" xmlns="http://www.w3.org/2000/svg">
    <path d="M8.25 3V5.25M8.25 5.25H4.5M8.25 5.25H12M10.5 5.25L8.25 9.75L5.25 12.75M6 8.25L10.5 12M14.25 18H18.75M19.5 21C19.5 20.25 16.5 12 16.5 12C16.5 12 13.5 20.25 13.5 21M5.25 15V17.25C5.25 17.6478 5.40804 18.0294 5.68934 18.3107C5.97064 18.592 6.35218 18.75 6.75 18.75H10.5M14.25 5.25H17.25C17.6478 5.25 18.0294 5.40804 18.3107 5.68934C18.592 5.97064 18.75 6.35218 18.75 6.75V9.75" stroke="#646464"/>
</svg>
