<svg width="20" height="20" viewBox="0 0 11 13" fill="none" xmlns="http://www.w3.org/2000/svg">
    <path d="M1.95362 12.0849C1.59545 12.0849 1.28895 11.9536 1.03411 11.6908C0.779277 11.4281 0.651641 11.1119 0.651207 10.7422V2.01415C0.466699 2.01415 0.312146 1.9497 0.187549 1.8208C0.0629521 1.69189 0.000436382 1.53255 2.24553e-06 1.34277C-0.000431891 1.15299 0.0620838 0.993649 0.187549 0.864744C0.313015 0.735838 0.467567 0.671385 0.651207 0.671385H3.25602C3.25602 0.481159 3.31854 0.321817 3.44357 0.193359C3.5686 0.0649006 3.72316 0.00044759 3.90723 0H6.51205C6.69656 0 6.85133 0.064453 6.97636 0.193359C7.10139 0.322265 7.16369 0.481607 7.16325 0.671385H9.76807C9.95258 0.671385 10.1073 0.735838 10.2324 0.864744C10.3574 0.993649 10.4197 1.15299 10.4193 1.34277C10.4188 1.53255 10.3563 1.69211 10.2317 1.82147C10.1071 1.95082 9.95258 2.01505 9.76807 2.01415V10.7422C9.76807 11.1114 9.64065 11.4276 9.38581 11.6908C9.13097 11.954 8.82426 12.0854 8.46566 12.0849H1.95362ZM8.46566 2.01415H1.95362V10.7422H8.46566V2.01415ZM3.90723 9.39939C4.09174 9.39939 4.24651 9.33493 4.37154 9.20603C4.49657 9.07712 4.55887 8.91778 4.55843 8.728V4.02831C4.55843 3.83808 4.49592 3.67874 4.37089 3.55028C4.24586 3.42182 4.0913 3.35737 3.90723 3.35692C3.72316 3.35648 3.5686 3.42093 3.44357 3.55028C3.31854 3.67964 3.25602 3.83898 3.25602 4.02831V8.728C3.25602 8.91823 3.31854 9.07779 3.44357 9.2067C3.5686 9.3356 3.72316 9.39983 3.90723 9.39939ZM6.51205 9.39939C6.69656 9.39939 6.85133 9.33493 6.97636 9.20603C7.10139 9.07712 7.16369 8.91778 7.16325 8.728V4.02831C7.16325 3.83808 7.10074 3.67874 6.9757 3.55028C6.85067 3.42182 6.69612 3.35737 6.51205 3.35692C6.32797 3.35648 6.17342 3.42093 6.04839 3.55028C5.92336 3.67964 5.86084 3.83898 5.86084 4.02831V8.728C5.86084 8.91823 5.92336 9.07779 6.04839 9.2067C6.17342 9.3356 6.32797 9.39983 6.51205 9.39939Z" fill="#646464"/>
</svg>
