<svg width="20" height="18" viewBox="0 0 20 18" fill="none" xmlns="http://www.w3.org/2000/svg">
<path d="M0.879054 0.859072C0.608458 1.00746 0.486253 1.1995 0.486253 1.49628C0.486253 1.91527 0.774307 2.13349 1.35914 2.16841L1.83923 2.19459L1.86542 4.7347L1.88288 7.27481L1.14965 7.6938C0.233115 8.20881 0.0148926 8.42703 0.0148926 8.84601C0.0148926 9.49195 0.660831 9.67526 1.32423 9.21263C2.24076 8.58415 3.28823 8.26118 4.41426 8.26118C5.88944 8.26118 7.10276 8.76745 8.16768 9.82365C8.66523 10.3212 8.91837 10.6529 9.15405 11.1417C9.52939 11.9186 9.73889 12.6693 9.73889 13.2803C9.73889 13.5596 9.79999 13.8128 9.91346 14.0048L10.088 14.2841H11.0831H12.0782L12.1742 13.7429C12.5321 11.6742 14.4438 10.0942 16.5823 10.0942C17.0712 10.0942 17.9179 10.2863 18.3281 10.4958C18.4678 10.5569 18.5987 10.618 18.6162 10.618C18.6424 10.618 18.6424 10.0419 18.6249 9.3261C18.6074 8.24372 18.5725 8.00804 18.4329 7.79855C18.2146 7.47558 17.8568 7.301 17.3068 7.24863C17.0537 7.22244 16.722 7.18752 16.5736 7.16134L16.2856 7.11769V6.31463V5.50285L16.6696 5.1275C17.1759 4.62996 17.2981 4.3419 17.141 4.0102C16.9751 3.66105 16.6085 3.50393 16.2856 3.63486C15.9539 3.77452 15.177 4.59504 15.0199 4.98784C14.9326 5.17988 14.8889 5.59014 14.8889 6.15751V7.0304L14.4787 6.98676C14.243 6.96057 13.7716 6.91693 13.4138 6.88201L12.7678 6.82091L11.7378 4.59504C11.1704 3.37299 10.7078 2.3168 10.6991 2.2557C10.6991 2.18586 10.8562 2.15095 11.2141 2.15095C11.668 2.15095 11.7553 2.12476 11.9124 1.924C12.1655 1.60103 12.1393 1.31297 11.8426 1.00746L11.5894 0.754325H6.31716C2.67721 0.763054 1.00126 0.789241 0.879054 0.859072ZM9.10168 2.2557C9.24134 2.47392 11.2228 6.80345 11.1966 6.82964C11.1792 6.8471 9.39846 6.87328 7.22496 6.88201L3.2795 6.9082V4.52521V2.15095H6.15131C8.35972 2.15095 9.0493 2.17714 9.10168 2.2557Z" fill="#4CBC79"/>
<path d="M3.62857 9.2301C1.86534 9.52688 0.32905 11.1155 0.0497252 12.9486C-0.316889 15.3141 1.38525 17.5924 3.78569 17.9503C6.1425 18.3169 8.42074 16.6147 8.77862 14.223C9.13651 11.8924 7.45183 9.59671 5.11249 9.22137C4.46655 9.12535 4.3007 9.12535 3.62857 9.2301ZM4.9641 12.3114C5.86317 12.6867 6.08139 13.8564 5.38308 14.5547C4.8157 15.1221 4.01265 15.1221 3.44527 14.5547C2.36288 13.4811 3.55874 11.7178 4.9641 12.3114Z" fill="#4CBC79"/>
<path d="M15.299 11.2639C14.2952 11.6829 13.7802 12.1718 13.335 13.1232C13.1256 13.5771 13.0994 13.7255 13.0994 14.546C13.0994 15.3753 13.1256 15.5149 13.3438 15.9601C14.0508 17.4004 15.5609 18.2121 17.0536 17.9503C18.5549 17.6884 19.6897 16.5537 19.9516 15.0523C20.2134 13.5596 19.3929 12.0321 17.9614 11.3512C17.5511 11.1505 17.3242 11.1068 16.6346 11.0806C15.9101 11.0545 15.7442 11.0719 15.299 11.2639Z" fill="#4CBC79"/>
</svg>
