<svg width="19" height="15" viewBox="0 0 19 15" fill="none" xmlns="http://www.w3.org/2000/svg">
<path d="M0.858225 0.809546C0.684595 0.878997 0.530809 0.988135 0.377023 1.1568C0.00496084 1.57351 0 1.59336 0 3.8555C0 6.20197 0.00496084 6.22182 0.41671 6.63853C0.719321 6.93618 1.02689 7.05524 1.49817 7.05524H1.7859V8.33513C1.7859 9.76881 1.8107 9.91764 2.11332 10.2699C2.37624 10.5824 2.71854 10.7263 3.1799 10.7263H3.56188L3.58172 11.902C3.59661 13.0727 3.59661 13.0827 3.73055 13.3357C3.89426 13.6482 4.20183 13.921 4.50444 14.0202C4.83681 14.1343 14.1334 14.1393 14.5154 14.0252C14.8329 13.931 15.1454 13.6631 15.3191 13.3357C15.453 13.0827 15.453 13.0727 15.4679 11.902L15.4877 10.7263H15.8697C16.3311 10.7263 16.6734 10.5824 16.9363 10.2699C17.2389 9.91764 17.2637 9.76881 17.2637 8.33513V7.05524H17.5514C18.1517 7.05524 18.6726 6.76255 18.8958 6.29623C18.995 6.08787 19 6.0085 19 3.89022C19 2.10432 18.9851 1.66281 18.9305 1.52391C18.8115 1.23618 18.4742 0.918684 18.1765 0.804585C17.9136 0.710329 17.8044 0.705368 14.4956 0.705368C10.7898 0.705368 10.9138 0.695446 10.8444 0.978214C10.8097 1.12208 10.9188 1.37012 11.0379 1.41973C11.0825 1.43461 12.6303 1.44949 14.4757 1.44949C17.7201 1.44949 17.8392 1.45445 17.993 1.54871C18.3055 1.73722 18.3055 1.73722 18.3055 3.89022C18.3055 5.73565 18.3005 5.84975 18.2063 5.99858C18.0029 6.33592 18.6825 6.31111 9.5248 6.31111C0.367102 6.31111 1.04674 6.33592 0.843342 5.99858C0.749086 5.84975 0.744125 5.73565 0.744125 3.89022C0.744125 1.73722 0.744125 1.73722 1.05666 1.54871C1.21044 1.45445 1.3295 1.44949 4.61854 1.44949C7.98695 1.44949 8.02663 1.44949 8.15561 1.34532C8.32428 1.21137 8.3342 0.963331 8.1705 0.814507L8.0564 0.705368L4.58381 0.710329C1.24021 0.710329 1.10627 0.715289 0.858225 0.809546ZM4.66319 7.12965C4.75248 7.23879 4.68303 7.37769 4.20183 8.0474C3.70574 8.732 3.64621 8.91555 3.86449 9.09414C3.96371 9.17847 4.06788 9.1884 4.66319 9.1884C5.34778 9.1884 5.35274 9.1884 5.45196 9.05941C5.5859 8.89075 5.58094 8.77665 5.447 8.6179C5.36762 8.5286 5.26345 8.479 5.09478 8.45419L4.86162 8.41947L5.04021 8.17142C5.29321 7.82417 5.45692 7.45706 5.45692 7.23879V7.05524H10.9883H16.5196V8.29545C16.5196 9.31242 16.5047 9.56542 16.4452 9.68448C16.2815 10.002 16.723 9.98213 9.5248 9.98213C2.32663 9.98213 2.76815 10.002 2.60444 9.68448C2.54491 9.56542 2.53003 9.31242 2.53003 8.29545V7.05524H3.56684C4.41018 7.05524 4.61358 7.07012 4.66319 7.12965ZM5.89347 10.8602C5.91332 10.9991 6.12663 11.1727 6.27546 11.1727C6.59295 11.1727 6.74674 11.6242 6.50366 11.8226C6.26554 12.0161 6.00757 11.9268 5.88355 11.6043C5.75953 11.2769 5.52637 11.1876 5.28329 11.3811C5.15927 11.4753 5.14935 11.5101 5.16919 11.7283C5.23368 12.3683 5.94308 12.7999 6.60287 12.6064C7.25274 12.408 7.57023 11.6093 7.22794 11.0041C7.15352 10.8701 7.09399 10.756 7.09399 10.7461C7.09399 10.7362 8.80548 10.7312 10.9039 10.7362L14.7089 10.7511L14.7238 11.778C14.7386 12.9388 14.7089 13.0827 14.4261 13.2563C14.2674 13.3555 14.188 13.3555 9.5248 13.3555C4.86162 13.3555 4.78225 13.3555 4.6235 13.2563C4.34569 13.0876 4.31593 12.9388 4.31593 11.8028C4.31593 11.2471 4.33081 10.7759 4.35065 10.756C4.3705 10.7411 4.72272 10.7312 5.1295 10.7362C5.86371 10.7511 5.87859 10.756 5.89347 10.8602Z" fill="#440A46"/>
<path d="M6.60271 8.17617C6.54318 8.25058 6.49854 8.33988 6.49854 8.37461C6.49854 8.50855 6.6176 8.68714 6.74162 8.73675C6.83091 8.77643 8.15049 8.79132 11.127 8.78139L15.3884 8.76651L15.4826 8.64745C15.6116 8.4887 15.6017 8.28531 15.4628 8.15633L15.3487 8.04719H11.0278H6.70193L6.60271 8.17617Z" fill="#440A46"/>
<path d="M8.27016 11.8022C8.1263 11.9659 8.11637 12.1396 8.25032 12.2933L8.37434 12.4372H11.0383H13.7023L13.8263 12.2933C13.9602 12.1396 13.9503 11.9659 13.8065 11.8022C13.732 11.7228 13.5336 11.7179 11.0383 11.7179C8.54301 11.7179 8.34457 11.7228 8.27016 11.8022Z" fill="#440A46"/>
<path d="M5.60998 2.71928C5.47108 2.8929 5.481 3.06157 5.62983 3.2104L5.74889 3.33442H11.0867H16.4246L16.5437 3.2104C16.6925 3.06157 16.7024 2.8929 16.5635 2.71928L16.4643 2.59029H11.0867H5.7092L5.60998 2.71928Z" fill="#440A46"/>
<path d="M5.63086 4.55025C5.56141 4.61474 5.50684 4.72884 5.50684 4.79829C5.50684 4.86775 5.56141 4.98184 5.63086 5.04634L5.74992 5.17036H9.62433H13.4987L13.6178 5.04634C13.6873 4.98184 13.7418 4.89255 13.7418 4.85286C13.7418 4.71396 13.6327 4.53537 13.5087 4.4808C13.4243 4.44111 12.2635 4.42623 9.56976 4.42623H5.74992L5.63086 4.55025Z" fill="#440A46"/>
</svg>
