<svg width="14" height="14" viewBox="0 0 14 14" fill="none" xmlns="http://www.w3.org/2000/svg">
<path d="M7 0C7.24215 0 7.47439 0.0961953 7.64562 0.267424C7.81685 0.438653 7.91304 0.670889 7.91304 0.913043V6.08696H13.087C13.3291 6.08696 13.5613 6.18315 13.7326 6.35438C13.9038 6.52561 14 6.75785 14 7C14 7.24215 13.9038 7.47439 13.7326 7.64562C13.5613 7.81685 13.3291 7.91304 13.087 7.91304H7.91304V13.087C7.91304 13.3291 7.81685 13.5613 7.64562 13.7326C7.47439 13.9038 7.24215 14 7 14C6.75785 14 6.52561 13.9038 6.35438 13.7326C6.18315 13.5613 6.08696 13.3291 6.08696 13.087V7.91304H0.913043C0.670889 7.91304 0.438653 7.81685 0.267424 7.64562C0.0961953 7.47439 0 7.24215 0 7C0 6.75785 0.0961953 6.52561 0.267424 6.35438C0.438653 6.18315 0.670889 6.08696 0.913043 6.08696H6.08696V0.913043C6.08696 0.670889 6.18315 0.438653 6.35438 0.267424C6.52561 0.0961953 6.75785 0 7 0Z" fill="#440A46"/>
</svg>
