<svg width="17" height="12" viewBox="0 0 17 12" fill="none" xmlns="http://www.w3.org/2000/svg">
<path d="M4.25 2.55H0V0.85H4.25V2.55ZM4.25 5.1H0V6.8H4.25V5.1ZM15.8015 11.05L12.546 7.7945C11.866 8.2365 11.067 8.5 10.2 8.5C7.854 8.5 5.95 6.596 5.95 4.25C5.95 1.904 7.854 0 10.2 0C12.546 0 14.45 1.904 14.45 4.25C14.45 5.117 14.1865 5.916 13.7445 6.5875L17 9.8515L15.8015 11.05ZM12.75 4.25C12.75 2.8475 11.6025 1.7 10.2 1.7C8.7975 1.7 7.65 2.8475 7.65 4.25C7.65 5.6525 8.7975 6.8 10.2 6.8C11.6025 6.8 12.75 5.6525 12.75 4.25ZM0 11.05H8.5V9.35H0V11.05Z" fill="#440A46"/>
</svg>
