<svg width="19" height="19" viewBox="0 0 19 19" fill="none" xmlns="http://www.w3.org/2000/svg">
<path d="M16.4091 8.63636H19V10.3636H16.4091V8.63636ZM0 8.63636H2.59091V10.3636H0V8.63636ZM10.3636 0V2.59091H8.63636V0H10.3636ZM3.38545 2.15909L5.225 4.00727L3.99864 5.225L2.15909 3.39409L3.38545 2.15909ZM13.775 3.99864L15.6059 2.15909L16.8409 3.39409L15.0014 5.225L13.775 3.99864ZM9.5 4.31818C10.8743 4.31818 12.1923 4.86412 13.1641 5.8359C14.1359 6.80768 14.6818 8.1257 14.6818 9.5C14.6818 11.4173 13.6368 13.0927 12.0909 13.9909V15.5455C12.0909 15.7745 11.9999 15.9942 11.838 16.1561C11.676 16.3181 11.4563 16.4091 11.2273 16.4091H7.77273C7.54368 16.4091 7.32401 16.3181 7.16204 16.1561C7.00008 15.9942 6.90909 15.7745 6.90909 15.5455V13.9909C5.36318 13.0927 4.31818 11.4173 4.31818 9.5C4.31818 8.1257 4.86412 6.80768 5.8359 5.8359C6.80768 4.86412 8.1257 4.31818 9.5 4.31818ZM11.2273 17.2727V18.1364C11.2273 18.3654 11.1363 18.5851 10.9743 18.747C10.8124 18.909 10.5927 19 10.3636 19H8.63636C8.40731 19 8.18764 18.909 8.02568 18.747C7.86372 18.5851 7.77273 18.3654 7.77273 18.1364V17.2727H11.2273ZM8.63636 14.6818H10.3636V12.8423C11.8577 12.4623 12.9545 11.1064 12.9545 9.5C12.9545 8.5838 12.5906 7.70512 11.9427 7.05727C11.2949 6.40941 10.4162 6.04545 9.5 6.04545C8.5838 6.04545 7.70512 6.40941 7.05727 7.05727C6.40941 7.70512 6.04545 8.5838 6.04545 9.5C6.04545 11.1064 7.14227 12.4623 8.63636 12.8423V14.6818Z" fill="#440A46"/>
</svg>
