<svg width="20" height="20" viewBox="0 0 23 23" fill="none" xmlns="http://www.w3.org/2000/svg">
    <path d="M1.20312 11.3203C1.20312 6.37057 1.20312 3.8957 2.74081 2.358C4.27851 0.820312 6.75338 0.820312 11.7031 0.820312C16.6528 0.820312 19.1277 0.820312 20.6655 2.358C22.2031 3.8957 22.2031 6.37057 22.2031 11.3203C22.2031 16.27 22.2031 18.7449 20.6655 20.2827C19.1277 21.8203 16.6528 21.8203 11.7031 21.8203C6.75338 21.8203 4.27851 21.8203 2.74081 20.2827C1.20312 18.7449 1.20312 16.27 1.20312 11.3203Z" stroke="#646464" stroke-width="1.5"/>
    <path d="M1.20312 8.00781H22.2031" stroke="#646464" stroke-width="1.5" stroke-linejoin="round"/>
    <path d="M6.17969 4.69141H6.18961" stroke="#646464" stroke-width="2" stroke-linecap="round" stroke-linejoin="round"/>
    <path d="M10.6016 4.69141H10.6115" stroke="#646464" stroke-width="2" stroke-linecap="round" stroke-linejoin="round"/>
    <path d="M17.3503 11.3242C17.9722 12.2778 18.3335 13.4167 18.3335 14.64C18.3335 15.8633 17.9722 17.0022 17.3503 17.9558M6.05341 11.3242C5.43165 12.2778 5.07031 13.4167 5.07031 14.64C5.07031 15.8633 5.43165 17.0022 6.05341 17.9558" stroke="#646464" stroke-width="1.5" stroke-linecap="round" stroke-linejoin="round"/>
    <path d="M9.49219 12.4297L13.9132 16.8507M13.9132 12.4297L9.49219 16.8507" stroke="#646464" stroke-width="1.5" stroke-linecap="round" stroke-linejoin="round"/>
</svg>
