<svg width="20" height="20" viewBox="0 0 20 20" fill="none" xmlns="http://www.w3.org/2000/svg">
<g clip-path="url(#clip0_92_1366)">
<path fill-rule="evenodd" clip-rule="evenodd" d="M0 0H20V20H0V0Z" fill="#E7E7E7"/>
<path fill-rule="evenodd" clip-rule="evenodd" d="M0.293945 8.7791V9.13354H0.875302L2.01301 11.2672H3.41302L4.55073 9.13001L5.13198 9.12638L5.13322 8.7791H3.39403V9.12762H3.85721L3.05381 10.6445L2.18483 9.13291L2.81869 9.13001L2.81755 8.7791H0.293945ZM11.514 8.7791V9.13354H12.0952L13.2331 11.2672H14.633L15.7707 9.13001L16.3522 9.12638L16.3531 8.7791H14.6142V9.12762H15.0772L14.2739 10.6445L13.4049 9.13291L14.0387 9.13001L14.0376 8.7791H11.514ZM8.65353 8.7791V9.13354H9.23489L9.23572 10.8755H8.62302V11.264L9.23613 11.2672H12.1387V10.1091H11.7605C11.7398 10.7223 11.2078 10.8764 10.9839 10.8764C10.7785 10.8764 10.3807 10.8755 10.3807 10.8755V9.13291L10.9532 9.13001L10.9524 8.7791H8.65353ZM6.69655 8.70771C5.70846 8.70771 4.90755 9.29602 4.90755 10.0215C4.90755 10.747 5.70846 11.3353 6.69655 11.3353C7.68464 11.3353 8.48565 10.747 8.48565 10.0215C8.48565 9.29602 7.68464 8.70771 6.69655 8.70771ZM6.67092 10.9486C6.3226 10.9486 6.04038 10.5314 6.04038 10.0164C6.04038 9.50136 6.3226 9.08384 6.67092 9.08384C7.01913 9.08384 7.30156 9.50136 7.30156 10.0164C7.30156 10.5314 7.01913 10.9486 6.67092 10.9486ZM17.9168 8.66455C16.9288 8.66455 16.1278 9.2623 16.1278 9.99981C16.1278 10.737 16.9288 11.3349 17.9168 11.3349C18.9047 11.3349 19.7058 10.737 19.7058 9.99981C19.7058 9.2624 18.9047 8.66455 17.9168 8.66455ZM17.8911 10.9419C17.543 10.9419 17.2607 10.5178 17.2607 9.99442C17.2607 9.47106 17.543 9.0468 17.8911 9.0468C18.2394 9.0468 18.5215 9.47096 18.5215 9.99442C18.5215 10.5178 18.2394 10.9419 17.8911 10.9419Z" fill="#2761AB"/>
</g>
<defs>
<clipPath id="clip0_92_1366">
<rect width="20" height="20" fill="white"/>
</clipPath>
</defs>
</svg>
