<svg width="18" height="18" viewBox="0 0 18 18" fill="none" xmlns="http://www.w3.org/2000/svg">
    <g clip-path="url(#clip0_4804_2468)">
        <path fill-rule="evenodd" clip-rule="evenodd" d="M6.60156 13.7929L9.00156 17.3906L11.4016 13.7929H16.2016C16.8652 13.7929 17.4016 13.2569 17.4016 12.5938V1.80078C17.4016 1.13761 16.8652 0.601562 16.2016 0.601562H1.80156C1.13796 0.601562 0.601562 1.13761 0.601562 1.80078V12.5938C0.601562 13.2569 1.13796 13.7929 1.80156 13.7929H6.60156Z" stroke="black" stroke-linecap="square" stroke-linejoin="round"/>
        <path d="M12.8124 6.4554C12.7311 6.31003 12.5571 6.27518 12.4393 6.26684V5.38098C12.4393 5.05242 12.0787 4.78523 11.6352 4.78523H9.22312V4.37119C9.34574 4.28958 9.42413 4.17222 9.42413 4.04056C9.42413 3.92206 9.3606 3.80841 9.24751 3.72462C9.13442 3.64082 8.98103 3.59375 8.8211 3.59375C8.66117 3.59375 8.50778 3.64082 8.39469 3.72462C8.2816 3.80841 8.21807 3.92206 8.21807 4.04056C8.21807 4.17222 8.29646 4.28958 8.41908 4.37119V4.78523H6.00696C5.56353 4.78523 5.20292 5.05242 5.20292 5.38098V6.27369L5.16995 6.27548C5.06863 6.2809 4.97383 6.31454 4.90462 6.36963C4.83541 6.42473 4.79692 6.49719 4.79688 6.57246V7.1682C4.79688 7.2472 4.83923 7.32297 4.91462 7.37883C4.99002 7.43469 5.09227 7.46607 5.1989 7.46607H5.20292V8.95543C5.20292 9.28398 5.56353 9.55117 6.00696 9.55117H11.6352C12.0787 9.55117 12.4393 9.28398 12.4393 8.95543V7.46607C12.5459 7.46607 12.6482 7.43469 12.7236 7.37883C12.7989 7.32297 12.8413 7.2472 12.8413 7.1682V6.59093C12.8459 6.5447 12.836 6.49831 12.8124 6.4554ZM6.00696 8.95543V5.38098H11.6352L11.6356 6.57127L11.6352 6.57246V7.1682L11.6356 7.16969L11.636 8.95543H6.00696Z" fill="#222222"/>
        <path d="M7.41553 7.16805C7.74858 7.16805 8.01856 6.90132 8.01856 6.5723C8.01856 6.24329 7.74858 5.97656 7.41553 5.97656C7.08249 5.97656 6.8125 6.24329 6.8125 6.5723C6.8125 6.90132 7.08249 7.16805 7.41553 7.16805Z" fill="#222222"/>
        <path d="M10.228 7.16805C10.5611 7.16805 10.8311 6.90132 10.8311 6.5723C10.8311 6.24329 10.5611 5.97656 10.228 5.97656C9.89499 5.97656 9.625 6.24329 9.625 6.5723C9.625 6.90132 9.89499 7.16805 10.228 7.16805Z" fill="#222222"/>
        <path d="M7.21875 7.76562H10.4349V8.36029H7.21875V7.76562Z" fill="#222222"/>
    </g>
    <defs>
        <clipPath id="clip0_4804_2468">
            <rect width="18" height="18" fill="white"/>
        </clipPath>
    </defs>
</svg>
