<svg width="17" height="17" viewBox="0 0 17 17" fill="none" xmlns="http://www.w3.org/2000/svg">
    <path d="M8.5 10.3099L2.1654 16.6445C1.92839 16.8815 1.62674 17 1.26046 17C0.89417 17 0.592522 16.8815 0.355513 16.6445C0.118504 16.4075 0 16.1058 0 15.7395C0 15.3733 0.118504 15.0716 0.355513 14.8346L6.69011 8.5L0.355513 2.1654C0.118504 1.92839 0 1.62674 0 1.26046C0 0.89417 0.118504 0.592522 0.355513 0.355513C0.592522 0.118504 0.89417 0 1.26046 0C1.62674 0 1.92839 0.118504 2.1654 0.355513L8.5 6.69011L14.8346 0.355513C15.0716 0.118504 15.3733 0 15.7395 0C16.1058 0 16.4075 0.118504 16.6445 0.355513C16.8815 0.592522 17 0.89417 17 1.26046C17 1.62674 16.8815 1.92839 16.6445 2.1654L10.3099 8.5L16.6445 14.8346C16.8815 15.0716 17 15.3733 17 15.7395C17 16.1058 16.8815 16.4075 16.6445 16.6445C16.4075 16.8815 16.1058 17 15.7395 17C15.3733 17 15.0716 16.8815 14.8346 16.6445L8.5 10.3099Z" fill="#646464"/>
</svg>
