<svg width="20" height="20" viewBox="0 0 20 20" fill="none" xmlns="http://www.w3.org/2000/svg">
<mask id="mask0_92_1389" style="mask-type:alpha" maskUnits="userSpaceOnUse" x="0" y="0" width="20" height="20">
<circle cx="10" cy="10" r="10" fill="white"/>
</mask>
<g mask="url(#mask0_92_1389)">
<path d="M0 14.9246V14.9255C0.0120096 15.3698 0.0160128 15.8167 0.0906325 16.2583C0.170056 16.7255 0.283587 17.181 0.50016 17.605C0.792981 18.1789 1.19386 18.6638 1.7028 19.0595C2.06725 19.3437 2.46541 19.5694 2.90617 19.7118C3.54876 19.9191 4.21177 19.9985 4.88447 20.0024C5.30416 20.005 5.72362 20.0155 6.14347 20.0138C9.19247 20.001 12.2416 20.0358 15.2907 19.995C15.6953 19.9895 16.0933 19.9401 16.4904 19.8675C17.2515 19.7282 17.9241 19.4031 18.4996 18.89C19.1703 18.2918 19.6228 17.5596 19.8271 16.6761C19.9608 16.0985 19.9942 15.5126 19.9999 14.9245V14.8072C19.9999 14.7617 19.9826 4.81593 19.981 4.68447C19.9766 4.32338 19.95 3.96493 19.8823 3.60961C19.7999 3.17662 19.6836 2.75468 19.4763 2.36301C19.2573 1.94908 18.9831 1.57702 18.6436 1.2518C18.1241 0.753563 17.5245 0.401281 16.8262 0.214892C16.1958 0.0467574 15.5526 0.00928743 14.9046 0.00992794C14.9026 0.00701026 14.9013 0.00357647 14.901 0H5.09528C5.09528 0.00336269 5.09528 0.00664532 5.09472 0.00992794C4.72698 0.0166533 4.35877 0.0138511 3.99295 0.0592474C3.59223 0.109047 3.19528 0.184067 2.81601 0.324179C2.21857 0.545156 1.69944 0.889352 1.25604 1.349C0.753643 1.86942 0.399359 2.47166 0.211689 3.17278C0.0439552 3.79832 0.00744596 4.43627 0.00656525 5.07878" fill="#E7E7E7"/>
<path d="M10.3542 15.5215L7.0753 15.4615C6.01366 15.4406 4.94936 15.4824 3.90853 15.2659C2.32519 14.9424 2.21302 13.3564 2.09564 12.0261C1.93391 10.1558 1.99652 8.25153 2.30173 6.39684C2.47402 5.35617 3.15209 4.73519 4.20069 4.66762C7.74048 4.42238 11.3038 4.45145 14.8358 4.56586C15.2088 4.57635 15.5844 4.63367 15.9522 4.69893C17.7678 5.01718 17.8121 6.81446 17.9297 8.32743C18.0471 9.85601 17.9976 11.3924 17.7732 12.9106C17.5932 14.1676 17.2489 15.2217 15.7956 15.3235C13.9748 15.4566 12.1958 15.5637 10.3699 15.5296C10.3699 15.5215 10.3595 15.5215 10.3542 15.5215ZM8.42655 12.3391C9.79868 11.5513 11.1446 10.7766 12.5089 9.99404C11.1342 9.20621 9.79084 8.43151 8.42655 7.64897V12.3391Z" fill="#FF0000"/>
</g>
</svg>
