<svg height="15px" viewBox="0 0 24 24" fill="none" xmlns="http://www.w3.org/2000/svg">
    <path d="M14.5 3H7.872C7.3905 3 7 3.3905 7 3.872V7.5015H14.5V3Z" fill="#169154"/>
    <path d="M7 16.5273V20.1283C7 20.6098 7.3905 21.0003 7.8715 21.0003H14.5V16.5273H7Z" fill="#18482A"/>
    <path d="M7 7.5H14.5V12.001H7V7.5Z" fill="#0C8045"/>
    <path d="M7 12.0039H14.5V16.5289H7V12.0039Z" fill="#17472A"/>
    <path d="M21.128 3H14.5V7.5015H22V3.872C22 3.3905 21.6095 3 21.128 3Z" fill="#29C27F"/>
    <path d="M14.5 16.5273V21.0003H21.1285C21.6095 21.0003 22 20.6098 22 20.1288V16.5278L14.5 16.5273Z" fill="#27663F"/>
    <path d="M14.5 7.5H22V12.001H14.5V7.5Z" fill="#19AC65"/>
    <path d="M14.5 12.0039H22V16.5289H14.5V12.0039Z" fill="#129652"/>
    <path d="M11.1595 17H2.8405C2.3765 17 2 16.6235 2 16.1595V7.8405C2 7.3765 2.3765 7 2.8405 7H11.1595C11.6235 7 12 7.3765 12 7.8405V16.1595C12 16.6235 11.6235 17 11.1595 17Z" fill="#0C7238"/>
    <path d="M4.90613 9.5H6.09912L7.06712 11.377L8.09012 9.5H9.20462L7.66913 12L9.23963 14.5H8.06412L7.00912 12.535L5.95862 14.5H4.76562L6.36212 11.991L4.90613 9.5Z" fill="white"/>
</svg>
