<svg height="15px" viewBox="0 0 16 20" fill="none" xmlns="http://www.w3.org/2000/svg">
    <path d="M9 7H14.5L9 1.5V7ZM2 0H10L16 6V18C16 18.5304 15.7893 19.0391 15.4142 19.4142C15.0391 19.7893 14.5304 20 14 20H2C1.46957 20 0.960859 19.7893 0.585786 19.4142C0.210714 19.0391 0 18.5304 0 18V2C0 1.46957 0.210714 0.960859 0.585786 0.585786C0.960859 0.210714 1.46957 0 2 0ZM6.93 10.44C7.34 11.34 7.86 12.08 8.46 12.59L8.87 12.91C8 13.07 6.8 13.35 5.53 13.84L5.42 13.88L5.92 12.84C6.37 11.97 6.7 11.18 6.93 10.44ZM13.41 14.25C13.59 14.07 13.68 13.84 13.69 13.59C13.72 13.39 13.67 13.2 13.57 13.04C13.28 12.57 12.53 12.35 11.29 12.35L10 12.42L9.13 11.84C8.5 11.32 7.93 10.41 7.53 9.28L7.57 9.14C7.9 7.81 8.21 6.2 7.55 5.54C7.46927 5.46161 7.37378 5.40003 7.26907 5.35883C7.16435 5.31763 7.0525 5.29764 6.94 5.3H6.7C6.33 5.3 6 5.69 5.91 6.07C5.54 7.4 5.76 8.13 6.13 9.34V9.35C5.88 10.23 5.56 11.25 5.05 12.28L4.09 14.08L3.2 14.57C2 15.32 1.43 16.16 1.32 16.69C1.28 16.88 1.3 17.05 1.37 17.23L1.4 17.28L1.88 17.59L2.32 17.7C3.13 17.7 4.05 16.75 5.29 14.63L5.47 14.56C6.5 14.23 7.78 14 9.5 13.81C10.53 14.32 11.74 14.55 12.5 14.55C12.94 14.55 13.24 14.44 13.41 14.25ZM13 13.54L13.09 13.65C13.08 13.75 13.05 13.76 13 13.78H12.96L12.77 13.8C12.31 13.8 11.6 13.61 10.87 13.29C10.96 13.19 11 13.19 11.1 13.19C12.5 13.19 12.9 13.44 13 13.54ZM3.83 15C3.18 16.19 2.59 16.85 2.14 17C2.19 16.62 2.64 15.96 3.35 15.31L3.83 15ZM6.85 8.09C6.62 7.19 6.61 6.46 6.78 6.04L6.85 5.92L7 5.97C7.17 6.21 7.19 6.53 7.09 7.07L7.06 7.23L6.9 8.05L6.85 8.09Z" fill="#EF5350"/>
</svg>