<svg height="15px" viewBox="0 0 24 24" fill="none" xmlns="http://www.w3.org/2000/svg">
    <path d="M4 12C4 16.9705 8.0295 21 13 21C17.9705 21 22 16.9705 22 12H13H4Z" fill="#D35230"/>
    <path d="M13 3V12H22C22 7.0295 17.9705 3 13 3Z" fill="#FF8F6B"/>
    <path d="M13 3C8.0295 3 4 7.0295 4 12H13V3Z" fill="#ED6C47"/>
    <path opacity="0.05" d="M13 8.3405C13 7.324 12.176 6.5 11.1595 6.5H5.887C4.7085 8.022 4 9.926 4 12C4 14.558 5.0725 16.8615 6.7855 18.5H11.159C12.176 18.5 13 17.676 13 16.6595V8.3405Z" fill="black"/>
    <path opacity="0.07" d="M11.1065 6.66797H5.7625C4.66 8.16197 4 10.0025 4 12.0015C4 14.31 4.8765 16.4085 6.3055 18.0015H11.1065C11.9685 18.0015 12.667 17.303 12.667 16.441V8.22847C12.6665 7.36697 11.968 6.66797 11.1065 6.66797Z" fill="black"/>
    <path opacity="0.09" d="M11.053 6.83203H5.638C4.609 8.29503 4 10.074 4 11.9985C4 14.0725 4.7085 15.9765 5.887 17.4985H11.053C11.76 17.4985 12.333 16.9255 12.333 16.2185V8.11203C12.3335 7.40503 11.76 6.83203 11.053 6.83203Z" fill="black"/>
    <path d="M11 17H3C2.4475 17 2 16.5525 2 16V8C2 7.4475 2.4475 7 3 7H11C11.5525 7 12 7.4475 12 8V16C12 16.5525 11.5525 17 11 17Z" fill="url(#paint0_linear_5063_3604)"/>
    <path d="M7.3365 9.50781H5V14.5078H6.012V12.7473H7.15C8.088 12.7473 8.8485 11.9868 8.8485 11.0488V11.0198C8.8485 10.1848 8.1715 9.50781 7.3365 9.50781ZM7.785 11.1808C7.785 11.6103 7.4365 11.9588 7.007 11.9588H6.012V10.2963H7.007C7.4365 10.2963 7.785 10.6448 7.785 11.0743V11.1808Z" fill="white"/>
    <defs>
        <linearGradient id="paint0_linear_5063_3604" x1="2.293" y1="7.293" x2="11.385" y2="16.385" gradientUnits="userSpaceOnUse">
            <stop stop-color="#CA4E2A"/>
            <stop offset="1" stop-color="#B63016"/>
        </linearGradient>
    </defs>
</svg>